{
	"patcher" : 	{
		"fileversion" : 1,
		"rect" : [ 807.0, 208.0, 1063.0, 946.0 ],
		"bglocked" : 0,
		"defrect" : [ 807.0, 208.0, 1063.0, 946.0 ],
		"openrect" : [ 0.0, 0.0, 0.0, 0.0 ],
		"openinpresentation" : 1,
		"default_fontsize" : 12.0,
		"default_fontface" : 0,
		"default_fontname" : "Arial",
		"gridonopen" : 0,
		"gridsize" : [ 4.0, 4.0 ],
		"gridsnaponopen" : 0,
		"toolbarvisible" : 1,
		"boxanimatetime" : 200,
		"imprint" : 0,
		"enablehscroll" : 1,
		"enablevscroll" : 1,
		"devicewidth" : 0.0,
		"boxes" : [ 			{
				"box" : 				{
					"maxclass" : "newobj",
					"text" : "pvar sevenup-mmode-slot7",
					"numoutlets" : 1,
					"fontsize" : 12.0,
					"outlettype" : [ "" ],
					"patching_rect" : [ 460.0, 392.0, 156.0, 20.0 ],
					"id" : "obj-97",
					"fontname" : "Arial",
					"numinlets" : 1
				}

			}
, 			{
				"box" : 				{
					"maxclass" : "newobj",
					"text" : "pvar sevenup-mmode-slot6",
					"numoutlets" : 1,
					"fontsize" : 12.0,
					"outlettype" : [ "" ],
					"patching_rect" : [ 461.0, 369.0, 156.0, 20.0 ],
					"id" : "obj-96",
					"fontname" : "Arial",
					"numinlets" : 1
				}

			}
, 			{
				"box" : 				{
					"maxclass" : "newobj",
					"text" : "pvar sevenup-mmode-slot5",
					"numoutlets" : 1,
					"fontsize" : 12.0,
					"outlettype" : [ "" ],
					"patching_rect" : [ 461.0, 345.0, 156.0, 20.0 ],
					"id" : "obj-95",
					"fontname" : "Arial",
					"numinlets" : 1
				}

			}
, 			{
				"box" : 				{
					"maxclass" : "newobj",
					"text" : "pvar sevenup-mmode-slot4",
					"numoutlets" : 1,
					"fontsize" : 12.0,
					"outlettype" : [ "" ],
					"patching_rect" : [ 460.0, 323.0, 156.0, 20.0 ],
					"id" : "obj-94",
					"fontname" : "Arial",
					"numinlets" : 1
				}

			}
, 			{
				"box" : 				{
					"maxclass" : "newobj",
					"text" : "pvar sevenup-mmode-slot3",
					"numoutlets" : 1,
					"fontsize" : 12.0,
					"outlettype" : [ "" ],
					"patching_rect" : [ 459.0, 300.0, 156.0, 20.0 ],
					"id" : "obj-93",
					"fontname" : "Arial",
					"numinlets" : 1
				}

			}
, 			{
				"box" : 				{
					"maxclass" : "newobj",
					"text" : "pvar sevenup-mmode-slot2",
					"numoutlets" : 1,
					"fontsize" : 12.0,
					"outlettype" : [ "" ],
					"patching_rect" : [ 459.0, 278.0, 156.0, 20.0 ],
					"id" : "obj-92",
					"fontname" : "Arial",
					"numinlets" : 1
				}

			}
, 			{
				"box" : 				{
					"maxclass" : "newobj",
					"text" : "pvar sevenup-mmode-slot1",
					"numoutlets" : 1,
					"fontsize" : 12.0,
					"outlettype" : [ "" ],
					"patching_rect" : [ 460.0, 256.0, 156.0, 20.0 ],
					"id" : "obj-91",
					"fontname" : "Arial",
					"numinlets" : 1
				}

			}
, 			{
				"box" : 				{
					"maxclass" : "newobj",
					"text" : "pvar sevenup-mgroup-slot7",
					"numoutlets" : 1,
					"fontsize" : 12.0,
					"outlettype" : [ "" ],
					"patching_rect" : [ 298.0, 394.0, 157.0, 20.0 ],
					"id" : "obj-90",
					"fontname" : "Arial",
					"numinlets" : 1
				}

			}
, 			{
				"box" : 				{
					"maxclass" : "newobj",
					"text" : "pvar sevenup-mgroup-slot6",
					"numoutlets" : 1,
					"fontsize" : 12.0,
					"outlettype" : [ "" ],
					"patching_rect" : [ 299.0, 369.0, 157.0, 20.0 ],
					"id" : "obj-89",
					"fontname" : "Arial",
					"numinlets" : 1
				}

			}
, 			{
				"box" : 				{
					"maxclass" : "newobj",
					"text" : "pvar sevenup-mgroup-slot5",
					"numoutlets" : 1,
					"fontsize" : 12.0,
					"outlettype" : [ "" ],
					"patching_rect" : [ 298.0, 346.0, 157.0, 20.0 ],
					"id" : "obj-88",
					"fontname" : "Arial",
					"numinlets" : 1
				}

			}
, 			{
				"box" : 				{
					"maxclass" : "newobj",
					"text" : "pvar sevenup-mgroup-slot4",
					"numoutlets" : 1,
					"fontsize" : 12.0,
					"outlettype" : [ "" ],
					"patching_rect" : [ 298.0, 324.0, 157.0, 20.0 ],
					"id" : "obj-87",
					"fontname" : "Arial",
					"numinlets" : 1
				}

			}
, 			{
				"box" : 				{
					"maxclass" : "newobj",
					"text" : "pvar sevenup-mgroup-slot3",
					"numoutlets" : 1,
					"fontsize" : 12.0,
					"outlettype" : [ "" ],
					"patching_rect" : [ 299.0, 300.0, 157.0, 20.0 ],
					"id" : "obj-86",
					"fontname" : "Arial",
					"numinlets" : 1
				}

			}
, 			{
				"box" : 				{
					"maxclass" : "newobj",
					"text" : "pvar sevenup-mgroup-slot2",
					"numoutlets" : 1,
					"fontsize" : 12.0,
					"outlettype" : [ "" ],
					"patching_rect" : [ 299.0, 278.0, 157.0, 20.0 ],
					"id" : "obj-85",
					"fontname" : "Arial",
					"numinlets" : 1
				}

			}
, 			{
				"box" : 				{
					"maxclass" : "newobj",
					"text" : "pvar sevenup-mgroup-slot1",
					"numoutlets" : 1,
					"fontsize" : 12.0,
					"outlettype" : [ "" ],
					"patching_rect" : [ 299.0, 256.0, 157.0, 20.0 ],
					"id" : "obj-84",
					"fontname" : "Arial",
					"numinlets" : 1
				}

			}
, 			{
				"box" : 				{
					"maxclass" : "newobj",
					"text" : "pvar sevenup-transpose-ctrl",
					"numoutlets" : 1,
					"fontsize" : 12.0,
					"outlettype" : [ "" ],
					"patching_rect" : [ 138.0, 190.0, 159.0, 20.0 ],
					"id" : "obj-83",
					"fontname" : "Arial",
					"numinlets" : 1
				}

			}
, 			{
				"box" : 				{
					"maxclass" : "newobj",
					"text" : "pvar sevenup-melodizer-tool-mode",
					"numoutlets" : 1,
					"fontsize" : 12.0,
					"outlettype" : [ "" ],
					"patching_rect" : [ 56.0, 131.0, 196.0, 20.0 ],
					"id" : "obj-82",
					"fontname" : "Arial",
					"numinlets" : 1
				}

			}
, 			{
				"box" : 				{
					"maxclass" : "newobj",
					"text" : "pvar sevenup-melodizer-tool-mode",
					"numoutlets" : 1,
					"fontsize" : 12.0,
					"outlettype" : [ "" ],
					"patching_rect" : [ 850.0, 101.0, 196.0, 20.0 ],
					"id" : "obj-81",
					"fontname" : "Arial",
					"numinlets" : 1
				}

			}
, 			{
				"box" : 				{
					"maxclass" : "newobj",
					"text" : "pvar sevenup-record-mode",
					"numoutlets" : 1,
					"fontsize" : 12.0,
					"outlettype" : [ "" ],
					"patching_rect" : [ 54.0, 221.0, 155.0, 20.0 ],
					"id" : "obj-79",
					"fontname" : "Arial",
					"numinlets" : 1
				}

			}
, 			{
				"box" : 				{
					"maxclass" : "newobj",
					"text" : "pvar sevenup-scale-name",
					"numoutlets" : 1,
					"fontsize" : 12.0,
					"outlettype" : [ "" ],
					"patching_rect" : [ 676.0, 102.0, 149.0, 20.0 ],
					"id" : "obj-78",
					"fontname" : "Arial",
					"numinlets" : 1
				}

			}
, 			{
				"box" : 				{
					"maxclass" : "newobj",
					"text" : "pvar sevenup-scale-name",
					"numoutlets" : 1,
					"fontsize" : 12.0,
					"outlettype" : [ "" ],
					"patching_rect" : [ 22.0, 279.0, 149.0, 20.0 ],
					"id" : "obj-77",
					"fontname" : "Arial",
					"numinlets" : 1
				}

			}
, 			{
				"box" : 				{
					"maxclass" : "newobj",
					"text" : "prepend set",
					"numoutlets" : 1,
					"fontsize" : 12.0,
					"outlettype" : [ "" ],
					"patching_rect" : [ 529.0, 231.0, 74.0, 20.0 ],
					"id" : "obj-69",
					"fontname" : "Arial",
					"numinlets" : 1
				}

			}
, 			{
				"box" : 				{
					"maxclass" : "newobj",
					"text" : "prepend set",
					"numoutlets" : 1,
					"fontsize" : 12.0,
					"outlettype" : [ "" ],
					"patching_rect" : [ 514.0, 216.0, 74.0, 20.0 ],
					"id" : "obj-70",
					"fontname" : "Arial",
					"numinlets" : 1
				}

			}
, 			{
				"box" : 				{
					"maxclass" : "newobj",
					"text" : "prepend set",
					"numoutlets" : 1,
					"fontsize" : 12.0,
					"outlettype" : [ "" ],
					"patching_rect" : [ 499.0, 201.0, 74.0, 20.0 ],
					"id" : "obj-71",
					"fontname" : "Arial",
					"numinlets" : 1
				}

			}
, 			{
				"box" : 				{
					"maxclass" : "newobj",
					"text" : "prepend set",
					"numoutlets" : 1,
					"fontsize" : 12.0,
					"outlettype" : [ "" ],
					"patching_rect" : [ 484.0, 186.0, 74.0, 20.0 ],
					"id" : "obj-72",
					"fontname" : "Arial",
					"numinlets" : 1
				}

			}
, 			{
				"box" : 				{
					"maxclass" : "newobj",
					"text" : "prepend set",
					"numoutlets" : 1,
					"fontsize" : 12.0,
					"outlettype" : [ "" ],
					"patching_rect" : [ 469.0, 171.0, 74.0, 20.0 ],
					"id" : "obj-73",
					"fontname" : "Arial",
					"numinlets" : 1
				}

			}
, 			{
				"box" : 				{
					"maxclass" : "newobj",
					"text" : "prepend set",
					"numoutlets" : 1,
					"fontsize" : 12.0,
					"outlettype" : [ "" ],
					"patching_rect" : [ 454.0, 156.0, 74.0, 20.0 ],
					"id" : "obj-74",
					"fontname" : "Arial",
					"numinlets" : 1
				}

			}
, 			{
				"box" : 				{
					"maxclass" : "newobj",
					"text" : "prepend set",
					"numoutlets" : 1,
					"fontsize" : 12.0,
					"outlettype" : [ "" ],
					"patching_rect" : [ 439.0, 141.0, 74.0, 20.0 ],
					"id" : "obj-75",
					"fontname" : "Arial",
					"numinlets" : 1
				}

			}
, 			{
				"box" : 				{
					"maxclass" : "newobj",
					"text" : "route 0 1 2 3 4 5 6",
					"numoutlets" : 8,
					"fontsize" : 12.0,
					"outlettype" : [ "", "", "", "", "", "", "", "" ],
					"patching_rect" : [ 406.0, 105.0, 113.5, 20.0 ],
					"id" : "obj-76",
					"fontname" : "Arial",
					"numinlets" : 1
				}

			}
, 			{
				"box" : 				{
					"maxclass" : "newobj",
					"text" : "prepend set",
					"numoutlets" : 1,
					"fontsize" : 12.0,
					"outlettype" : [ "" ],
					"patching_rect" : [ 358.0, 216.0, 74.0, 20.0 ],
					"id" : "obj-68",
					"fontname" : "Arial",
					"numinlets" : 1
				}

			}
, 			{
				"box" : 				{
					"maxclass" : "newobj",
					"text" : "prepend set",
					"numoutlets" : 1,
					"fontsize" : 12.0,
					"outlettype" : [ "" ],
					"patching_rect" : [ 343.0, 201.0, 74.0, 20.0 ],
					"id" : "obj-67",
					"fontname" : "Arial",
					"numinlets" : 1
				}

			}
, 			{
				"box" : 				{
					"maxclass" : "newobj",
					"text" : "prepend set",
					"numoutlets" : 1,
					"fontsize" : 12.0,
					"outlettype" : [ "" ],
					"patching_rect" : [ 328.0, 186.0, 74.0, 20.0 ],
					"id" : "obj-66",
					"fontname" : "Arial",
					"numinlets" : 1
				}

			}
, 			{
				"box" : 				{
					"maxclass" : "newobj",
					"text" : "prepend set",
					"numoutlets" : 1,
					"fontsize" : 12.0,
					"outlettype" : [ "" ],
					"patching_rect" : [ 313.0, 171.0, 74.0, 20.0 ],
					"id" : "obj-65",
					"fontname" : "Arial",
					"numinlets" : 1
				}

			}
, 			{
				"box" : 				{
					"maxclass" : "newobj",
					"text" : "prepend set",
					"numoutlets" : 1,
					"fontsize" : 12.0,
					"outlettype" : [ "" ],
					"patching_rect" : [ 298.0, 156.0, 74.0, 20.0 ],
					"id" : "obj-64",
					"fontname" : "Arial",
					"numinlets" : 1
				}

			}
, 			{
				"box" : 				{
					"maxclass" : "newobj",
					"text" : "prepend set",
					"numoutlets" : 1,
					"fontsize" : 12.0,
					"outlettype" : [ "" ],
					"patching_rect" : [ 283.0, 141.0, 74.0, 20.0 ],
					"id" : "obj-63",
					"fontname" : "Arial",
					"numinlets" : 1
				}

			}
, 			{
				"box" : 				{
					"maxclass" : "newobj",
					"text" : "prepend set",
					"numoutlets" : 1,
					"fontsize" : 12.0,
					"outlettype" : [ "" ],
					"patching_rect" : [ 268.0, 126.0, 74.0, 20.0 ],
					"id" : "obj-62",
					"fontname" : "Arial",
					"numinlets" : 1
				}

			}
, 			{
				"box" : 				{
					"maxclass" : "newobj",
					"text" : "route 0 1 2 3 4 5 6",
					"numoutlets" : 8,
					"fontsize" : 12.0,
					"outlettype" : [ "", "", "", "", "", "", "", "" ],
					"patching_rect" : [ 288.0, 102.0, 113.5, 20.0 ],
					"id" : "obj-61",
					"fontname" : "Arial",
					"numinlets" : 1
				}

			}
, 			{
				"box" : 				{
					"maxclass" : "newobj",
					"text" : "prepend set",
					"numoutlets" : 1,
					"fontsize" : 12.0,
					"outlettype" : [ "" ],
					"patching_rect" : [ 180.0, 167.0, 74.0, 20.0 ],
					"id" : "obj-60",
					"fontname" : "Arial",
					"numinlets" : 1
				}

			}
, 			{
				"box" : 				{
					"maxclass" : "newobj",
					"text" : "prepend symbol",
					"numoutlets" : 1,
					"fontsize" : 12.0,
					"outlettype" : [ "" ],
					"patching_rect" : [ 146.0, 107.0, 96.0, 20.0 ],
					"id" : "obj-59",
					"fontname" : "Arial",
					"numinlets" : 1
				}

			}
, 			{
				"box" : 				{
					"maxclass" : "newobj",
					"text" : "prepend set",
					"numoutlets" : 1,
					"fontsize" : 12.0,
					"outlettype" : [ "" ],
					"patching_rect" : [ 54.0, 198.0, 74.0, 20.0 ],
					"id" : "obj-58",
					"fontname" : "Arial",
					"numinlets" : 1
				}

			}
, 			{
				"box" : 				{
					"maxclass" : "newobj",
					"text" : "prepend symbol",
					"numoutlets" : 1,
					"fontsize" : 12.0,
					"outlettype" : [ "" ],
					"patching_rect" : [ 22.0, 255.0, 96.0, 20.0 ],
					"id" : "obj-57",
					"fontname" : "Arial",
					"numinlets" : 1
				}

			}
, 			{
				"box" : 				{
					"maxclass" : "newobj",
					"text" : "prepend _parameter_range",
					"numoutlets" : 1,
					"fontsize" : 12.0,
					"outlettype" : [ "" ],
					"patching_rect" : [ 851.0, 76.0, 157.0, 20.0 ],
					"id" : "obj-56",
					"fontname" : "Arial",
					"numinlets" : 1
				}

			}
, 			{
				"box" : 				{
					"maxclass" : "newobj",
					"text" : "prepend _parameter_range",
					"numoutlets" : 1,
					"fontsize" : 12.0,
					"outlettype" : [ "" ],
					"patching_rect" : [ 676.0, 76.0, 157.0, 20.0 ],
					"id" : "obj-55",
					"fontname" : "Arial",
					"numinlets" : 1
				}

			}
, 			{
				"box" : 				{
					"maxclass" : "comment",
					"text" : "Transpose",
					"numoutlets" : 0,
					"fontface" : 1,
					"fontsize" : 10.0,
					"presentation_rect" : [ 195.0, 22.0, 61.0, 18.0 ],
					"patching_rect" : [ 480.0, 500.0, 66.0, 18.0 ],
					"presentation" : 1,
					"id" : "obj-54",
					"fontname" : "Arial",
					"numinlets" : 1
				}

			}
, 			{
				"box" : 				{
					"maxclass" : "comment",
					"text" : "Toolbar",
					"numoutlets" : 0,
					"fontface" : 1,
					"fontsize" : 10.0,
					"presentation_rect" : [ 195.0, 4.0, 50.0, 18.0 ],
					"patching_rect" : [ 481.0, 480.0, 58.0, 18.0 ],
					"presentation" : 1,
					"id" : "obj-53",
					"fontname" : "Arial",
					"numinlets" : 1
				}

			}
, 			{
				"box" : 				{
					"maxclass" : "inlet",
					"numoutlets" : 1,
					"outlettype" : [ "" ],
					"patching_rect" : [ 786.0, 18.0, 25.0, 25.0 ],
					"id" : "obj-52",
					"numinlets" : 0,
					"comment" : ""
				}

			}
, 			{
				"box" : 				{
					"maxclass" : "inlet",
					"numoutlets" : 1,
					"outlettype" : [ "" ],
					"patching_rect" : [ 71.0, 31.0, 25.0, 25.0 ],
					"id" : "obj-51",
					"numinlets" : 0,
					"comment" : ""
				}

			}
, 			{
				"box" : 				{
					"maxclass" : "newobj",
					"text" : "route scales toolmodes",
					"numoutlets" : 3,
					"fontsize" : 12.0,
					"outlettype" : [ "", "", "" ],
					"patching_rect" : [ 792.0, 51.0, 134.0, 20.0 ],
					"id" : "obj-50",
					"fontname" : "Arial",
					"numinlets" : 1
				}

			}
, 			{
				"box" : 				{
					"maxclass" : "newobj",
					"text" : "route scalename recmode toolmode transpose transposegroup sustainmode",
					"numoutlets" : 7,
					"fontsize" : 12.0,
					"outlettype" : [ "", "", "", "", "", "", "" ],
					"patching_rect" : [ 70.0, 72.0, 416.0, 20.0 ],
					"id" : "obj-49",
					"fontname" : "Arial",
					"numinlets" : 1
				}

			}
, 			{
				"box" : 				{
					"maxclass" : "newobj",
					"text" : "prepend sustainmode",
					"numoutlets" : 1,
					"fontsize" : 12.0,
					"outlettype" : [ "" ],
					"patching_rect" : [ 616.0, 768.0, 126.0, 20.0 ],
					"id" : "obj-30",
					"fontname" : "Arial",
					"numinlets" : 1
				}

			}
, 			{
				"box" : 				{
					"maxclass" : "newobj",
					"text" : "prepend 6",
					"numoutlets" : 1,
					"fontsize" : 12.0,
					"outlettype" : [ "" ],
					"patching_rect" : [ 728.0, 707.0, 65.0, 20.0 ],
					"id" : "obj-41",
					"fontname" : "Arial",
					"numinlets" : 1
				}

			}
, 			{
				"box" : 				{
					"maxclass" : "newobj",
					"text" : "prepend 5",
					"numoutlets" : 1,
					"fontsize" : 12.0,
					"outlettype" : [ "" ],
					"patching_rect" : [ 713.0, 692.0, 65.0, 20.0 ],
					"id" : "obj-42",
					"fontname" : "Arial",
					"numinlets" : 1
				}

			}
, 			{
				"box" : 				{
					"maxclass" : "newobj",
					"text" : "prepend 4",
					"numoutlets" : 1,
					"fontsize" : 12.0,
					"outlettype" : [ "" ],
					"patching_rect" : [ 698.0, 677.0, 65.0, 20.0 ],
					"id" : "obj-43",
					"fontname" : "Arial",
					"numinlets" : 1
				}

			}
, 			{
				"box" : 				{
					"maxclass" : "newobj",
					"text" : "prepend 3",
					"numoutlets" : 1,
					"fontsize" : 12.0,
					"outlettype" : [ "" ],
					"patching_rect" : [ 683.0, 662.0, 65.0, 20.0 ],
					"id" : "obj-44",
					"fontname" : "Arial",
					"numinlets" : 1
				}

			}
, 			{
				"box" : 				{
					"maxclass" : "newobj",
					"text" : "prepend 2",
					"numoutlets" : 1,
					"fontsize" : 12.0,
					"outlettype" : [ "" ],
					"patching_rect" : [ 668.0, 647.0, 65.0, 20.0 ],
					"id" : "obj-45",
					"fontname" : "Arial",
					"numinlets" : 1
				}

			}
, 			{
				"box" : 				{
					"maxclass" : "newobj",
					"text" : "prepend 1",
					"numoutlets" : 1,
					"fontsize" : 12.0,
					"outlettype" : [ "" ],
					"patching_rect" : [ 653.0, 631.0, 65.0, 20.0 ],
					"id" : "obj-47",
					"fontname" : "Arial",
					"numinlets" : 1
				}

			}
, 			{
				"box" : 				{
					"maxclass" : "newobj",
					"text" : "prepend 0",
					"numoutlets" : 1,
					"fontsize" : 12.0,
					"outlettype" : [ "" ],
					"patching_rect" : [ 638.0, 617.0, 65.0, 20.0 ],
					"id" : "obj-48",
					"fontname" : "Arial",
					"numinlets" : 1
				}

			}
, 			{
				"box" : 				{
					"maxclass" : "live.menu",
					"varname" : "sevenup-mmode-slot7",
					"numoutlets" : 3,
					"outlettype" : [ "", "", "float" ],
					"presentation_rect" : [ 315.0, 82.0, 62.0, 15.0 ],
					"pictures" : [  ],
					"patching_rect" : [ 698.0, 560.0, 34.0, 15.0 ],
					"presentation" : 1,
					"id" : "obj-20",
					"parameter_enable" : 1,
					"numinlets" : 1,
					"saved_attribute_attributes" : 					{
						"valueof" : 						{
							"parameter_order" : 0,
							"parameter_units" : "",
							"parameter_speedlim" : 0,
							"parameter_steps" : 0,
							"parameter_enum" : [ "GATE", "SUSTAIN" ],
							"parameter_exponent" : 1.0,
							"parameter_unitstyle" : 10,
							"parameter_mmax" : 127.0,
							"parameter_mmin" : 0.0,
							"parameter_initial" : [ 0.0 ],
							"parameter_type" : 2,
							"parameter_initial_enable" : 1,
							"parameter_shortname" : "live.menu",
							"parameter_invisible" : 1,
							"parameter_modmax" : 127.0,
							"parameter_annotation_name" : "",
							"parameter_longname" : "sevenup-mmode-slot7",
							"parameter_modmin" : 0.0,
							"parameter_linknames" : 1,
							"parameter_modmode" : 0,
							"parameter_info" : ""
						}

					}

				}

			}
, 			{
				"box" : 				{
					"maxclass" : "live.menu",
					"varname" : "sevenup-mmode-slot6",
					"numoutlets" : 3,
					"outlettype" : [ "", "", "float" ],
					"presentation_rect" : [ 315.0, 62.0, 62.0, 15.0 ],
					"pictures" : [  ],
					"patching_rect" : [ 698.0, 540.0, 34.0, 15.0 ],
					"presentation" : 1,
					"id" : "obj-21",
					"parameter_enable" : 1,
					"numinlets" : 1,
					"saved_attribute_attributes" : 					{
						"valueof" : 						{
							"parameter_order" : 0,
							"parameter_units" : "",
							"parameter_speedlim" : 0,
							"parameter_steps" : 0,
							"parameter_enum" : [ "GATE", "SUSTAIN" ],
							"parameter_exponent" : 1.0,
							"parameter_unitstyle" : 10,
							"parameter_mmax" : 127.0,
							"parameter_mmin" : 0.0,
							"parameter_initial" : [ 0.0 ],
							"parameter_type" : 2,
							"parameter_initial_enable" : 1,
							"parameter_shortname" : "live.menu",
							"parameter_invisible" : 1,
							"parameter_modmax" : 127.0,
							"parameter_annotation_name" : "",
							"parameter_longname" : "sevenup-mmode-slot6",
							"parameter_modmin" : 0.0,
							"parameter_linknames" : 1,
							"parameter_modmode" : 0,
							"parameter_info" : ""
						}

					}

				}

			}
, 			{
				"box" : 				{
					"maxclass" : "live.menu",
					"varname" : "sevenup-mmode-slot5",
					"numoutlets" : 3,
					"outlettype" : [ "", "", "float" ],
					"presentation_rect" : [ 315.0, 43.0, 62.0, 15.0 ],
					"pictures" : [  ],
					"patching_rect" : [ 698.0, 520.0, 34.0, 15.0 ],
					"presentation" : 1,
					"id" : "obj-22",
					"parameter_enable" : 1,
					"numinlets" : 1,
					"saved_attribute_attributes" : 					{
						"valueof" : 						{
							"parameter_order" : 0,
							"parameter_units" : "",
							"parameter_speedlim" : 0,
							"parameter_steps" : 0,
							"parameter_enum" : [ "GATE", "SUSTAIN" ],
							"parameter_exponent" : 1.0,
							"parameter_unitstyle" : 10,
							"parameter_mmax" : 127.0,
							"parameter_mmin" : 0.0,
							"parameter_initial" : [ 0.0 ],
							"parameter_type" : 2,
							"parameter_initial_enable" : 1,
							"parameter_shortname" : "live.menu",
							"parameter_invisible" : 1,
							"parameter_modmax" : 127.0,
							"parameter_annotation_name" : "",
							"parameter_longname" : "sevenup-mmode-slot5",
							"parameter_modmin" : 0.0,
							"parameter_linknames" : 1,
							"parameter_modmode" : 0,
							"parameter_info" : ""
						}

					}

				}

			}
, 			{
				"box" : 				{
					"maxclass" : "live.menu",
					"varname" : "sevenup-mmode-slot4",
					"numoutlets" : 3,
					"outlettype" : [ "", "", "float" ],
					"presentation_rect" : [ 130.0, 99.0, 62.0, 15.0 ],
					"pictures" : [  ],
					"patching_rect" : [ 434.0, 581.0, 34.0, 15.0 ],
					"presentation" : 1,
					"id" : "obj-3",
					"parameter_enable" : 1,
					"numinlets" : 1,
					"saved_attribute_attributes" : 					{
						"valueof" : 						{
							"parameter_order" : 0,
							"parameter_units" : "",
							"parameter_speedlim" : 0,
							"parameter_steps" : 0,
							"parameter_enum" : [ "GATE", "SUSTAIN" ],
							"parameter_exponent" : 1.0,
							"parameter_unitstyle" : 10,
							"parameter_mmax" : 127.0,
							"parameter_mmin" : 0.0,
							"parameter_initial" : [ 0.0 ],
							"parameter_type" : 2,
							"parameter_initial_enable" : 1,
							"parameter_shortname" : "live.menu",
							"parameter_invisible" : 1,
							"parameter_modmax" : 127.0,
							"parameter_annotation_name" : "",
							"parameter_longname" : "sevenup-mmode-slot4",
							"parameter_modmin" : 0.0,
							"parameter_linknames" : 1,
							"parameter_modmode" : 0,
							"parameter_info" : ""
						}

					}

				}

			}
, 			{
				"box" : 				{
					"maxclass" : "live.menu",
					"varname" : "sevenup-mmode-slot3",
					"numoutlets" : 3,
					"outlettype" : [ "", "", "float" ],
					"presentation_rect" : [ 130.0, 80.0, 62.0, 15.0 ],
					"pictures" : [  ],
					"patching_rect" : [ 434.0, 559.0, 34.0, 15.0 ],
					"presentation" : 1,
					"id" : "obj-13",
					"parameter_enable" : 1,
					"numinlets" : 1,
					"saved_attribute_attributes" : 					{
						"valueof" : 						{
							"parameter_order" : 0,
							"parameter_units" : "",
							"parameter_speedlim" : 0,
							"parameter_steps" : 0,
							"parameter_enum" : [ "GATE", "SUSTAIN" ],
							"parameter_exponent" : 1.0,
							"parameter_unitstyle" : 10,
							"parameter_mmax" : 127.0,
							"parameter_mmin" : 0.0,
							"parameter_initial" : [ 0.0 ],
							"parameter_type" : 2,
							"parameter_initial_enable" : 1,
							"parameter_shortname" : "live.menu",
							"parameter_invisible" : 1,
							"parameter_modmax" : 127.0,
							"parameter_annotation_name" : "",
							"parameter_longname" : "sevenup-mmode-slot3",
							"parameter_modmin" : 0.0,
							"parameter_linknames" : 1,
							"parameter_modmode" : 0,
							"parameter_info" : ""
						}

					}

				}

			}
, 			{
				"box" : 				{
					"maxclass" : "live.menu",
					"varname" : "sevenup-mmode-slot2",
					"numoutlets" : 3,
					"outlettype" : [ "", "", "float" ],
					"presentation_rect" : [ 130.0, 60.0, 62.0, 15.0 ],
					"pictures" : [  ],
					"patching_rect" : [ 433.0, 539.0, 34.0, 15.0 ],
					"presentation" : 1,
					"id" : "obj-18",
					"parameter_enable" : 1,
					"numinlets" : 1,
					"saved_attribute_attributes" : 					{
						"valueof" : 						{
							"parameter_order" : 0,
							"parameter_units" : "",
							"parameter_speedlim" : 0,
							"parameter_steps" : 0,
							"parameter_enum" : [ "GATE", "SUSTAIN" ],
							"parameter_exponent" : 1.0,
							"parameter_unitstyle" : 10,
							"parameter_mmax" : 127.0,
							"parameter_mmin" : 0.0,
							"parameter_initial" : [ 0.0 ],
							"parameter_type" : 2,
							"parameter_initial_enable" : 1,
							"parameter_shortname" : "live.menu",
							"parameter_invisible" : 1,
							"parameter_modmax" : 127.0,
							"parameter_annotation_name" : "",
							"parameter_longname" : "sevenup-mmode-slot2",
							"parameter_modmin" : 0.0,
							"parameter_linknames" : 1,
							"parameter_modmode" : 0,
							"parameter_info" : ""
						}

					}

				}

			}
, 			{
				"box" : 				{
					"maxclass" : "live.menu",
					"varname" : "sevenup-mmode-slot1",
					"numoutlets" : 3,
					"outlettype" : [ "", "", "float" ],
					"presentation_rect" : [ 130.0, 41.0, 62.0, 15.0 ],
					"pictures" : [  ],
					"patching_rect" : [ 434.0, 519.0, 34.0, 15.0 ],
					"presentation" : 1,
					"id" : "obj-19",
					"parameter_enable" : 1,
					"numinlets" : 1,
					"saved_attribute_attributes" : 					{
						"valueof" : 						{
							"parameter_order" : 0,
							"parameter_units" : "",
							"parameter_speedlim" : 0,
							"parameter_steps" : 0,
							"parameter_enum" : [ "GATE", "SUSTAIN" ],
							"parameter_exponent" : 1.0,
							"parameter_unitstyle" : 10,
							"parameter_mmax" : 127.0,
							"parameter_mmin" : 0.0,
							"parameter_initial" : [ 0.0 ],
							"parameter_type" : 2,
							"parameter_initial_enable" : 1,
							"parameter_shortname" : "live.menu",
							"parameter_invisible" : 1,
							"parameter_modmax" : 127.0,
							"parameter_annotation_name" : "",
							"parameter_longname" : "sevenup-mmode-slot1",
							"parameter_modmin" : 0.0,
							"parameter_linknames" : 1,
							"parameter_modmode" : 0,
							"parameter_info" : ""
						}

					}

				}

			}
, 			{
				"box" : 				{
					"maxclass" : "newobj",
					"text" : "prepend transposegroup",
					"numoutlets" : 1,
					"fontsize" : 12.0,
					"outlettype" : [ "" ],
					"patching_rect" : [ 440.0, 768.0, 141.0, 20.0 ],
					"id" : "obj-46",
					"fontname" : "Arial",
					"numinlets" : 1
				}

			}
, 			{
				"box" : 				{
					"maxclass" : "newobj",
					"text" : "prepend 6",
					"numoutlets" : 1,
					"fontsize" : 12.0,
					"outlettype" : [ "" ],
					"patching_rect" : [ 552.0, 707.0, 65.0, 20.0 ],
					"id" : "obj-29",
					"fontname" : "Arial",
					"numinlets" : 1
				}

			}
, 			{
				"box" : 				{
					"maxclass" : "newobj",
					"text" : "prepend 5",
					"numoutlets" : 1,
					"fontsize" : 12.0,
					"outlettype" : [ "" ],
					"patching_rect" : [ 537.0, 692.0, 65.0, 20.0 ],
					"id" : "obj-28",
					"fontname" : "Arial",
					"numinlets" : 1
				}

			}
, 			{
				"box" : 				{
					"maxclass" : "newobj",
					"text" : "prepend 4",
					"numoutlets" : 1,
					"fontsize" : 12.0,
					"outlettype" : [ "" ],
					"patching_rect" : [ 522.0, 677.0, 65.0, 20.0 ],
					"id" : "obj-27",
					"fontname" : "Arial",
					"numinlets" : 1
				}

			}
, 			{
				"box" : 				{
					"maxclass" : "newobj",
					"text" : "prepend 3",
					"numoutlets" : 1,
					"fontsize" : 12.0,
					"outlettype" : [ "" ],
					"patching_rect" : [ 507.0, 662.0, 65.0, 20.0 ],
					"id" : "obj-26",
					"fontname" : "Arial",
					"numinlets" : 1
				}

			}
, 			{
				"box" : 				{
					"maxclass" : "newobj",
					"text" : "prepend 2",
					"numoutlets" : 1,
					"fontsize" : 12.0,
					"outlettype" : [ "" ],
					"patching_rect" : [ 492.0, 647.0, 65.0, 20.0 ],
					"id" : "obj-25",
					"fontname" : "Arial",
					"numinlets" : 1
				}

			}
, 			{
				"box" : 				{
					"maxclass" : "newobj",
					"text" : "prepend 1",
					"numoutlets" : 1,
					"fontsize" : 12.0,
					"outlettype" : [ "" ],
					"patching_rect" : [ 477.0, 631.0, 65.0, 20.0 ],
					"id" : "obj-24",
					"fontname" : "Arial",
					"numinlets" : 1
				}

			}
, 			{
				"box" : 				{
					"maxclass" : "newobj",
					"text" : "prepend 0",
					"numoutlets" : 1,
					"fontsize" : 12.0,
					"outlettype" : [ "" ],
					"patching_rect" : [ 462.0, 617.0, 65.0, 20.0 ],
					"id" : "obj-23",
					"fontname" : "Arial",
					"numinlets" : 1
				}

			}
, 			{
				"box" : 				{
					"maxclass" : "newobj",
					"text" : "prepend toolmode",
					"numoutlets" : 1,
					"fontsize" : 12.0,
					"outlettype" : [ "" ],
					"patching_rect" : [ 273.0, 691.0, 107.0, 20.0 ],
					"id" : "obj-14",
					"fontname" : "Arial",
					"numinlets" : 1
				}

			}
, 			{
				"box" : 				{
					"maxclass" : "newobj",
					"text" : "prepend transpose",
					"numoutlets" : 1,
					"fontsize" : 12.0,
					"outlettype" : [ "" ],
					"patching_rect" : [ 290.0, 721.0, 111.0, 20.0 ],
					"id" : "obj-15",
					"fontname" : "Arial",
					"numinlets" : 1
				}

			}
, 			{
				"box" : 				{
					"maxclass" : "newobj",
					"text" : "prepend recmode",
					"numoutlets" : 1,
					"fontsize" : 12.0,
					"outlettype" : [ "" ],
					"patching_rect" : [ 254.0, 666.0, 105.0, 20.0 ],
					"id" : "obj-16",
					"fontname" : "Arial",
					"numinlets" : 1
				}

			}
, 			{
				"box" : 				{
					"maxclass" : "newobj",
					"text" : "prepend scalename",
					"numoutlets" : 1,
					"fontsize" : 12.0,
					"outlettype" : [ "" ],
					"patching_rect" : [ 236.0, 641.0, 116.0, 20.0 ],
					"id" : "obj-17",
					"fontname" : "Arial",
					"numinlets" : 1
				}

			}
, 			{
				"box" : 				{
					"maxclass" : "outlet",
					"numoutlets" : 0,
					"patching_rect" : [ 156.0, 906.0, 25.0, 25.0 ],
					"id" : "obj-12",
					"numinlets" : 1,
					"comment" : ""
				}

			}
, 			{
				"box" : 				{
					"maxclass" : "live.menu",
					"varname" : "sevenup-scale-name",
					"numoutlets" : 3,
					"outlettype" : [ "", "", "float" ],
					"presentation_rect" : [ 82.0, 4.0, 110.0, 15.0 ],
					"pictures" : [  ],
					"patching_rect" : [ 367.0, 481.0, 100.0, 15.0 ],
					"presentation" : 1,
					"id" : "obj-9",
					"parameter_enable" : 1,
					"numinlets" : 1,
					"saved_attribute_attributes" : 					{
						"valueof" : 						{
							"parameter_order" : 0,
							"parameter_units" : "",
							"parameter_speedlim" : 0,
							"parameter_steps" : 0,
							"parameter_enum" : [ "Billian", "Blues", "Chinese", "Chromatic", "ChromaticHypolydian", "Dorian", "DoubleHarmonic", "Egyptian", "Hindu", "Hirajoshi", "Hungarian", "HungarianGypsy", "HungarianMajor", "InSen", "InstantJazz", "Ionian5", "IWato", "Japanese", "JazzMinorInverse", "JethsMode", "JewishSpanish", "LeadingWholeTone", "Locrian", "LocrianMajor", "LocrianSharp2", "Lydian", "LydianAugmented", "LydianDiminished", "LydianFlat7", "LydianMinor", "LydianSharp2", "Major", "Miles", "Minor", "MinorBlues", "MinorPentatonic", "MinorSeven", "Mullnixian", "Pentatonic", "Philgarian", "PhrygianFlat4", "Romanian", "Sambah", "SuperLocrian", "Telerium", "UltraLocrian", "Yorkian" ],
							"parameter_exponent" : 1.0,
							"parameter_unitstyle" : 10,
							"parameter_mmax" : 127.0,
							"parameter_mmin" : 0.0,
							"parameter_initial" : [ 0.0 ],
							"parameter_type" : 2,
							"parameter_initial_enable" : 1,
							"parameter_shortname" : "live.menu",
							"parameter_invisible" : 1,
							"parameter_modmax" : 127.0,
							"parameter_annotation_name" : "",
							"parameter_longname" : "sevenup-scale-name",
							"parameter_modmin" : 0.0,
							"parameter_linknames" : 1,
							"parameter_modmode" : 0,
							"parameter_info" : ""
						}

					}

				}

			}
, 			{
				"box" : 				{
					"maxclass" : "comment",
					"text" : "Slot 4",
					"numoutlets" : 0,
					"fontface" : 1,
					"fontsize" : 10.0,
					"presentation_rect" : [ 2.0, 99.0, 37.0, 18.0 ],
					"patching_rect" : [ 287.0, 581.0, 75.0, 18.0 ],
					"presentation" : 1,
					"id" : "obj-1",
					"fontname" : "Arial",
					"numinlets" : 1
				}

			}
, 			{
				"box" : 				{
					"maxclass" : "live.menu",
					"varname" : "sevenup-mgroup-slot4",
					"numoutlets" : 3,
					"outlettype" : [ "", "", "float" ],
					"presentation_rect" : [ 82.0, 99.0, 43.0, 15.0 ],
					"pictures" : [  ],
					"patching_rect" : [ 367.0, 581.0, 34.0, 15.0 ],
					"presentation" : 1,
					"id" : "obj-2",
					"parameter_enable" : 1,
					"numinlets" : 1,
					"saved_attribute_attributes" : 					{
						"valueof" : 						{
							"parameter_order" : 0,
							"parameter_units" : "",
							"parameter_speedlim" : 0,
							"parameter_steps" : 0,
							"parameter_enum" : [ "Nope", "1", "2", "3", "4", "5", "6", "7" ],
							"parameter_exponent" : 1.0,
							"parameter_unitstyle" : 10,
							"parameter_mmax" : 127.0,
							"parameter_mmin" : 0.0,
							"parameter_initial" : [ 0.0 ],
							"parameter_type" : 2,
							"parameter_initial_enable" : 1,
							"parameter_shortname" : "live.menu",
							"parameter_invisible" : 1,
							"parameter_modmax" : 127.0,
							"parameter_annotation_name" : "",
							"parameter_longname" : "sevenup-mgroup-slot4",
							"parameter_modmin" : 0.0,
							"parameter_linknames" : 1,
							"parameter_modmode" : 0,
							"parameter_info" : ""
						}

					}

				}

			}
, 			{
				"box" : 				{
					"maxclass" : "live.text",
					"varname" : "sevenup-transpose-ctrl",
					"numoutlets" : 2,
					"text" : "TRANSPOSE OFF",
					"fontsize" : 9.0,
					"outlettype" : [ "", "" ],
					"presentation_rect" : [ 253.0, 23.0, 124.0, 14.0 ],
					"texton" : "TRANSPOSE ON",
					"patching_rect" : [ 629.0, 500.0, 100.0, 15.0 ],
					"presentation" : 1,
					"id" : "obj-6",
					"parameter_enable" : 1,
					"numinlets" : 1,
					"saved_attribute_attributes" : 					{
						"valueof" : 						{
							"parameter_order" : 0,
							"parameter_units" : "",
							"parameter_speedlim" : 0,
							"parameter_steps" : 0,
							"parameter_enum" : [ "val1", "val2" ],
							"parameter_exponent" : 1.0,
							"parameter_unitstyle" : 10,
							"parameter_mmax" : 1.0,
							"parameter_mmin" : 0.0,
							"parameter_initial" : [ 0.0 ],
							"parameter_type" : 2,
							"parameter_initial_enable" : 1,
							"parameter_shortname" : "live.menu",
							"parameter_invisible" : 1,
							"parameter_modmax" : 127.0,
							"parameter_annotation_name" : "",
							"parameter_longname" : "sevenup-transpose-ctrl",
							"parameter_modmin" : 0.0,
							"parameter_linknames" : 1,
							"parameter_modmode" : 0,
							"parameter_info" : ""
						}

					}

				}

			}
, 			{
				"box" : 				{
					"maxclass" : "live.menu",
					"varname" : "sevenup-mgroup-slot7",
					"numoutlets" : 3,
					"outlettype" : [ "", "", "float" ],
					"presentation_rect" : [ 268.0, 82.0, 43.0, 15.0 ],
					"pictures" : [  ],
					"patching_rect" : [ 629.0, 560.0, 34.0, 15.0 ],
					"presentation" : 1,
					"id" : "obj-37",
					"parameter_enable" : 1,
					"numinlets" : 1,
					"saved_attribute_attributes" : 					{
						"valueof" : 						{
							"parameter_order" : 0,
							"parameter_units" : "",
							"parameter_speedlim" : 0,
							"parameter_steps" : 0,
							"parameter_enum" : [ "Nope", "1", "2", "3", "4", "5", "6", "7" ],
							"parameter_exponent" : 1.0,
							"parameter_unitstyle" : 10,
							"parameter_mmax" : 127.0,
							"parameter_mmin" : 0.0,
							"parameter_initial" : [ 0.0 ],
							"parameter_type" : 2,
							"parameter_initial_enable" : 1,
							"parameter_shortname" : "live.menu",
							"parameter_invisible" : 1,
							"parameter_modmax" : 127.0,
							"parameter_annotation_name" : "",
							"parameter_longname" : "sevenup-mgroup-slot7",
							"parameter_modmin" : 0.0,
							"parameter_linknames" : 1,
							"parameter_modmode" : 0,
							"parameter_info" : ""
						}

					}

				}

			}
, 			{
				"box" : 				{
					"maxclass" : "comment",
					"text" : "Slot 7",
					"numoutlets" : 0,
					"fontface" : 1,
					"fontsize" : 10.0,
					"presentation_rect" : [ 195.0, 82.0, 36.0, 18.0 ],
					"patching_rect" : [ 565.0, 559.0, 58.0, 18.0 ],
					"presentation" : 1,
					"id" : "obj-38",
					"fontname" : "Arial",
					"numinlets" : 1
				}

			}
, 			{
				"box" : 				{
					"maxclass" : "comment",
					"text" : "Slot 3",
					"numoutlets" : 0,
					"fontface" : 1,
					"fontsize" : 10.0,
					"presentation_rect" : [ 2.0, 80.0, 37.0, 18.0 ],
					"patching_rect" : [ 287.0, 559.0, 75.0, 18.0 ],
					"presentation" : 1,
					"id" : "obj-39",
					"fontname" : "Arial",
					"numinlets" : 1
				}

			}
, 			{
				"box" : 				{
					"maxclass" : "live.menu",
					"varname" : "sevenup-mgroup-slot3",
					"numoutlets" : 3,
					"outlettype" : [ "", "", "float" ],
					"presentation_rect" : [ 82.0, 80.0, 43.0, 15.0 ],
					"pictures" : [  ],
					"patching_rect" : [ 367.0, 559.0, 34.0, 15.0 ],
					"presentation" : 1,
					"id" : "obj-40",
					"parameter_enable" : 1,
					"numinlets" : 1,
					"saved_attribute_attributes" : 					{
						"valueof" : 						{
							"parameter_order" : 0,
							"parameter_units" : "",
							"parameter_speedlim" : 0,
							"parameter_steps" : 0,
							"parameter_enum" : [ "Nope", "1", "2", "3", "4", "5", "6", "7" ],
							"parameter_exponent" : 1.0,
							"parameter_unitstyle" : 10,
							"parameter_mmax" : 127.0,
							"parameter_mmin" : 0.0,
							"parameter_initial" : [ 0.0 ],
							"parameter_type" : 2,
							"parameter_initial_enable" : 1,
							"parameter_shortname" : "live.menu",
							"parameter_invisible" : 1,
							"parameter_modmax" : 127.0,
							"parameter_annotation_name" : "",
							"parameter_longname" : "sevenup-mgroup-slot3",
							"parameter_modmin" : 0.0,
							"parameter_linknames" : 1,
							"parameter_modmode" : 0,
							"parameter_info" : ""
						}

					}

				}

			}
, 			{
				"box" : 				{
					"maxclass" : "live.menu",
					"varname" : "sevenup-mgroup-slot6",
					"numoutlets" : 3,
					"outlettype" : [ "", "", "float" ],
					"presentation_rect" : [ 268.0, 62.0, 43.0, 15.0 ],
					"pictures" : [  ],
					"patching_rect" : [ 629.0, 540.0, 34.0, 15.0 ],
					"presentation" : 1,
					"id" : "obj-33",
					"parameter_enable" : 1,
					"numinlets" : 1,
					"saved_attribute_attributes" : 					{
						"valueof" : 						{
							"parameter_order" : 0,
							"parameter_units" : "",
							"parameter_speedlim" : 0,
							"parameter_steps" : 0,
							"parameter_enum" : [ "Nope", "1", "2", "3", "4", "5", "6", "7" ],
							"parameter_exponent" : 1.0,
							"parameter_unitstyle" : 10,
							"parameter_mmax" : 127.0,
							"parameter_mmin" : 0.0,
							"parameter_initial" : [ 0.0 ],
							"parameter_type" : 2,
							"parameter_initial_enable" : 1,
							"parameter_shortname" : "live.menu",
							"parameter_invisible" : 1,
							"parameter_modmax" : 127.0,
							"parameter_annotation_name" : "",
							"parameter_longname" : "sevenup-mgroup-slot6",
							"parameter_modmin" : 0.0,
							"parameter_linknames" : 1,
							"parameter_modmode" : 0,
							"parameter_info" : ""
						}

					}

				}

			}
, 			{
				"box" : 				{
					"maxclass" : "comment",
					"text" : "Slot 6",
					"numoutlets" : 0,
					"fontface" : 1,
					"fontsize" : 10.0,
					"presentation_rect" : [ 195.0, 62.0, 37.0, 18.0 ],
					"patching_rect" : [ 565.0, 539.0, 58.0, 18.0 ],
					"presentation" : 1,
					"id" : "obj-34",
					"fontname" : "Arial",
					"numinlets" : 1
				}

			}
, 			{
				"box" : 				{
					"maxclass" : "comment",
					"text" : "Slot 2",
					"numoutlets" : 0,
					"fontface" : 1,
					"fontsize" : 10.0,
					"presentation_rect" : [ 2.0, 60.0, 39.0, 18.0 ],
					"patching_rect" : [ 287.0, 539.0, 75.0, 18.0 ],
					"presentation" : 1,
					"id" : "obj-35",
					"fontname" : "Arial",
					"numinlets" : 1
				}

			}
, 			{
				"box" : 				{
					"maxclass" : "live.menu",
					"varname" : "sevenup-mgroup-slot2",
					"numoutlets" : 3,
					"outlettype" : [ "", "", "float" ],
					"presentation_rect" : [ 82.0, 60.0, 43.0, 15.0 ],
					"pictures" : [  ],
					"patching_rect" : [ 367.0, 539.0, 34.0, 15.0 ],
					"presentation" : 1,
					"id" : "obj-36",
					"parameter_enable" : 1,
					"numinlets" : 1,
					"saved_attribute_attributes" : 					{
						"valueof" : 						{
							"parameter_order" : 0,
							"parameter_units" : "",
							"parameter_speedlim" : 0,
							"parameter_steps" : 0,
							"parameter_enum" : [ "Nope", "1", "2", "3", "4", "5", "6", "7" ],
							"parameter_exponent" : 1.0,
							"parameter_unitstyle" : 10,
							"parameter_mmax" : 127.0,
							"parameter_mmin" : 0.0,
							"parameter_initial" : [ 0.0 ],
							"parameter_type" : 2,
							"parameter_initial_enable" : 1,
							"parameter_shortname" : "live.menu",
							"parameter_invisible" : 1,
							"parameter_modmax" : 127.0,
							"parameter_annotation_name" : "",
							"parameter_longname" : "sevenup-mgroup-slot2",
							"parameter_modmin" : 0.0,
							"parameter_linknames" : 1,
							"parameter_modmode" : 0,
							"parameter_info" : ""
						}

					}

				}

			}
, 			{
				"box" : 				{
					"maxclass" : "live.menu",
					"varname" : "sevenup-mgroup-slot5",
					"numoutlets" : 3,
					"outlettype" : [ "", "", "float" ],
					"presentation_rect" : [ 268.0, 42.0, 43.0, 15.0 ],
					"pictures" : [  ],
					"patching_rect" : [ 629.0, 520.0, 34.0, 15.0 ],
					"presentation" : 1,
					"id" : "obj-32",
					"parameter_enable" : 1,
					"numinlets" : 1,
					"saved_attribute_attributes" : 					{
						"valueof" : 						{
							"parameter_order" : 0,
							"parameter_units" : "",
							"parameter_speedlim" : 0,
							"parameter_steps" : 0,
							"parameter_enum" : [ "Nope", "1", "2", "3", "4", "5", "6", "7" ],
							"parameter_exponent" : 1.0,
							"parameter_unitstyle" : 10,
							"parameter_mmax" : 127.0,
							"parameter_mmin" : 0.0,
							"parameter_initial" : [ 0.0 ],
							"parameter_type" : 2,
							"parameter_initial_enable" : 1,
							"parameter_shortname" : "live.menu",
							"parameter_invisible" : 1,
							"parameter_modmax" : 127.0,
							"parameter_annotation_name" : "",
							"parameter_longname" : "sevenup-mgroup-slot5",
							"parameter_modmin" : 0.0,
							"parameter_linknames" : 1,
							"parameter_modmode" : 0,
							"parameter_info" : ""
						}

					}

				}

			}
, 			{
				"box" : 				{
					"maxclass" : "comment",
					"text" : "Slot 5",
					"numoutlets" : 0,
					"fontface" : 1,
					"fontsize" : 10.0,
					"presentation_rect" : [ 195.0, 42.0, 36.0, 18.0 ],
					"patching_rect" : [ 565.0, 519.0, 58.0, 18.0 ],
					"presentation" : 1,
					"id" : "obj-31",
					"fontname" : "Arial",
					"numinlets" : 1
				}

			}
, 			{
				"box" : 				{
					"maxclass" : "comment",
					"text" : "Slot 1",
					"numoutlets" : 0,
					"fontface" : 1,
					"fontsize" : 10.0,
					"presentation_rect" : [ 2.0, 40.0, 39.0, 18.0 ],
					"patching_rect" : [ 287.0, 519.0, 75.0, 18.0 ],
					"presentation" : 1,
					"id" : "obj-10",
					"fontname" : "Arial",
					"numinlets" : 1
				}

			}
, 			{
				"box" : 				{
					"maxclass" : "live.menu",
					"varname" : "sevenup-mgroup-slot1",
					"numoutlets" : 3,
					"outlettype" : [ "", "", "float" ],
					"presentation_rect" : [ 82.0, 41.0, 43.0, 15.0 ],
					"pictures" : [  ],
					"patching_rect" : [ 367.0, 519.0, 34.0, 15.0 ],
					"presentation" : 1,
					"id" : "obj-11",
					"parameter_enable" : 1,
					"numinlets" : 1,
					"saved_attribute_attributes" : 					{
						"valueof" : 						{
							"parameter_order" : 0,
							"parameter_units" : "",
							"parameter_speedlim" : 0,
							"parameter_steps" : 0,
							"parameter_enum" : [ "Nope", "1", "2", "3", "4", "5", "6", "7" ],
							"parameter_exponent" : 1.0,
							"parameter_unitstyle" : 10,
							"parameter_mmax" : 127.0,
							"parameter_mmin" : 0.0,
							"parameter_initial" : [ 0.0 ],
							"parameter_type" : 2,
							"parameter_initial_enable" : 1,
							"parameter_shortname" : "live.menu",
							"parameter_invisible" : 1,
							"parameter_modmax" : 127.0,
							"parameter_annotation_name" : "",
							"parameter_longname" : "sevenup-mgroup-slot1",
							"parameter_modmin" : 0.0,
							"parameter_linknames" : 1,
							"parameter_modmode" : 0,
							"parameter_info" : ""
						}

					}

				}

			}
, 			{
				"box" : 				{
					"maxclass" : "comment",
					"text" : "Record Mode",
					"numoutlets" : 0,
					"fontface" : 1,
					"fontsize" : 10.0,
					"presentation_rect" : [ 2.0, 22.0, 75.0, 18.0 ],
					"patching_rect" : [ 287.0, 499.0, 75.0, 18.0 ],
					"presentation" : 1,
					"id" : "obj-7",
					"fontname" : "Arial",
					"numinlets" : 1
				}

			}
, 			{
				"box" : 				{
					"maxclass" : "live.menu",
					"varname" : "sevenup-record-mode",
					"numoutlets" : 3,
					"outlettype" : [ "", "", "float" ],
					"presentation_rect" : [ 82.0, 22.0, 110.0, 15.0 ],
					"pictures" : [  ],
					"patching_rect" : [ 367.0, 499.0, 100.0, 15.0 ],
					"presentation" : 1,
					"id" : "obj-8",
					"parameter_enable" : 1,
					"numinlets" : 1,
					"saved_attribute_attributes" : 					{
						"valueof" : 						{
							"parameter_order" : 0,
							"parameter_units" : "",
							"parameter_speedlim" : 0,
							"parameter_steps" : 0,
							"parameter_enum" : [ "On Button Press", "Quantized" ],
							"parameter_exponent" : 1.0,
							"parameter_unitstyle" : 10,
							"parameter_mmax" : 127.0,
							"parameter_mmin" : 0.0,
							"parameter_initial" : [ 0.0 ],
							"parameter_type" : 2,
							"parameter_initial_enable" : 1,
							"parameter_shortname" : "live.menu",
							"parameter_invisible" : 1,
							"parameter_modmax" : 127.0,
							"parameter_annotation_name" : "",
							"parameter_longname" : "sevenup-record-mode",
							"parameter_modmin" : 0.0,
							"parameter_linknames" : 1,
							"parameter_modmode" : 0,
							"parameter_info" : ""
						}

					}

				}

			}
, 			{
				"box" : 				{
					"maxclass" : "live.menu",
					"varname" : "sevenup-melodizer-tool-mode",
					"numoutlets" : 3,
					"outlettype" : [ "", "", "float" ],
					"presentation_rect" : [ 253.0, 4.0, 124.0, 15.0 ],
					"pictures" : [  ],
					"patching_rect" : [ 629.0, 482.0, 100.0, 15.0 ],
					"presentation" : 1,
					"id" : "obj-5",
					"parameter_enable" : 1,
					"numinlets" : 1,
					"saved_attribute_attributes" : 					{
						"valueof" : 						{
							"parameter_order" : 0,
							"parameter_units" : "",
							"parameter_speedlim" : 0,
							"parameter_steps" : 0,
							"parameter_enum" : [ "KEYBOARD", "POSITION", "NONE", "KEYBOARD/POSITION", "KEYBOARD/NONE", "POSITION/NONE" ],
							"parameter_exponent" : 1.0,
							"parameter_unitstyle" : 10,
							"parameter_mmax" : 127.0,
							"parameter_mmin" : 0.0,
							"parameter_initial" : [ 0.0 ],
							"parameter_type" : 2,
							"parameter_initial_enable" : 1,
							"parameter_shortname" : "live.menu",
							"parameter_invisible" : 1,
							"parameter_modmax" : 127.0,
							"parameter_annotation_name" : "",
							"parameter_longname" : "sevenup-melodizer-tool-mode",
							"parameter_modmin" : 0.0,
							"parameter_linknames" : 1,
							"parameter_modmode" : 0,
							"parameter_info" : ""
						}

					}

				}

			}
, 			{
				"box" : 				{
					"maxclass" : "comment",
					"text" : "Scale",
					"numoutlets" : 0,
					"fontface" : 1,
					"fontsize" : 10.0,
					"presentation_rect" : [ 2.0, 2.0, 75.0, 18.0 ],
					"patching_rect" : [ 287.0, 479.0, 75.0, 18.0 ],
					"presentation" : 1,
					"id" : "obj-4",
					"fontname" : "Arial",
					"numinlets" : 1
				}

			}
 ],
		"lines" : [ 			{
				"patchline" : 				{
					"source" : [ "obj-69", 0 ],
					"destination" : [ "obj-97", 0 ],
					"hidden" : 0,
					"midpoints" : [  ]
				}

			}
, 			{
				"patchline" : 				{
					"source" : [ "obj-70", 0 ],
					"destination" : [ "obj-96", 0 ],
					"hidden" : 0,
					"midpoints" : [  ]
				}

			}
, 			{
				"patchline" : 				{
					"source" : [ "obj-71", 0 ],
					"destination" : [ "obj-95", 0 ],
					"hidden" : 0,
					"midpoints" : [  ]
				}

			}
, 			{
				"patchline" : 				{
					"source" : [ "obj-72", 0 ],
					"destination" : [ "obj-94", 0 ],
					"hidden" : 0,
					"midpoints" : [  ]
				}

			}
, 			{
				"patchline" : 				{
					"source" : [ "obj-73", 0 ],
					"destination" : [ "obj-93", 0 ],
					"hidden" : 0,
					"midpoints" : [  ]
				}

			}
, 			{
				"patchline" : 				{
					"source" : [ "obj-74", 0 ],
					"destination" : [ "obj-92", 0 ],
					"hidden" : 0,
					"midpoints" : [  ]
				}

			}
, 			{
				"patchline" : 				{
					"source" : [ "obj-75", 0 ],
					"destination" : [ "obj-91", 0 ],
					"hidden" : 0,
					"midpoints" : [  ]
				}

			}
, 			{
				"patchline" : 				{
					"source" : [ "obj-68", 0 ],
					"destination" : [ "obj-90", 0 ],
					"hidden" : 0,
					"midpoints" : [  ]
				}

			}
, 			{
				"patchline" : 				{
					"source" : [ "obj-67", 0 ],
					"destination" : [ "obj-89", 0 ],
					"hidden" : 0,
					"midpoints" : [  ]
				}

			}
, 			{
				"patchline" : 				{
					"source" : [ "obj-66", 0 ],
					"destination" : [ "obj-88", 0 ],
					"hidden" : 0,
					"midpoints" : [  ]
				}

			}
, 			{
				"patchline" : 				{
					"source" : [ "obj-65", 0 ],
					"destination" : [ "obj-87", 0 ],
					"hidden" : 0,
					"midpoints" : [  ]
				}

			}
, 			{
				"patchline" : 				{
					"source" : [ "obj-64", 0 ],
					"destination" : [ "obj-86", 0 ],
					"hidden" : 0,
					"midpoints" : [  ]
				}

			}
, 			{
				"patchline" : 				{
					"source" : [ "obj-63", 0 ],
					"destination" : [ "obj-85", 0 ],
					"hidden" : 0,
					"midpoints" : [  ]
				}

			}
, 			{
				"patchline" : 				{
					"source" : [ "obj-62", 0 ],
					"destination" : [ "obj-84", 0 ],
					"hidden" : 0,
					"midpoints" : [  ]
				}

			}
, 			{
				"patchline" : 				{
					"source" : [ "obj-60", 0 ],
					"destination" : [ "obj-83", 0 ],
					"hidden" : 0,
					"midpoints" : [  ]
				}

			}
, 			{
				"patchline" : 				{
					"source" : [ "obj-59", 0 ],
					"destination" : [ "obj-82", 0 ],
					"hidden" : 0,
					"midpoints" : [  ]
				}

			}
, 			{
				"patchline" : 				{
					"source" : [ "obj-56", 0 ],
					"destination" : [ "obj-81", 0 ],
					"hidden" : 0,
					"midpoints" : [  ]
				}

			}
, 			{
				"patchline" : 				{
					"source" : [ "obj-58", 0 ],
					"destination" : [ "obj-79", 0 ],
					"hidden" : 0,
					"midpoints" : [  ]
				}

			}
, 			{
				"patchline" : 				{
					"source" : [ "obj-55", 0 ],
					"destination" : [ "obj-78", 0 ],
					"hidden" : 0,
					"midpoints" : [  ]
				}

			}
, 			{
				"patchline" : 				{
					"source" : [ "obj-57", 0 ],
					"destination" : [ "obj-77", 0 ],
					"hidden" : 0,
					"midpoints" : [  ]
				}

			}
, 			{
				"patchline" : 				{
					"source" : [ "obj-20", 0 ],
					"destination" : [ "obj-41", 0 ],
					"hidden" : 0,
					"midpoints" : [  ]
				}

			}
, 			{
				"patchline" : 				{
					"source" : [ "obj-41", 0 ],
					"destination" : [ "obj-30", 0 ],
					"hidden" : 0,
					"midpoints" : [  ]
				}

			}
, 			{
				"patchline" : 				{
					"source" : [ "obj-21", 0 ],
					"destination" : [ "obj-42", 0 ],
					"hidden" : 0,
					"midpoints" : [  ]
				}

			}
, 			{
				"patchline" : 				{
					"source" : [ "obj-42", 0 ],
					"destination" : [ "obj-30", 0 ],
					"hidden" : 0,
					"midpoints" : [  ]
				}

			}
, 			{
				"patchline" : 				{
					"source" : [ "obj-22", 0 ],
					"destination" : [ "obj-43", 0 ],
					"hidden" : 0,
					"midpoints" : [  ]
				}

			}
, 			{
				"patchline" : 				{
					"source" : [ "obj-43", 0 ],
					"destination" : [ "obj-30", 0 ],
					"hidden" : 0,
					"midpoints" : [  ]
				}

			}
, 			{
				"patchline" : 				{
					"source" : [ "obj-3", 0 ],
					"destination" : [ "obj-44", 0 ],
					"hidden" : 0,
					"midpoints" : [  ]
				}

			}
, 			{
				"patchline" : 				{
					"source" : [ "obj-44", 0 ],
					"destination" : [ "obj-30", 0 ],
					"hidden" : 0,
					"midpoints" : [  ]
				}

			}
, 			{
				"patchline" : 				{
					"source" : [ "obj-13", 0 ],
					"destination" : [ "obj-45", 0 ],
					"hidden" : 0,
					"midpoints" : [  ]
				}

			}
, 			{
				"patchline" : 				{
					"source" : [ "obj-45", 0 ],
					"destination" : [ "obj-30", 0 ],
					"hidden" : 0,
					"midpoints" : [  ]
				}

			}
, 			{
				"patchline" : 				{
					"source" : [ "obj-18", 0 ],
					"destination" : [ "obj-47", 0 ],
					"hidden" : 0,
					"midpoints" : [  ]
				}

			}
, 			{
				"patchline" : 				{
					"source" : [ "obj-47", 0 ],
					"destination" : [ "obj-30", 0 ],
					"hidden" : 0,
					"midpoints" : [  ]
				}

			}
, 			{
				"patchline" : 				{
					"source" : [ "obj-19", 0 ],
					"destination" : [ "obj-48", 0 ],
					"hidden" : 0,
					"midpoints" : [  ]
				}

			}
, 			{
				"patchline" : 				{
					"source" : [ "obj-48", 0 ],
					"destination" : [ "obj-30", 0 ],
					"hidden" : 0,
					"midpoints" : [  ]
				}

			}
, 			{
				"patchline" : 				{
					"source" : [ "obj-37", 0 ],
					"destination" : [ "obj-29", 0 ],
					"hidden" : 0,
					"midpoints" : [  ]
				}

			}
, 			{
				"patchline" : 				{
					"source" : [ "obj-29", 0 ],
					"destination" : [ "obj-46", 0 ],
					"hidden" : 0,
					"midpoints" : [  ]
				}

			}
, 			{
				"patchline" : 				{
					"source" : [ "obj-33", 0 ],
					"destination" : [ "obj-28", 0 ],
					"hidden" : 0,
					"midpoints" : [  ]
				}

			}
, 			{
				"patchline" : 				{
					"source" : [ "obj-28", 0 ],
					"destination" : [ "obj-46", 0 ],
					"hidden" : 0,
					"midpoints" : [  ]
				}

			}
, 			{
				"patchline" : 				{
					"source" : [ "obj-32", 0 ],
					"destination" : [ "obj-27", 0 ],
					"hidden" : 0,
					"midpoints" : [  ]
				}

			}
, 			{
				"patchline" : 				{
					"source" : [ "obj-27", 0 ],
					"destination" : [ "obj-46", 0 ],
					"hidden" : 0,
					"midpoints" : [  ]
				}

			}
, 			{
				"patchline" : 				{
					"source" : [ "obj-2", 0 ],
					"destination" : [ "obj-26", 0 ],
					"hidden" : 0,
					"midpoints" : [  ]
				}

			}
, 			{
				"patchline" : 				{
					"source" : [ "obj-26", 0 ],
					"destination" : [ "obj-46", 0 ],
					"hidden" : 0,
					"midpoints" : [  ]
				}

			}
, 			{
				"patchline" : 				{
					"source" : [ "obj-40", 0 ],
					"destination" : [ "obj-25", 0 ],
					"hidden" : 0,
					"midpoints" : [  ]
				}

			}
, 			{
				"patchline" : 				{
					"source" : [ "obj-25", 0 ],
					"destination" : [ "obj-46", 0 ],
					"hidden" : 0,
					"midpoints" : [  ]
				}

			}
, 			{
				"patchline" : 				{
					"source" : [ "obj-36", 0 ],
					"destination" : [ "obj-24", 0 ],
					"hidden" : 0,
					"midpoints" : [  ]
				}

			}
, 			{
				"patchline" : 				{
					"source" : [ "obj-24", 0 ],
					"destination" : [ "obj-46", 0 ],
					"hidden" : 0,
					"midpoints" : [  ]
				}

			}
, 			{
				"patchline" : 				{
					"source" : [ "obj-11", 0 ],
					"destination" : [ "obj-23", 0 ],
					"hidden" : 0,
					"midpoints" : [  ]
				}

			}
, 			{
				"patchline" : 				{
					"source" : [ "obj-23", 0 ],
					"destination" : [ "obj-46", 0 ],
					"hidden" : 0,
					"midpoints" : [  ]
				}

			}
, 			{
				"patchline" : 				{
					"source" : [ "obj-49", 5 ],
					"destination" : [ "obj-76", 0 ],
					"hidden" : 0,
					"midpoints" : [  ]
				}

			}
, 			{
				"patchline" : 				{
					"source" : [ "obj-76", 0 ],
					"destination" : [ "obj-75", 0 ],
					"hidden" : 0,
					"midpoints" : [  ]
				}

			}
, 			{
				"patchline" : 				{
					"source" : [ "obj-76", 1 ],
					"destination" : [ "obj-74", 0 ],
					"hidden" : 0,
					"midpoints" : [  ]
				}

			}
, 			{
				"patchline" : 				{
					"source" : [ "obj-76", 2 ],
					"destination" : [ "obj-73", 0 ],
					"hidden" : 0,
					"midpoints" : [  ]
				}

			}
, 			{
				"patchline" : 				{
					"source" : [ "obj-76", 3 ],
					"destination" : [ "obj-72", 0 ],
					"hidden" : 0,
					"midpoints" : [  ]
				}

			}
, 			{
				"patchline" : 				{
					"source" : [ "obj-76", 4 ],
					"destination" : [ "obj-71", 0 ],
					"hidden" : 0,
					"midpoints" : [  ]
				}

			}
, 			{
				"patchline" : 				{
					"source" : [ "obj-76", 5 ],
					"destination" : [ "obj-70", 0 ],
					"hidden" : 0,
					"midpoints" : [  ]
				}

			}
, 			{
				"patchline" : 				{
					"source" : [ "obj-76", 6 ],
					"destination" : [ "obj-69", 0 ],
					"hidden" : 0,
					"midpoints" : [  ]
				}

			}
, 			{
				"patchline" : 				{
					"source" : [ "obj-61", 6 ],
					"destination" : [ "obj-68", 0 ],
					"hidden" : 0,
					"midpoints" : [  ]
				}

			}
, 			{
				"patchline" : 				{
					"source" : [ "obj-61", 5 ],
					"destination" : [ "obj-67", 0 ],
					"hidden" : 0,
					"midpoints" : [  ]
				}

			}
, 			{
				"patchline" : 				{
					"source" : [ "obj-61", 4 ],
					"destination" : [ "obj-66", 0 ],
					"hidden" : 0,
					"midpoints" : [  ]
				}

			}
, 			{
				"patchline" : 				{
					"source" : [ "obj-61", 3 ],
					"destination" : [ "obj-65", 0 ],
					"hidden" : 0,
					"midpoints" : [  ]
				}

			}
, 			{
				"patchline" : 				{
					"source" : [ "obj-61", 2 ],
					"destination" : [ "obj-64", 0 ],
					"hidden" : 0,
					"midpoints" : [  ]
				}

			}
, 			{
				"patchline" : 				{
					"source" : [ "obj-61", 1 ],
					"destination" : [ "obj-63", 0 ],
					"hidden" : 0,
					"midpoints" : [  ]
				}

			}
, 			{
				"patchline" : 				{
					"source" : [ "obj-61", 0 ],
					"destination" : [ "obj-62", 0 ],
					"hidden" : 0,
					"midpoints" : [  ]
				}

			}
, 			{
				"patchline" : 				{
					"source" : [ "obj-49", 4 ],
					"destination" : [ "obj-61", 0 ],
					"hidden" : 0,
					"midpoints" : [  ]
				}

			}
, 			{
				"patchline" : 				{
					"source" : [ "obj-49", 3 ],
					"destination" : [ "obj-60", 0 ],
					"hidden" : 0,
					"midpoints" : [  ]
				}

			}
, 			{
				"patchline" : 				{
					"source" : [ "obj-49", 2 ],
					"destination" : [ "obj-59", 0 ],
					"hidden" : 0,
					"midpoints" : [  ]
				}

			}
, 			{
				"patchline" : 				{
					"source" : [ "obj-49", 1 ],
					"destination" : [ "obj-58", 0 ],
					"hidden" : 0,
					"midpoints" : [  ]
				}

			}
, 			{
				"patchline" : 				{
					"source" : [ "obj-50", 1 ],
					"destination" : [ "obj-56", 0 ],
					"hidden" : 0,
					"midpoints" : [  ]
				}

			}
, 			{
				"patchline" : 				{
					"source" : [ "obj-30", 0 ],
					"destination" : [ "obj-12", 0 ],
					"hidden" : 0,
					"midpoints" : [  ]
				}

			}
, 			{
				"patchline" : 				{
					"source" : [ "obj-17", 0 ],
					"destination" : [ "obj-12", 0 ],
					"hidden" : 0,
					"midpoints" : [  ]
				}

			}
, 			{
				"patchline" : 				{
					"source" : [ "obj-8", 0 ],
					"destination" : [ "obj-16", 0 ],
					"hidden" : 0,
					"midpoints" : [  ]
				}

			}
, 			{
				"patchline" : 				{
					"source" : [ "obj-16", 0 ],
					"destination" : [ "obj-12", 0 ],
					"hidden" : 0,
					"midpoints" : [  ]
				}

			}
, 			{
				"patchline" : 				{
					"source" : [ "obj-14", 0 ],
					"destination" : [ "obj-12", 0 ],
					"hidden" : 0,
					"midpoints" : [  ]
				}

			}
, 			{
				"patchline" : 				{
					"source" : [ "obj-15", 0 ],
					"destination" : [ "obj-12", 0 ],
					"hidden" : 0,
					"midpoints" : [  ]
				}

			}
, 			{
				"patchline" : 				{
					"source" : [ "obj-46", 0 ],
					"destination" : [ "obj-12", 0 ],
					"hidden" : 0,
					"midpoints" : [  ]
				}

			}
, 			{
				"patchline" : 				{
					"source" : [ "obj-9", 1 ],
					"destination" : [ "obj-17", 0 ],
					"hidden" : 0,
					"midpoints" : [  ]
				}

			}
, 			{
				"patchline" : 				{
					"source" : [ "obj-5", 1 ],
					"destination" : [ "obj-14", 0 ],
					"hidden" : 0,
					"midpoints" : [  ]
				}

			}
, 			{
				"patchline" : 				{
					"source" : [ "obj-6", 0 ],
					"destination" : [ "obj-15", 0 ],
					"hidden" : 0,
					"midpoints" : [  ]
				}

			}
, 			{
				"patchline" : 				{
					"source" : [ "obj-52", 0 ],
					"destination" : [ "obj-50", 0 ],
					"hidden" : 0,
					"midpoints" : [  ]
				}

			}
, 			{
				"patchline" : 				{
					"source" : [ "obj-50", 0 ],
					"destination" : [ "obj-55", 0 ],
					"hidden" : 0,
					"midpoints" : [  ]
				}

			}
, 			{
				"patchline" : 				{
					"source" : [ "obj-51", 0 ],
					"destination" : [ "obj-49", 0 ],
					"hidden" : 0,
					"midpoints" : [  ]
				}

			}
, 			{
				"patchline" : 				{
					"source" : [ "obj-49", 0 ],
					"destination" : [ "obj-57", 0 ],
					"hidden" : 0,
					"midpoints" : [  ]
				}

			}
 ],
		"parameters" : 		{
			"obj-3" : [ "sevenup-mmode-slot4", "live.menu", 0 ],
			"obj-32" : [ "sevenup-mgroup-slot5", "live.menu", 0 ],
			"obj-19" : [ "sevenup-mmode-slot1", "live.menu", 0 ],
			"obj-36" : [ "sevenup-mgroup-slot2", "live.menu", 0 ],
			"obj-21" : [ "sevenup-mmode-slot6", "live.menu", 0 ],
			"obj-9" : [ "sevenup-scale-name", "live.menu", 0 ],
			"obj-37" : [ "sevenup-mgroup-slot7", "live.menu", 0 ],
			"obj-13" : [ "sevenup-mmode-slot3", "live.menu", 0 ],
			"obj-2" : [ "sevenup-mgroup-slot4", "live.menu", 0 ],
			"obj-8" : [ "sevenup-record-mode", "live.menu", 0 ],
			"obj-11" : [ "sevenup-mgroup-slot1", "live.menu", 0 ],
			"obj-5" : [ "sevenup-melodizer-tool-mode", "live.menu", 0 ],
			"obj-22" : [ "sevenup-mmode-slot5", "live.menu", 0 ],
			"obj-33" : [ "sevenup-mgroup-slot6", "live.menu", 0 ],
			"obj-18" : [ "sevenup-mmode-slot2", "live.menu", 0 ],
			"obj-40" : [ "sevenup-mgroup-slot3", "live.menu", 0 ],
			"obj-6" : [ "sevenup-transpose-ctrl", "live.menu", 0 ],
			"obj-20" : [ "sevenup-mmode-slot7", "live.menu", 0 ]
		}

	}

}
