{
	"patcher" : 	{
		"fileversion" : 1,
		"rect" : [ 1053.0, 44.0, 1198.0, 1209.0 ],
		"bglocked" : 0,
		"defrect" : [ 1053.0, 44.0, 1198.0, 1209.0 ],
		"openrect" : [ 0.0, 0.0, 0.0, 0.0 ],
		"openinpresentation" : 1,
		"default_fontsize" : 12.0,
		"default_fontface" : 0,
		"default_fontname" : "Arial",
		"gridonopen" : 0,
		"gridsize" : [ 4.0, 4.0 ],
		"gridsnaponopen" : 0,
		"toolbarvisible" : 1,
		"boxanimatetime" : 200,
		"imprint" : 0,
		"enablehscroll" : 1,
		"enablevscroll" : 1,
		"devicewidth" : 0.0,
		"boxes" : [ 			{
				"box" : 				{
					"maxclass" : "message",
					"text" : "bang",
					"fontsize" : 12.0,
					"numinlets" : 2,
					"patching_rect" : [ 800.0, 313.0, 37.0, 18.0 ],
					"numoutlets" : 1,
					"outlettype" : [ "" ],
					"id" : "obj-113",
					"fontname" : "Arial"
				}

			}
, 			{
				"box" : 				{
					"maxclass" : "newobj",
					"text" : "route started",
					"fontsize" : 12.0,
					"numinlets" : 1,
					"patching_rect" : [ 800.0, 290.0, 78.0, 20.0 ],
					"numoutlets" : 2,
					"outlettype" : [ "", "" ],
					"id" : "obj-114",
					"fontname" : "Arial"
				}

			}
, 			{
				"box" : 				{
					"maxclass" : "newobj",
					"text" : "receive SEVENUP_LIFECYCLE",
					"fontsize" : 12.0,
					"numinlets" : 0,
					"patching_rect" : [ 799.0, 267.0, 182.0, 20.0 ],
					"numoutlets" : 1,
					"outlettype" : [ "" ],
					"id" : "obj-115",
					"fontname" : "Arial"
				}

			}
, 			{
				"box" : 				{
					"maxclass" : "message",
					"text" : "bang",
					"fontsize" : 12.0,
					"numinlets" : 2,
					"patching_rect" : [ 411.0, 318.0, 37.0, 18.0 ],
					"numoutlets" : 1,
					"outlettype" : [ "" ],
					"id" : "obj-110",
					"fontname" : "Arial"
				}

			}
, 			{
				"box" : 				{
					"maxclass" : "newobj",
					"text" : "route started",
					"fontsize" : 12.0,
					"numinlets" : 1,
					"patching_rect" : [ 411.0, 295.0, 78.0, 20.0 ],
					"numoutlets" : 2,
					"outlettype" : [ "", "" ],
					"id" : "obj-111",
					"fontname" : "Arial"
				}

			}
, 			{
				"box" : 				{
					"maxclass" : "newobj",
					"text" : "receive SEVENUP_LIFECYCLE",
					"fontsize" : 12.0,
					"numinlets" : 0,
					"patching_rect" : [ 410.0, 272.0, 182.0, 20.0 ],
					"numoutlets" : 1,
					"outlettype" : [ "" ],
					"id" : "obj-112",
					"fontname" : "Arial"
				}

			}
, 			{
				"box" : 				{
					"maxclass" : "newobj",
					"text" : "pvar sevenup-gate-loops",
					"fontsize" : 12.0,
					"numinlets" : 1,
					"patching_rect" : [ 86.0, 260.0, 143.0, 20.0 ],
					"numoutlets" : 1,
					"outlettype" : [ "" ],
					"id" : "obj-109",
					"fontname" : "Arial"
				}

			}
, 			{
				"box" : 				{
					"maxclass" : "newobj",
					"text" : "pvar sevenup-loop-length7",
					"fontsize" : 12.0,
					"numinlets" : 1,
					"patching_rect" : [ 992.0, 406.0, 153.0, 20.0 ],
					"numoutlets" : 1,
					"outlettype" : [ "" ],
					"id" : "obj-86",
					"fontname" : "Arial"
				}

			}
, 			{
				"box" : 				{
					"maxclass" : "newobj",
					"text" : "pvar sevenup-loop-length6",
					"fontsize" : 12.0,
					"numinlets" : 1,
					"patching_rect" : [ 993.0, 383.0, 153.0, 20.0 ],
					"numoutlets" : 1,
					"outlettype" : [ "" ],
					"id" : "obj-103",
					"fontname" : "Arial"
				}

			}
, 			{
				"box" : 				{
					"maxclass" : "newobj",
					"text" : "pvar sevenup-loop-length5",
					"fontsize" : 12.0,
					"numinlets" : 1,
					"patching_rect" : [ 993.0, 360.0, 153.0, 20.0 ],
					"numoutlets" : 1,
					"outlettype" : [ "" ],
					"id" : "obj-104",
					"fontname" : "Arial"
				}

			}
, 			{
				"box" : 				{
					"maxclass" : "newobj",
					"text" : "pvar sevenup-loop-length4",
					"fontsize" : 12.0,
					"numinlets" : 1,
					"patching_rect" : [ 994.0, 337.0, 153.0, 20.0 ],
					"numoutlets" : 1,
					"outlettype" : [ "" ],
					"id" : "obj-105",
					"fontname" : "Arial"
				}

			}
, 			{
				"box" : 				{
					"maxclass" : "newobj",
					"text" : "pvar sevenup-loop-length3",
					"fontsize" : 12.0,
					"numinlets" : 1,
					"patching_rect" : [ 994.0, 314.0, 153.0, 20.0 ],
					"numoutlets" : 1,
					"outlettype" : [ "" ],
					"id" : "obj-106",
					"fontname" : "Arial"
				}

			}
, 			{
				"box" : 				{
					"maxclass" : "newobj",
					"text" : "pvar sevenup-loop-length2",
					"fontsize" : 12.0,
					"numinlets" : 1,
					"patching_rect" : [ 993.0, 290.0, 153.0, 20.0 ],
					"numoutlets" : 1,
					"outlettype" : [ "" ],
					"id" : "obj-107",
					"fontname" : "Arial"
				}

			}
, 			{
				"box" : 				{
					"maxclass" : "newobj",
					"text" : "pvar sevenup-loop-length1",
					"fontsize" : 12.0,
					"numinlets" : 1,
					"patching_rect" : [ 994.0, 267.0, 153.0, 20.0 ],
					"numoutlets" : 1,
					"outlettype" : [ "" ],
					"id" : "obj-108",
					"fontname" : "Arial"
				}

			}
, 			{
				"box" : 				{
					"maxclass" : "newobj",
					"text" : "pvar sevenup-loop-mode7",
					"fontsize" : 12.0,
					"numinlets" : 1,
					"patching_rect" : [ 600.0, 412.0, 150.0, 20.0 ],
					"numoutlets" : 1,
					"outlettype" : [ "" ],
					"id" : "obj-82",
					"fontname" : "Arial"
				}

			}
, 			{
				"box" : 				{
					"maxclass" : "newobj",
					"text" : "pvar sevenup-loop-mode6",
					"fontsize" : 12.0,
					"numinlets" : 1,
					"patching_rect" : [ 601.0, 389.0, 150.0, 20.0 ],
					"numoutlets" : 1,
					"outlettype" : [ "" ],
					"id" : "obj-81",
					"fontname" : "Arial"
				}

			}
, 			{
				"box" : 				{
					"maxclass" : "newobj",
					"text" : "pvar sevenup-loop-choke7",
					"fontsize" : 12.0,
					"numinlets" : 1,
					"patching_rect" : [ 238.0, 397.0, 152.0, 20.0 ],
					"numoutlets" : 1,
					"outlettype" : [ "" ],
					"id" : "obj-80",
					"fontname" : "Arial"
				}

			}
, 			{
				"box" : 				{
					"maxclass" : "newobj",
					"text" : "pvar sevenup-loop-choke6",
					"fontsize" : 12.0,
					"numinlets" : 1,
					"patching_rect" : [ 238.0, 374.0, 152.0, 20.0 ],
					"numoutlets" : 1,
					"outlettype" : [ "" ],
					"id" : "obj-79",
					"fontname" : "Arial"
				}

			}
, 			{
				"box" : 				{
					"maxclass" : "newobj",
					"text" : "pvar sevenup-loop-mode5",
					"fontsize" : 12.0,
					"numinlets" : 1,
					"patching_rect" : [ 601.0, 366.0, 150.0, 20.0 ],
					"numoutlets" : 1,
					"outlettype" : [ "" ],
					"id" : "obj-56",
					"fontname" : "Arial"
				}

			}
, 			{
				"box" : 				{
					"maxclass" : "newobj",
					"text" : "pvar sevenup-loop-mode4",
					"fontsize" : 12.0,
					"numinlets" : 1,
					"patching_rect" : [ 602.0, 343.0, 150.0, 20.0 ],
					"numoutlets" : 1,
					"outlettype" : [ "" ],
					"id" : "obj-57",
					"fontname" : "Arial"
				}

			}
, 			{
				"box" : 				{
					"maxclass" : "newobj",
					"text" : "pvar sevenup-loop-mode3",
					"fontsize" : 12.0,
					"numinlets" : 1,
					"patching_rect" : [ 602.0, 320.0, 150.0, 20.0 ],
					"numoutlets" : 1,
					"outlettype" : [ "" ],
					"id" : "obj-58",
					"fontname" : "Arial"
				}

			}
, 			{
				"box" : 				{
					"maxclass" : "newobj",
					"text" : "pvar sevenup-loop-mode2",
					"fontsize" : 12.0,
					"numinlets" : 1,
					"patching_rect" : [ 602.0, 296.0, 150.0, 20.0 ],
					"numoutlets" : 1,
					"outlettype" : [ "" ],
					"id" : "obj-59",
					"fontname" : "Arial"
				}

			}
, 			{
				"box" : 				{
					"maxclass" : "newobj",
					"text" : "pvar sevenup-loop-mode1",
					"fontsize" : 12.0,
					"numinlets" : 1,
					"patching_rect" : [ 602.0, 273.0, 150.0, 20.0 ],
					"numoutlets" : 1,
					"outlettype" : [ "" ],
					"id" : "obj-78",
					"fontname" : "Arial"
				}

			}
, 			{
				"box" : 				{
					"maxclass" : "newobj",
					"text" : "pvar sevenup-loop-choke5",
					"fontsize" : 12.0,
					"numinlets" : 1,
					"patching_rect" : [ 238.0, 351.0, 152.0, 20.0 ],
					"numoutlets" : 1,
					"outlettype" : [ "" ],
					"id" : "obj-55",
					"fontname" : "Arial"
				}

			}
, 			{
				"box" : 				{
					"maxclass" : "newobj",
					"text" : "pvar sevenup-loop-choke4",
					"fontsize" : 12.0,
					"numinlets" : 1,
					"patching_rect" : [ 239.0, 328.0, 152.0, 20.0 ],
					"numoutlets" : 1,
					"outlettype" : [ "" ],
					"id" : "obj-50",
					"fontname" : "Arial"
				}

			}
, 			{
				"box" : 				{
					"maxclass" : "newobj",
					"text" : "pvar sevenup-loop-choke3",
					"fontsize" : 12.0,
					"numinlets" : 1,
					"patching_rect" : [ 239.0, 305.0, 152.0, 20.0 ],
					"numoutlets" : 1,
					"outlettype" : [ "" ],
					"id" : "obj-17",
					"fontname" : "Arial"
				}

			}
, 			{
				"box" : 				{
					"maxclass" : "newobj",
					"text" : "pvar sevenup-loop-choke2",
					"fontsize" : 12.0,
					"numinlets" : 1,
					"patching_rect" : [ 239.0, 281.0, 152.0, 20.0 ],
					"numoutlets" : 1,
					"outlettype" : [ "" ],
					"id" : "obj-16",
					"fontname" : "Arial"
				}

			}
, 			{
				"box" : 				{
					"maxclass" : "newobj",
					"text" : "pvar sevenup-loop-choke1",
					"fontsize" : 12.0,
					"numinlets" : 1,
					"patching_rect" : [ 239.0, 258.0, 152.0, 20.0 ],
					"numoutlets" : 1,
					"outlettype" : [ "" ],
					"id" : "obj-14",
					"fontname" : "Arial"
				}

			}
, 			{
				"box" : 				{
					"maxclass" : "message",
					"text" : "bang",
					"fontsize" : 12.0,
					"numinlets" : 2,
					"patching_rect" : [ 109.0, 163.0, 37.0, 18.0 ],
					"numoutlets" : 1,
					"outlettype" : [ "" ],
					"id" : "obj-4",
					"fontname" : "Arial"
				}

			}
, 			{
				"box" : 				{
					"maxclass" : "newobj",
					"text" : "route started",
					"fontsize" : 12.0,
					"numinlets" : 1,
					"patching_rect" : [ 109.0, 140.0, 78.0, 20.0 ],
					"numoutlets" : 2,
					"outlettype" : [ "", "" ],
					"id" : "obj-5",
					"fontname" : "Arial"
				}

			}
, 			{
				"box" : 				{
					"maxclass" : "newobj",
					"text" : "receive SEVENUP_LIFECYCLE",
					"fontsize" : 12.0,
					"numinlets" : 0,
					"patching_rect" : [ 108.0, 117.0, 182.0, 20.0 ],
					"numoutlets" : 1,
					"outlettype" : [ "" ],
					"id" : "obj-7",
					"fontname" : "Arial"
				}

			}
, 			{
				"box" : 				{
					"maxclass" : "newobj",
					"text" : "prepend looplength",
					"fontsize" : 12.0,
					"numinlets" : 1,
					"patching_rect" : [ 739.0, 980.0, 113.0, 20.0 ],
					"numoutlets" : 1,
					"outlettype" : [ "" ],
					"id" : "obj-95",
					"fontname" : "Arial"
				}

			}
, 			{
				"box" : 				{
					"maxclass" : "newobj",
					"text" : "prepend 6",
					"fontsize" : 12.0,
					"numinlets" : 1,
					"patching_rect" : [ 851.0, 919.0, 65.0, 20.0 ],
					"numoutlets" : 1,
					"outlettype" : [ "" ],
					"id" : "obj-96",
					"fontname" : "Arial"
				}

			}
, 			{
				"box" : 				{
					"maxclass" : "newobj",
					"text" : "prepend 5",
					"fontsize" : 12.0,
					"numinlets" : 1,
					"patching_rect" : [ 836.0, 904.0, 65.0, 20.0 ],
					"numoutlets" : 1,
					"outlettype" : [ "" ],
					"id" : "obj-97",
					"fontname" : "Arial"
				}

			}
, 			{
				"box" : 				{
					"maxclass" : "newobj",
					"text" : "prepend 4",
					"fontsize" : 12.0,
					"numinlets" : 1,
					"patching_rect" : [ 821.0, 889.0, 65.0, 20.0 ],
					"numoutlets" : 1,
					"outlettype" : [ "" ],
					"id" : "obj-98",
					"fontname" : "Arial"
				}

			}
, 			{
				"box" : 				{
					"maxclass" : "newobj",
					"text" : "prepend 3",
					"fontsize" : 12.0,
					"numinlets" : 1,
					"patching_rect" : [ 806.0, 874.0, 65.0, 20.0 ],
					"numoutlets" : 1,
					"outlettype" : [ "" ],
					"id" : "obj-99",
					"fontname" : "Arial"
				}

			}
, 			{
				"box" : 				{
					"maxclass" : "newobj",
					"text" : "prepend 2",
					"fontsize" : 12.0,
					"numinlets" : 1,
					"patching_rect" : [ 791.0, 859.0, 65.0, 20.0 ],
					"numoutlets" : 1,
					"outlettype" : [ "" ],
					"id" : "obj-100",
					"fontname" : "Arial"
				}

			}
, 			{
				"box" : 				{
					"maxclass" : "newobj",
					"text" : "prepend 1",
					"fontsize" : 12.0,
					"numinlets" : 1,
					"patching_rect" : [ 776.0, 843.0, 65.0, 20.0 ],
					"numoutlets" : 1,
					"outlettype" : [ "" ],
					"id" : "obj-101",
					"fontname" : "Arial"
				}

			}
, 			{
				"box" : 				{
					"maxclass" : "newobj",
					"text" : "prepend 0",
					"fontsize" : 12.0,
					"numinlets" : 1,
					"patching_rect" : [ 761.0, 829.0, 65.0, 20.0 ],
					"numoutlets" : 1,
					"outlettype" : [ "" ],
					"id" : "obj-102",
					"fontname" : "Arial"
				}

			}
, 			{
				"box" : 				{
					"maxclass" : "newobj",
					"text" : "prepend set",
					"fontsize" : 12.0,
					"numinlets" : 1,
					"patching_rect" : [ 1065.0, 235.0, 74.0, 20.0 ],
					"numoutlets" : 1,
					"outlettype" : [ "" ],
					"id" : "obj-87",
					"fontname" : "Arial"
				}

			}
, 			{
				"box" : 				{
					"maxclass" : "newobj",
					"text" : "prepend set",
					"fontsize" : 12.0,
					"numinlets" : 1,
					"patching_rect" : [ 1050.0, 220.0, 74.0, 20.0 ],
					"numoutlets" : 1,
					"outlettype" : [ "" ],
					"id" : "obj-88",
					"fontname" : "Arial"
				}

			}
, 			{
				"box" : 				{
					"maxclass" : "newobj",
					"text" : "prepend set",
					"fontsize" : 12.0,
					"numinlets" : 1,
					"patching_rect" : [ 1035.0, 205.0, 74.0, 20.0 ],
					"numoutlets" : 1,
					"outlettype" : [ "" ],
					"id" : "obj-89",
					"fontname" : "Arial"
				}

			}
, 			{
				"box" : 				{
					"maxclass" : "newobj",
					"text" : "prepend set",
					"fontsize" : 12.0,
					"numinlets" : 1,
					"patching_rect" : [ 1020.0, 190.0, 74.0, 20.0 ],
					"numoutlets" : 1,
					"outlettype" : [ "" ],
					"id" : "obj-90",
					"fontname" : "Arial"
				}

			}
, 			{
				"box" : 				{
					"maxclass" : "newobj",
					"text" : "prepend set",
					"fontsize" : 12.0,
					"numinlets" : 1,
					"patching_rect" : [ 1005.0, 175.0, 74.0, 20.0 ],
					"numoutlets" : 1,
					"outlettype" : [ "" ],
					"id" : "obj-91",
					"fontname" : "Arial"
				}

			}
, 			{
				"box" : 				{
					"maxclass" : "newobj",
					"text" : "prepend set",
					"fontsize" : 12.0,
					"numinlets" : 1,
					"patching_rect" : [ 990.0, 160.0, 74.0, 20.0 ],
					"numoutlets" : 1,
					"outlettype" : [ "" ],
					"id" : "obj-92",
					"fontname" : "Arial"
				}

			}
, 			{
				"box" : 				{
					"maxclass" : "newobj",
					"text" : "prepend set",
					"fontsize" : 12.0,
					"numinlets" : 1,
					"patching_rect" : [ 975.0, 145.0, 74.0, 20.0 ],
					"numoutlets" : 1,
					"outlettype" : [ "" ],
					"id" : "obj-93",
					"fontname" : "Arial"
				}

			}
, 			{
				"box" : 				{
					"maxclass" : "newobj",
					"text" : "route 0 1 2 3 4 5 6",
					"fontsize" : 12.0,
					"numinlets" : 1,
					"patching_rect" : [ 942.0, 109.0, 113.5, 20.0 ],
					"numoutlets" : 8,
					"outlettype" : [ "", "", "", "", "", "", "", "" ],
					"id" : "obj-94",
					"fontname" : "Arial"
				}

			}
, 			{
				"box" : 				{
					"maxclass" : "live.menu",
					"varname" : "sevenup-loop-length7",
					"presentation_rect" : [ 334.0, 76.0, 30.0, 15.0 ],
					"numinlets" : 1,
					"patching_rect" : [ 768.0, 711.0, 34.0, 15.0 ],
					"presentation" : 1,
					"numoutlets" : 3,
					"parameter_enable" : 1,
					"outlettype" : [ "", "", "float" ],
					"id" : "obj-83",
					"pictures" : [  ],
					"saved_attribute_attributes" : 					{
						"valueof" : 						{
							"parameter_type" : 2,
							"parameter_initial_enable" : 1,
							"parameter_shortname" : "live.menu",
							"parameter_invisible" : 1,
							"parameter_modmax" : 127.0,
							"parameter_annotation_name" : "",
							"parameter_longname" : "sevenup-loop-length7",
							"parameter_modmin" : 0.0,
							"parameter_linknames" : 1,
							"parameter_modmode" : 0,
							"parameter_info" : "",
							"parameter_order" : 0,
							"parameter_units" : "",
							"parameter_speedlim" : 0,
							"parameter_steps" : 0,
							"parameter_enum" : [ "0.5", "1", "2", "4", "8", "16", "32" ],
							"parameter_exponent" : 1.0,
							"parameter_unitstyle" : 1,
							"parameter_mmax" : 127.0,
							"parameter_mmin" : 0.0,
							"parameter_initial" : [ 0.0 ]
						}

					}

				}

			}
, 			{
				"box" : 				{
					"maxclass" : "live.menu",
					"varname" : "sevenup-loop-length6",
					"presentation_rect" : [ 334.0, 56.0, 30.0, 15.0 ],
					"numinlets" : 1,
					"patching_rect" : [ 771.0, 689.0, 34.0, 15.0 ],
					"presentation" : 1,
					"numoutlets" : 3,
					"parameter_enable" : 1,
					"outlettype" : [ "", "", "float" ],
					"id" : "obj-84",
					"pictures" : [  ],
					"saved_attribute_attributes" : 					{
						"valueof" : 						{
							"parameter_type" : 2,
							"parameter_initial_enable" : 1,
							"parameter_shortname" : "live.menu",
							"parameter_invisible" : 1,
							"parameter_modmax" : 127.0,
							"parameter_annotation_name" : "",
							"parameter_longname" : "sevenup-loop-length6",
							"parameter_modmin" : 0.0,
							"parameter_linknames" : 1,
							"parameter_modmode" : 0,
							"parameter_info" : "",
							"parameter_order" : 0,
							"parameter_units" : "",
							"parameter_speedlim" : 0,
							"parameter_steps" : 0,
							"parameter_enum" : [ "0.5", "1", "2", "4", "8", "16", "32" ],
							"parameter_exponent" : 1.0,
							"parameter_unitstyle" : 10,
							"parameter_mmax" : 127.0,
							"parameter_mmin" : 0.0,
							"parameter_initial" : [ 0.0 ]
						}

					}

				}

			}
, 			{
				"box" : 				{
					"maxclass" : "live.menu",
					"varname" : "sevenup-loop-length5",
					"presentation_rect" : [ 334.0, 37.0, 30.0, 15.0 ],
					"numinlets" : 1,
					"patching_rect" : [ 770.0, 670.0, 34.0, 15.0 ],
					"presentation" : 1,
					"numoutlets" : 3,
					"parameter_enable" : 1,
					"outlettype" : [ "", "", "float" ],
					"id" : "obj-85",
					"pictures" : [  ],
					"saved_attribute_attributes" : 					{
						"valueof" : 						{
							"parameter_type" : 2,
							"parameter_initial_enable" : 1,
							"parameter_shortname" : "live.menu",
							"parameter_invisible" : 1,
							"parameter_modmax" : 127.0,
							"parameter_annotation_name" : "",
							"parameter_longname" : "sevenup-loop-length5",
							"parameter_modmin" : 0.0,
							"parameter_linknames" : 1,
							"parameter_modmode" : 0,
							"parameter_info" : "",
							"parameter_order" : 0,
							"parameter_units" : "",
							"parameter_speedlim" : 0,
							"parameter_steps" : 0,
							"parameter_enum" : [ "0.5", "1", "2", "4", "8", "16", "32" ],
							"parameter_exponent" : 1.0,
							"parameter_unitstyle" : 1,
							"parameter_mmax" : 127.0,
							"parameter_mmin" : 0.0,
							"parameter_initial" : [ 0.0 ]
						}

					}

				}

			}
, 			{
				"box" : 				{
					"maxclass" : "live.menu",
					"varname" : "sevenup-loop-length4",
					"presentation_rect" : [ 147.0, 93.0, 30.0, 15.0 ],
					"numinlets" : 1,
					"patching_rect" : [ 369.0, 727.0, 34.0, 15.0 ],
					"presentation" : 1,
					"numoutlets" : 3,
					"parameter_enable" : 1,
					"outlettype" : [ "", "", "float" ],
					"id" : "obj-77",
					"pictures" : [  ],
					"saved_attribute_attributes" : 					{
						"valueof" : 						{
							"parameter_type" : 2,
							"parameter_initial_enable" : 1,
							"parameter_shortname" : "live.menu",
							"parameter_invisible" : 1,
							"parameter_modmax" : 127.0,
							"parameter_annotation_name" : "",
							"parameter_longname" : "sevenup-loop-length4",
							"parameter_modmin" : 0.0,
							"parameter_linknames" : 1,
							"parameter_modmode" : 0,
							"parameter_info" : "",
							"parameter_order" : 0,
							"parameter_units" : "",
							"parameter_speedlim" : 0,
							"parameter_steps" : 0,
							"parameter_enum" : [ "0.5", "1", "2", "4", "8", "16", "32" ],
							"parameter_exponent" : 1.0,
							"parameter_unitstyle" : 1,
							"parameter_mmax" : 127.0,
							"parameter_mmin" : 0.0,
							"parameter_initial" : [ 0.0 ]
						}

					}

				}

			}
, 			{
				"box" : 				{
					"maxclass" : "live.menu",
					"varname" : "sevenup-loop-length3",
					"presentation_rect" : [ 147.0, 74.0, 30.0, 15.0 ],
					"numinlets" : 1,
					"patching_rect" : [ 371.0, 705.0, 34.0, 15.0 ],
					"presentation" : 1,
					"numoutlets" : 3,
					"parameter_enable" : 1,
					"outlettype" : [ "", "", "float" ],
					"id" : "obj-53",
					"pictures" : [  ],
					"saved_attribute_attributes" : 					{
						"valueof" : 						{
							"parameter_type" : 2,
							"parameter_initial_enable" : 1,
							"parameter_shortname" : "live.menu",
							"parameter_invisible" : 1,
							"parameter_modmax" : 127.0,
							"parameter_annotation_name" : "",
							"parameter_longname" : "sevenup-loop-length3",
							"parameter_modmin" : 0.0,
							"parameter_linknames" : 1,
							"parameter_modmode" : 0,
							"parameter_info" : "",
							"parameter_order" : 0,
							"parameter_units" : "",
							"parameter_speedlim" : 0,
							"parameter_steps" : 0,
							"parameter_enum" : [ "0.5", "1", "2", "4", "8", "16", "32" ],
							"parameter_exponent" : 1.0,
							"parameter_unitstyle" : 1,
							"parameter_mmax" : 127.0,
							"parameter_mmin" : 0.0,
							"parameter_initial" : [ 0.0 ]
						}

					}

				}

			}
, 			{
				"box" : 				{
					"maxclass" : "live.menu",
					"varname" : "sevenup-loop-length2",
					"presentation_rect" : [ 147.0, 54.0, 30.0, 15.0 ],
					"numinlets" : 1,
					"patching_rect" : [ 369.0, 686.0, 34.0, 15.0 ],
					"presentation" : 1,
					"numoutlets" : 3,
					"parameter_enable" : 1,
					"outlettype" : [ "", "", "float" ],
					"id" : "obj-9",
					"pictures" : [  ],
					"saved_attribute_attributes" : 					{
						"valueof" : 						{
							"parameter_type" : 2,
							"parameter_initial_enable" : 1,
							"parameter_shortname" : "live.menu",
							"parameter_invisible" : 1,
							"parameter_modmax" : 127.0,
							"parameter_annotation_name" : "",
							"parameter_longname" : "sevenup-loop-length2",
							"parameter_modmin" : 0.0,
							"parameter_linknames" : 1,
							"parameter_modmode" : 0,
							"parameter_info" : "",
							"parameter_order" : 0,
							"parameter_units" : "",
							"parameter_speedlim" : 0,
							"parameter_steps" : 0,
							"parameter_enum" : [ "0.5", "1", "2", "4", "8", "16", "32" ],
							"parameter_exponent" : 1.0,
							"parameter_unitstyle" : 10,
							"parameter_mmax" : 127.0,
							"parameter_mmin" : 0.0,
							"parameter_initial" : [ 0.0 ]
						}

					}

				}

			}
, 			{
				"box" : 				{
					"maxclass" : "live.menu",
					"varname" : "sevenup-loop-length1",
					"presentation_rect" : [ 147.0, 35.0, 30.0, 15.0 ],
					"numinlets" : 1,
					"patching_rect" : [ 370.0, 668.0, 34.0, 15.0 ],
					"presentation" : 1,
					"numoutlets" : 3,
					"parameter_enable" : 1,
					"outlettype" : [ "", "", "float" ],
					"id" : "obj-8",
					"pictures" : [  ],
					"saved_attribute_attributes" : 					{
						"valueof" : 						{
							"parameter_type" : 2,
							"parameter_initial_enable" : 1,
							"parameter_shortname" : "live.menu",
							"parameter_invisible" : 1,
							"parameter_modmax" : 127.0,
							"parameter_annotation_name" : "",
							"parameter_longname" : "sevenup-loop-length1",
							"parameter_modmin" : 0.0,
							"parameter_linknames" : 1,
							"parameter_modmode" : 0,
							"parameter_info" : "",
							"parameter_order" : 0,
							"parameter_units" : "",
							"parameter_speedlim" : 0,
							"parameter_steps" : 0,
							"parameter_enum" : [ "0.5", "1", "2", "4", "8", "16", "32" ],
							"parameter_exponent" : 1.0,
							"parameter_unitstyle" : 1,
							"parameter_mmax" : 127.0,
							"parameter_mmin" : 0.0,
							"parameter_initial" : [ 0.0 ]
						}

					}

				}

			}
, 			{
				"box" : 				{
					"maxclass" : "newobj",
					"text" : "prepend set",
					"fontsize" : 12.0,
					"numinlets" : 1,
					"patching_rect" : [ 695.0, 242.0, 74.0, 20.0 ],
					"numoutlets" : 1,
					"outlettype" : [ "" ],
					"id" : "obj-69",
					"fontname" : "Arial"
				}

			}
, 			{
				"box" : 				{
					"maxclass" : "newobj",
					"text" : "prepend set",
					"fontsize" : 12.0,
					"numinlets" : 1,
					"patching_rect" : [ 680.0, 227.0, 74.0, 20.0 ],
					"numoutlets" : 1,
					"outlettype" : [ "" ],
					"id" : "obj-70",
					"fontname" : "Arial"
				}

			}
, 			{
				"box" : 				{
					"maxclass" : "newobj",
					"text" : "prepend set",
					"fontsize" : 12.0,
					"numinlets" : 1,
					"patching_rect" : [ 665.0, 212.0, 74.0, 20.0 ],
					"numoutlets" : 1,
					"outlettype" : [ "" ],
					"id" : "obj-71",
					"fontname" : "Arial"
				}

			}
, 			{
				"box" : 				{
					"maxclass" : "newobj",
					"text" : "prepend set",
					"fontsize" : 12.0,
					"numinlets" : 1,
					"patching_rect" : [ 650.0, 197.0, 74.0, 20.0 ],
					"numoutlets" : 1,
					"outlettype" : [ "" ],
					"id" : "obj-72",
					"fontname" : "Arial"
				}

			}
, 			{
				"box" : 				{
					"maxclass" : "newobj",
					"text" : "prepend set",
					"fontsize" : 12.0,
					"numinlets" : 1,
					"patching_rect" : [ 635.0, 182.0, 74.0, 20.0 ],
					"numoutlets" : 1,
					"outlettype" : [ "" ],
					"id" : "obj-73",
					"fontname" : "Arial"
				}

			}
, 			{
				"box" : 				{
					"maxclass" : "newobj",
					"text" : "prepend set",
					"fontsize" : 12.0,
					"numinlets" : 1,
					"patching_rect" : [ 620.0, 167.0, 74.0, 20.0 ],
					"numoutlets" : 1,
					"outlettype" : [ "" ],
					"id" : "obj-74",
					"fontname" : "Arial"
				}

			}
, 			{
				"box" : 				{
					"maxclass" : "newobj",
					"text" : "prepend set",
					"fontsize" : 12.0,
					"numinlets" : 1,
					"patching_rect" : [ 605.0, 152.0, 74.0, 20.0 ],
					"numoutlets" : 1,
					"outlettype" : [ "" ],
					"id" : "obj-75",
					"fontname" : "Arial"
				}

			}
, 			{
				"box" : 				{
					"maxclass" : "newobj",
					"text" : "route 0 1 2 3 4 5 6",
					"fontsize" : 12.0,
					"numinlets" : 1,
					"patching_rect" : [ 572.0, 116.0, 113.5, 20.0 ],
					"numoutlets" : 8,
					"outlettype" : [ "", "", "", "", "", "", "", "" ],
					"id" : "obj-76",
					"fontname" : "Arial"
				}

			}
, 			{
				"box" : 				{
					"maxclass" : "newobj",
					"text" : "prepend set",
					"fontsize" : 12.0,
					"numinlets" : 1,
					"patching_rect" : [ 373.0, 231.0, 74.0, 20.0 ],
					"numoutlets" : 1,
					"outlettype" : [ "" ],
					"id" : "obj-68",
					"fontname" : "Arial"
				}

			}
, 			{
				"box" : 				{
					"maxclass" : "newobj",
					"text" : "prepend set",
					"fontsize" : 12.0,
					"numinlets" : 1,
					"patching_rect" : [ 358.0, 216.0, 74.0, 20.0 ],
					"numoutlets" : 1,
					"outlettype" : [ "" ],
					"id" : "obj-67",
					"fontname" : "Arial"
				}

			}
, 			{
				"box" : 				{
					"maxclass" : "newobj",
					"text" : "prepend set",
					"fontsize" : 12.0,
					"numinlets" : 1,
					"patching_rect" : [ 343.0, 201.0, 74.0, 20.0 ],
					"numoutlets" : 1,
					"outlettype" : [ "" ],
					"id" : "obj-66",
					"fontname" : "Arial"
				}

			}
, 			{
				"box" : 				{
					"maxclass" : "newobj",
					"text" : "prepend set",
					"fontsize" : 12.0,
					"numinlets" : 1,
					"patching_rect" : [ 328.0, 186.0, 74.0, 20.0 ],
					"numoutlets" : 1,
					"outlettype" : [ "" ],
					"id" : "obj-65",
					"fontname" : "Arial"
				}

			}
, 			{
				"box" : 				{
					"maxclass" : "newobj",
					"text" : "prepend set",
					"fontsize" : 12.0,
					"numinlets" : 1,
					"patching_rect" : [ 313.0, 171.0, 74.0, 20.0 ],
					"numoutlets" : 1,
					"outlettype" : [ "" ],
					"id" : "obj-64",
					"fontname" : "Arial"
				}

			}
, 			{
				"box" : 				{
					"maxclass" : "newobj",
					"text" : "prepend set",
					"fontsize" : 12.0,
					"numinlets" : 1,
					"patching_rect" : [ 298.0, 156.0, 74.0, 20.0 ],
					"numoutlets" : 1,
					"outlettype" : [ "" ],
					"id" : "obj-63",
					"fontname" : "Arial"
				}

			}
, 			{
				"box" : 				{
					"maxclass" : "newobj",
					"text" : "prepend set",
					"fontsize" : 12.0,
					"numinlets" : 1,
					"patching_rect" : [ 283.0, 141.0, 74.0, 20.0 ],
					"numoutlets" : 1,
					"outlettype" : [ "" ],
					"id" : "obj-62",
					"fontname" : "Arial"
				}

			}
, 			{
				"box" : 				{
					"maxclass" : "newobj",
					"text" : "route 0 1 2 3 4 5 6",
					"fontsize" : 12.0,
					"numinlets" : 1,
					"patching_rect" : [ 303.0, 117.0, 113.5, 20.0 ],
					"numoutlets" : 8,
					"outlettype" : [ "", "", "", "", "", "", "", "" ],
					"id" : "obj-61",
					"fontname" : "Arial"
				}

			}
, 			{
				"box" : 				{
					"maxclass" : "newobj",
					"text" : "prepend set",
					"fontsize" : 12.0,
					"numinlets" : 1,
					"patching_rect" : [ 85.0, 211.0, 74.0, 20.0 ],
					"numoutlets" : 1,
					"outlettype" : [ "" ],
					"id" : "obj-60",
					"fontname" : "Arial"
				}

			}
, 			{
				"box" : 				{
					"maxclass" : "comment",
					"text" : "Gate choked loops?",
					"linecount" : 3,
					"presentation_rect" : [ 3.0, 10.0, 109.0, 18.0 ],
					"fontface" : 1,
					"fontsize" : 10.0,
					"numinlets" : 1,
					"patching_rect" : [ 649.0, 604.0, 66.0, 41.0 ],
					"presentation" : 1,
					"numoutlets" : 0,
					"id" : "obj-54",
					"fontname" : "Arial"
				}

			}
, 			{
				"box" : 				{
					"maxclass" : "inlet",
					"numinlets" : 0,
					"patching_rect" : [ 604.0, 20.0, 25.0, 25.0 ],
					"numoutlets" : 1,
					"outlettype" : [ "" ],
					"id" : "obj-52",
					"comment" : ""
				}

			}
, 			{
				"box" : 				{
					"maxclass" : "inlet",
					"numinlets" : 0,
					"patching_rect" : [ 80.0, 17.0, 25.0, 25.0 ],
					"numoutlets" : 1,
					"outlettype" : [ "" ],
					"id" : "obj-51",
					"comment" : ""
				}

			}
, 			{
				"box" : 				{
					"maxclass" : "newobj",
					"text" : "route gatechokedloops chokegroup loopmode looplength",
					"fontsize" : 12.0,
					"numinlets" : 1,
					"patching_rect" : [ 78.0, 46.0, 313.0, 20.0 ],
					"numoutlets" : 5,
					"outlettype" : [ "", "", "", "", "" ],
					"id" : "obj-49",
					"fontname" : "Arial"
				}

			}
, 			{
				"box" : 				{
					"maxclass" : "newobj",
					"text" : "prepend loopmode",
					"fontsize" : 12.0,
					"numinlets" : 1,
					"patching_rect" : [ 564.0, 979.0, 111.0, 20.0 ],
					"numoutlets" : 1,
					"outlettype" : [ "" ],
					"id" : "obj-30",
					"fontname" : "Arial"
				}

			}
, 			{
				"box" : 				{
					"maxclass" : "newobj",
					"text" : "prepend 6",
					"fontsize" : 12.0,
					"numinlets" : 1,
					"patching_rect" : [ 676.0, 918.0, 65.0, 20.0 ],
					"numoutlets" : 1,
					"outlettype" : [ "" ],
					"id" : "obj-41",
					"fontname" : "Arial"
				}

			}
, 			{
				"box" : 				{
					"maxclass" : "newobj",
					"text" : "prepend 5",
					"fontsize" : 12.0,
					"numinlets" : 1,
					"patching_rect" : [ 661.0, 903.0, 65.0, 20.0 ],
					"numoutlets" : 1,
					"outlettype" : [ "" ],
					"id" : "obj-42",
					"fontname" : "Arial"
				}

			}
, 			{
				"box" : 				{
					"maxclass" : "newobj",
					"text" : "prepend 4",
					"fontsize" : 12.0,
					"numinlets" : 1,
					"patching_rect" : [ 646.0, 888.0, 65.0, 20.0 ],
					"numoutlets" : 1,
					"outlettype" : [ "" ],
					"id" : "obj-43",
					"fontname" : "Arial"
				}

			}
, 			{
				"box" : 				{
					"maxclass" : "newobj",
					"text" : "prepend 3",
					"fontsize" : 12.0,
					"numinlets" : 1,
					"patching_rect" : [ 631.0, 873.0, 65.0, 20.0 ],
					"numoutlets" : 1,
					"outlettype" : [ "" ],
					"id" : "obj-44",
					"fontname" : "Arial"
				}

			}
, 			{
				"box" : 				{
					"maxclass" : "newobj",
					"text" : "prepend 2",
					"fontsize" : 12.0,
					"numinlets" : 1,
					"patching_rect" : [ 616.0, 858.0, 65.0, 20.0 ],
					"numoutlets" : 1,
					"outlettype" : [ "" ],
					"id" : "obj-45",
					"fontname" : "Arial"
				}

			}
, 			{
				"box" : 				{
					"maxclass" : "newobj",
					"text" : "prepend 1",
					"fontsize" : 12.0,
					"numinlets" : 1,
					"patching_rect" : [ 601.0, 842.0, 65.0, 20.0 ],
					"numoutlets" : 1,
					"outlettype" : [ "" ],
					"id" : "obj-47",
					"fontname" : "Arial"
				}

			}
, 			{
				"box" : 				{
					"maxclass" : "newobj",
					"text" : "prepend 0",
					"fontsize" : 12.0,
					"numinlets" : 1,
					"patching_rect" : [ 586.0, 828.0, 65.0, 20.0 ],
					"numoutlets" : 1,
					"outlettype" : [ "" ],
					"id" : "obj-48",
					"fontname" : "Arial"
				}

			}
, 			{
				"box" : 				{
					"maxclass" : "live.menu",
					"varname" : "sevenup-loop-mode7",
					"presentation_rect" : [ 269.0, 76.0, 62.0, 15.0 ],
					"numinlets" : 1,
					"patching_rect" : [ 705.0, 710.0, 53.0, 15.0 ],
					"presentation" : 1,
					"numoutlets" : 3,
					"parameter_enable" : 1,
					"outlettype" : [ "", "", "float" ],
					"id" : "obj-20",
					"pictures" : [  ],
					"saved_attribute_attributes" : 					{
						"valueof" : 						{
							"parameter_type" : 2,
							"parameter_initial_enable" : 1,
							"parameter_shortname" : "live.menu",
							"parameter_invisible" : 1,
							"parameter_modmax" : 127.0,
							"parameter_annotation_name" : "",
							"parameter_longname" : "sevenup-loop-mode7",
							"parameter_modmin" : 0.0,
							"parameter_linknames" : 1,
							"parameter_modmode" : 0,
							"parameter_info" : "",
							"parameter_order" : 0,
							"parameter_units" : "",
							"parameter_speedlim" : 0,
							"parameter_steps" : 0,
							"parameter_enum" : [ "Loop", "Step", "Shot", "Moment", "Hit", "Slice" ],
							"parameter_exponent" : 1.0,
							"parameter_unitstyle" : 10,
							"parameter_mmax" : 127.0,
							"parameter_mmin" : 0.0,
							"parameter_initial" : [ 0.0 ]
						}

					}

				}

			}
, 			{
				"box" : 				{
					"maxclass" : "live.menu",
					"varname" : "sevenup-loop-mode6",
					"presentation_rect" : [ 269.0, 56.0, 62.0, 15.0 ],
					"numinlets" : 1,
					"patching_rect" : [ 705.0, 690.0, 53.0, 15.0 ],
					"presentation" : 1,
					"numoutlets" : 3,
					"parameter_enable" : 1,
					"outlettype" : [ "", "", "float" ],
					"id" : "obj-21",
					"pictures" : [  ],
					"saved_attribute_attributes" : 					{
						"valueof" : 						{
							"parameter_type" : 2,
							"parameter_initial_enable" : 1,
							"parameter_shortname" : "live.menu",
							"parameter_invisible" : 1,
							"parameter_modmax" : 127.0,
							"parameter_annotation_name" : "",
							"parameter_longname" : "sevenup-loop-mode6",
							"parameter_modmin" : 0.0,
							"parameter_linknames" : 1,
							"parameter_modmode" : 0,
							"parameter_info" : "",
							"parameter_order" : 0,
							"parameter_units" : "",
							"parameter_speedlim" : 0,
							"parameter_steps" : 0,
							"parameter_enum" : [ "Loop", "Step", "Shot", "Moment", "Hit", "Slice" ],
							"parameter_exponent" : 1.0,
							"parameter_unitstyle" : 10,
							"parameter_mmax" : 127.0,
							"parameter_mmin" : 0.0,
							"parameter_initial" : [ 0.0 ]
						}

					}

				}

			}
, 			{
				"box" : 				{
					"maxclass" : "live.menu",
					"varname" : "sevenup-loop-mode5",
					"presentation_rect" : [ 269.0, 37.0, 62.0, 15.0 ],
					"numinlets" : 1,
					"patching_rect" : [ 705.0, 670.0, 53.0, 15.0 ],
					"presentation" : 1,
					"numoutlets" : 3,
					"parameter_enable" : 1,
					"outlettype" : [ "", "", "float" ],
					"id" : "obj-22",
					"pictures" : [  ],
					"saved_attribute_attributes" : 					{
						"valueof" : 						{
							"parameter_type" : 2,
							"parameter_initial_enable" : 1,
							"parameter_shortname" : "live.menu",
							"parameter_invisible" : 1,
							"parameter_modmax" : 127.0,
							"parameter_annotation_name" : "",
							"parameter_longname" : "sevenup-loop-mode5",
							"parameter_modmin" : 0.0,
							"parameter_linknames" : 1,
							"parameter_modmode" : 0,
							"parameter_info" : "",
							"parameter_order" : 0,
							"parameter_units" : "",
							"parameter_speedlim" : 0,
							"parameter_steps" : 0,
							"parameter_enum" : [ "Loop", "Step", "Shot", "Moment", "Hit", "Slice" ],
							"parameter_exponent" : 1.0,
							"parameter_unitstyle" : 10,
							"parameter_mmax" : 127.0,
							"parameter_mmin" : 0.0,
							"parameter_initial" : [ 0.0 ]
						}

					}

				}

			}
, 			{
				"box" : 				{
					"maxclass" : "live.menu",
					"varname" : "sevenup-loop-mode4",
					"presentation_rect" : [ 90.0, 93.0, 54.0, 15.0 ],
					"numinlets" : 1,
					"patching_rect" : [ 441.0, 731.0, 54.0, 15.0 ],
					"presentation" : 1,
					"numoutlets" : 3,
					"parameter_enable" : 1,
					"outlettype" : [ "", "", "float" ],
					"id" : "obj-3",
					"pictures" : [  ],
					"saved_attribute_attributes" : 					{
						"valueof" : 						{
							"parameter_type" : 2,
							"parameter_initial_enable" : 1,
							"parameter_shortname" : "live.menu",
							"parameter_invisible" : 1,
							"parameter_modmax" : 127.0,
							"parameter_annotation_name" : "",
							"parameter_longname" : "sevenup-loop-mode4",
							"parameter_modmin" : 0.0,
							"parameter_linknames" : 1,
							"parameter_modmode" : 0,
							"parameter_info" : "",
							"parameter_order" : 0,
							"parameter_units" : "",
							"parameter_speedlim" : 0,
							"parameter_steps" : 0,
							"parameter_enum" : [ "Loop", "Step", "Shot", "Moment", "Hit", "Slice" ],
							"parameter_exponent" : 1.0,
							"parameter_unitstyle" : 10,
							"parameter_mmax" : 127.0,
							"parameter_mmin" : 0.0,
							"parameter_initial" : [ 0.0 ]
						}

					}

				}

			}
, 			{
				"box" : 				{
					"maxclass" : "live.menu",
					"varname" : "sevenup-loop-mode3",
					"presentation_rect" : [ 90.0, 74.0, 54.0, 15.0 ],
					"numinlets" : 1,
					"patching_rect" : [ 441.0, 709.0, 54.0, 15.0 ],
					"presentation" : 1,
					"numoutlets" : 3,
					"parameter_enable" : 1,
					"outlettype" : [ "", "", "float" ],
					"id" : "obj-13",
					"pictures" : [  ],
					"saved_attribute_attributes" : 					{
						"valueof" : 						{
							"parameter_type" : 2,
							"parameter_initial_enable" : 1,
							"parameter_shortname" : "live.menu",
							"parameter_invisible" : 1,
							"parameter_modmax" : 127.0,
							"parameter_annotation_name" : "",
							"parameter_longname" : "sevenup-loop-mode3",
							"parameter_modmin" : 0.0,
							"parameter_linknames" : 1,
							"parameter_modmode" : 0,
							"parameter_info" : "",
							"parameter_order" : 0,
							"parameter_units" : "",
							"parameter_speedlim" : 0,
							"parameter_steps" : 0,
							"parameter_enum" : [ "Loop", "Step", "Shot", "Moment", "Hit", "Slice" ],
							"parameter_exponent" : 1.0,
							"parameter_unitstyle" : 10,
							"parameter_mmax" : 127.0,
							"parameter_mmin" : 0.0,
							"parameter_initial" : [ 0.0 ]
						}

					}

				}

			}
, 			{
				"box" : 				{
					"maxclass" : "live.menu",
					"varname" : "sevenup-loop-mode2",
					"presentation_rect" : [ 90.0, 54.0, 54.0, 15.0 ],
					"numinlets" : 1,
					"patching_rect" : [ 441.0, 689.0, 54.0, 15.0 ],
					"presentation" : 1,
					"numoutlets" : 3,
					"parameter_enable" : 1,
					"outlettype" : [ "", "", "float" ],
					"id" : "obj-18",
					"pictures" : [  ],
					"saved_attribute_attributes" : 					{
						"valueof" : 						{
							"parameter_type" : 2,
							"parameter_initial_enable" : 1,
							"parameter_shortname" : "live.menu",
							"parameter_invisible" : 1,
							"parameter_modmax" : 127.0,
							"parameter_annotation_name" : "",
							"parameter_longname" : "sevenup-loop-mode2",
							"parameter_modmin" : 0.0,
							"parameter_linknames" : 1,
							"parameter_modmode" : 0,
							"parameter_info" : "",
							"parameter_order" : 0,
							"parameter_units" : "",
							"parameter_speedlim" : 0,
							"parameter_steps" : 0,
							"parameter_enum" : [ "Loop", "Step", "Shot", "Moment", "Hit", "Slice" ],
							"parameter_exponent" : 1.0,
							"parameter_unitstyle" : 10,
							"parameter_mmax" : 127.0,
							"parameter_mmin" : 0.0,
							"parameter_initial" : [ 0.0 ]
						}

					}

				}

			}
, 			{
				"box" : 				{
					"maxclass" : "live.menu",
					"varname" : "sevenup-loop-mode1",
					"presentation_rect" : [ 90.0, 35.0, 54.0, 15.0 ],
					"numinlets" : 1,
					"patching_rect" : [ 441.0, 669.0, 54.0, 15.0 ],
					"presentation" : 1,
					"numoutlets" : 3,
					"parameter_enable" : 1,
					"outlettype" : [ "", "", "float" ],
					"id" : "obj-19",
					"pictures" : [  ],
					"saved_attribute_attributes" : 					{
						"valueof" : 						{
							"parameter_type" : 2,
							"parameter_initial_enable" : 1,
							"parameter_shortname" : "live.menu",
							"parameter_invisible" : 1,
							"parameter_modmax" : 127.0,
							"parameter_annotation_name" : "",
							"parameter_longname" : "sevenup-loop-mode1",
							"parameter_modmin" : 0.0,
							"parameter_linknames" : 1,
							"parameter_modmode" : 0,
							"parameter_info" : "",
							"parameter_order" : 0,
							"parameter_units" : "",
							"parameter_speedlim" : 0,
							"parameter_steps" : 0,
							"parameter_enum" : [ "Loop", "Step", "Shot", "Moment", "Hit", "Slice" ],
							"parameter_exponent" : 1.0,
							"parameter_unitstyle" : 10,
							"parameter_mmax" : 127.0,
							"parameter_mmin" : 0.0
						}

					}

				}

			}
, 			{
				"box" : 				{
					"maxclass" : "newobj",
					"text" : "prepend chokegroup",
					"fontsize" : 12.0,
					"numinlets" : 1,
					"patching_rect" : [ 388.0, 979.0, 121.0, 20.0 ],
					"numoutlets" : 1,
					"outlettype" : [ "" ],
					"id" : "obj-46",
					"fontname" : "Arial"
				}

			}
, 			{
				"box" : 				{
					"maxclass" : "newobj",
					"text" : "prepend 6",
					"fontsize" : 12.0,
					"numinlets" : 1,
					"patching_rect" : [ 500.0, 918.0, 65.0, 20.0 ],
					"numoutlets" : 1,
					"outlettype" : [ "" ],
					"id" : "obj-29",
					"fontname" : "Arial"
				}

			}
, 			{
				"box" : 				{
					"maxclass" : "newobj",
					"text" : "prepend 5",
					"fontsize" : 12.0,
					"numinlets" : 1,
					"patching_rect" : [ 485.0, 903.0, 65.0, 20.0 ],
					"numoutlets" : 1,
					"outlettype" : [ "" ],
					"id" : "obj-28",
					"fontname" : "Arial"
				}

			}
, 			{
				"box" : 				{
					"maxclass" : "newobj",
					"text" : "prepend 4",
					"fontsize" : 12.0,
					"numinlets" : 1,
					"patching_rect" : [ 470.0, 888.0, 65.0, 20.0 ],
					"numoutlets" : 1,
					"outlettype" : [ "" ],
					"id" : "obj-27",
					"fontname" : "Arial"
				}

			}
, 			{
				"box" : 				{
					"maxclass" : "newobj",
					"text" : "prepend 3",
					"fontsize" : 12.0,
					"numinlets" : 1,
					"patching_rect" : [ 455.0, 873.0, 65.0, 20.0 ],
					"numoutlets" : 1,
					"outlettype" : [ "" ],
					"id" : "obj-26",
					"fontname" : "Arial"
				}

			}
, 			{
				"box" : 				{
					"maxclass" : "newobj",
					"text" : "prepend 2",
					"fontsize" : 12.0,
					"numinlets" : 1,
					"patching_rect" : [ 440.0, 858.0, 65.0, 20.0 ],
					"numoutlets" : 1,
					"outlettype" : [ "" ],
					"id" : "obj-25",
					"fontname" : "Arial"
				}

			}
, 			{
				"box" : 				{
					"maxclass" : "newobj",
					"text" : "prepend 1",
					"fontsize" : 12.0,
					"numinlets" : 1,
					"patching_rect" : [ 425.0, 842.0, 65.0, 20.0 ],
					"numoutlets" : 1,
					"outlettype" : [ "" ],
					"id" : "obj-24",
					"fontname" : "Arial"
				}

			}
, 			{
				"box" : 				{
					"maxclass" : "newobj",
					"text" : "prepend 0",
					"fontsize" : 12.0,
					"numinlets" : 1,
					"patching_rect" : [ 410.0, 828.0, 65.0, 20.0 ],
					"numoutlets" : 1,
					"outlettype" : [ "" ],
					"id" : "obj-23",
					"fontname" : "Arial"
				}

			}
, 			{
				"box" : 				{
					"maxclass" : "newobj",
					"text" : "prepend gatechokedloops",
					"fontsize" : 12.0,
					"numinlets" : 1,
					"patching_rect" : [ 238.0, 932.0, 149.0, 20.0 ],
					"numoutlets" : 1,
					"outlettype" : [ "" ],
					"id" : "obj-15",
					"fontname" : "Arial"
				}

			}
, 			{
				"box" : 				{
					"maxclass" : "outlet",
					"numinlets" : 1,
					"patching_rect" : [ 104.0, 1117.0, 25.0, 25.0 ],
					"numoutlets" : 0,
					"id" : "obj-12",
					"comment" : ""
				}

			}
, 			{
				"box" : 				{
					"maxclass" : "comment",
					"text" : "Loop 4",
					"presentation_rect" : [ 5.0, 93.0, 41.0, 18.0 ],
					"fontface" : 1,
					"fontsize" : 10.0,
					"numinlets" : 1,
					"patching_rect" : [ 199.0, 730.0, 75.0, 18.0 ],
					"presentation" : 1,
					"numoutlets" : 0,
					"id" : "obj-1",
					"fontname" : "Arial"
				}

			}
, 			{
				"box" : 				{
					"maxclass" : "live.menu",
					"varname" : "sevenup-loop-choke4",
					"presentation_rect" : [ 46.0, 93.0, 41.0, 15.0 ],
					"numinlets" : 1,
					"patching_rect" : [ 288.0, 726.0, 71.0, 15.0 ],
					"presentation" : 1,
					"numoutlets" : 3,
					"parameter_enable" : 1,
					"outlettype" : [ "", "", "float" ],
					"id" : "obj-2",
					"pictures" : [  ],
					"saved_attribute_attributes" : 					{
						"valueof" : 						{
							"parameter_type" : 2,
							"parameter_initial_enable" : 1,
							"parameter_shortname" : "live.menu",
							"parameter_invisible" : 1,
							"parameter_modmax" : 127.0,
							"parameter_annotation_name" : "",
							"parameter_longname" : "sevenup-loop-choke4",
							"parameter_modmin" : 0.0,
							"parameter_linknames" : 1,
							"parameter_modmode" : 0,
							"parameter_info" : "",
							"parameter_order" : 0,
							"parameter_units" : "",
							"parameter_speedlim" : 0,
							"parameter_steps" : 0,
							"parameter_enum" : [ "Nope", "1", "2", "3", "4", "5", "6", "7" ],
							"parameter_exponent" : 1.0,
							"parameter_unitstyle" : 10,
							"parameter_mmax" : 127.0,
							"parameter_mmin" : 0.0,
							"parameter_initial" : [ 0.0 ]
						}

					}

				}

			}
, 			{
				"box" : 				{
					"maxclass" : "live.text",
					"varname" : "sevenup-gate-loops",
					"automation" : "0",
					"presentation_rect" : [ 108.0, 11.0, 32.0, 14.0 ],
					"text" : "OFF",
					"fontsize" : 9.0,
					"automationon" : "1",
					"numinlets" : 1,
					"patching_rect" : [ 636.0, 650.0, 100.0, 15.0 ],
					"presentation" : 1,
					"numoutlets" : 2,
					"parameter_enable" : 1,
					"outlettype" : [ "", "" ],
					"id" : "obj-6",
					"texton" : "ON",
					"saved_attribute_attributes" : 					{
						"valueof" : 						{
							"parameter_type" : 2,
							"parameter_initial_enable" : 1,
							"parameter_shortname" : "live.menu",
							"parameter_invisible" : 1,
							"parameter_modmax" : 127.0,
							"parameter_annotation_name" : "",
							"parameter_longname" : "sevenup-gate-loops",
							"parameter_modmin" : 0.0,
							"parameter_linknames" : 1,
							"parameter_modmode" : 0,
							"parameter_info" : "",
							"parameter_order" : 0,
							"parameter_units" : "",
							"parameter_speedlim" : 0,
							"parameter_steps" : 0,
							"parameter_enum" : [ "0", "1" ],
							"parameter_exponent" : 1.0,
							"parameter_unitstyle" : 10,
							"parameter_mmax" : 1.0,
							"parameter_mmin" : 0.0,
							"parameter_initial" : [ 0.0 ]
						}

					}

				}

			}
, 			{
				"box" : 				{
					"maxclass" : "live.menu",
					"varname" : "sevenup-loop-choke7",
					"presentation_rect" : [ 222.0, 76.0, 43.0, 15.0 ],
					"numinlets" : 1,
					"patching_rect" : [ 636.0, 710.0, 53.0, 15.0 ],
					"presentation" : 1,
					"numoutlets" : 3,
					"parameter_enable" : 1,
					"outlettype" : [ "", "", "float" ],
					"id" : "obj-37",
					"pictures" : [  ],
					"saved_attribute_attributes" : 					{
						"valueof" : 						{
							"parameter_type" : 2,
							"parameter_initial_enable" : 1,
							"parameter_shortname" : "live.menu",
							"parameter_invisible" : 1,
							"parameter_modmax" : 127.0,
							"parameter_annotation_name" : "",
							"parameter_longname" : "sevenup-loop-choke7",
							"parameter_modmin" : 0.0,
							"parameter_linknames" : 1,
							"parameter_modmode" : 0,
							"parameter_info" : "",
							"parameter_order" : 0,
							"parameter_units" : "",
							"parameter_speedlim" : 0,
							"parameter_steps" : 0,
							"parameter_enum" : [ "Nope", "1", "2", "3", "4", "5", "6", "7" ],
							"parameter_exponent" : 1.0,
							"parameter_unitstyle" : 10,
							"parameter_mmax" : 127.0,
							"parameter_mmin" : 0.0,
							"parameter_initial" : [ 0.0 ]
						}

					}

				}

			}
, 			{
				"box" : 				{
					"maxclass" : "comment",
					"text" : "Loop 7",
					"presentation_rect" : [ 182.0, 75.0, 41.0, 18.0 ],
					"fontface" : 1,
					"fontsize" : 10.0,
					"numinlets" : 1,
					"patching_rect" : [ 571.0, 709.0, 58.0, 18.0 ],
					"presentation" : 1,
					"numoutlets" : 0,
					"id" : "obj-38",
					"fontname" : "Arial"
				}

			}
, 			{
				"box" : 				{
					"maxclass" : "comment",
					"text" : "Loop 3",
					"presentation_rect" : [ 5.0, 74.0, 41.0, 18.0 ],
					"fontface" : 1,
					"fontsize" : 10.0,
					"numinlets" : 1,
					"patching_rect" : [ 195.0, 708.0, 75.0, 18.0 ],
					"presentation" : 1,
					"numoutlets" : 0,
					"id" : "obj-39",
					"fontname" : "Arial"
				}

			}
, 			{
				"box" : 				{
					"maxclass" : "live.menu",
					"varname" : "sevenup-loop-choke3",
					"presentation_rect" : [ 46.0, 74.0, 41.0, 15.0 ],
					"numinlets" : 1,
					"patching_rect" : [ 288.0, 704.0, 71.0, 15.0 ],
					"presentation" : 1,
					"numoutlets" : 3,
					"parameter_enable" : 1,
					"outlettype" : [ "", "", "float" ],
					"id" : "obj-40",
					"pictures" : [  ],
					"saved_attribute_attributes" : 					{
						"valueof" : 						{
							"parameter_type" : 2,
							"parameter_initial_enable" : 1,
							"parameter_shortname" : "live.menu",
							"parameter_invisible" : 1,
							"parameter_modmax" : 127.0,
							"parameter_annotation_name" : "",
							"parameter_longname" : "sevenup-loop-choke3",
							"parameter_modmin" : 0.0,
							"parameter_linknames" : 1,
							"parameter_modmode" : 0,
							"parameter_info" : "",
							"parameter_order" : 0,
							"parameter_units" : "",
							"parameter_speedlim" : 0,
							"parameter_steps" : 0,
							"parameter_enum" : [ "Nope", "1", "2", "3", "4", "5", "6", "7" ],
							"parameter_exponent" : 1.0,
							"parameter_unitstyle" : 10,
							"parameter_mmax" : 127.0,
							"parameter_mmin" : 0.0,
							"parameter_initial" : [ 0.0 ]
						}

					}

				}

			}
, 			{
				"box" : 				{
					"maxclass" : "live.menu",
					"varname" : "sevenup-loop-choke6",
					"presentation_rect" : [ 222.0, 56.0, 43.0, 15.0 ],
					"numinlets" : 1,
					"patching_rect" : [ 636.0, 690.0, 53.0, 15.0 ],
					"presentation" : 1,
					"numoutlets" : 3,
					"parameter_enable" : 1,
					"outlettype" : [ "", "", "float" ],
					"id" : "obj-33",
					"pictures" : [  ],
					"saved_attribute_attributes" : 					{
						"valueof" : 						{
							"parameter_type" : 2,
							"parameter_initial_enable" : 1,
							"parameter_shortname" : "live.menu",
							"parameter_invisible" : 1,
							"parameter_modmax" : 127.0,
							"parameter_annotation_name" : "",
							"parameter_longname" : "sevenup-loop-choke6",
							"parameter_modmin" : 0.0,
							"parameter_linknames" : 1,
							"parameter_modmode" : 0,
							"parameter_info" : "",
							"parameter_order" : 0,
							"parameter_units" : "",
							"parameter_speedlim" : 0,
							"parameter_steps" : 0,
							"parameter_enum" : [ "Nope", "1", "2", "3", "4", "5", "6", "7" ],
							"parameter_exponent" : 1.0,
							"parameter_unitstyle" : 10,
							"parameter_mmax" : 127.0,
							"parameter_mmin" : 0.0,
							"parameter_initial" : [ 0.0 ]
						}

					}

				}

			}
, 			{
				"box" : 				{
					"maxclass" : "comment",
					"text" : "Loop 6",
					"presentation_rect" : [ 182.0, 56.0, 41.0, 18.0 ],
					"fontface" : 1,
					"fontsize" : 10.0,
					"numinlets" : 1,
					"patching_rect" : [ 571.0, 688.0, 58.0, 18.0 ],
					"presentation" : 1,
					"numoutlets" : 0,
					"id" : "obj-34",
					"fontname" : "Arial"
				}

			}
, 			{
				"box" : 				{
					"maxclass" : "comment",
					"text" : "Loop 2",
					"presentation_rect" : [ 5.0, 54.0, 41.0, 18.0 ],
					"fontface" : 1,
					"fontsize" : 10.0,
					"numinlets" : 1,
					"patching_rect" : [ 198.0, 686.0, 75.0, 18.0 ],
					"presentation" : 1,
					"numoutlets" : 0,
					"id" : "obj-35",
					"fontname" : "Arial"
				}

			}
, 			{
				"box" : 				{
					"maxclass" : "live.menu",
					"varname" : "sevenup-loop-choke2",
					"presentation_rect" : [ 46.0, 54.0, 41.0, 15.0 ],
					"numinlets" : 1,
					"patching_rect" : [ 288.0, 684.0, 71.0, 15.0 ],
					"presentation" : 1,
					"numoutlets" : 3,
					"parameter_enable" : 1,
					"outlettype" : [ "", "", "float" ],
					"id" : "obj-36",
					"pictures" : [  ],
					"saved_attribute_attributes" : 					{
						"valueof" : 						{
							"parameter_type" : 2,
							"parameter_initial_enable" : 1,
							"parameter_shortname" : "live.menu",
							"parameter_invisible" : 1,
							"parameter_modmax" : 127.0,
							"parameter_annotation_name" : "",
							"parameter_longname" : "sevenup-loop-choke2",
							"parameter_modmin" : 0.0,
							"parameter_linknames" : 1,
							"parameter_modmode" : 0,
							"parameter_info" : "",
							"parameter_order" : 0,
							"parameter_units" : "",
							"parameter_speedlim" : 0,
							"parameter_steps" : 0,
							"parameter_enum" : [ "Nope", "1", "2", "3", "4", "5", "6", "7" ],
							"parameter_exponent" : 1.0,
							"parameter_unitstyle" : 10,
							"parameter_mmax" : 127.0,
							"parameter_mmin" : 0.0,
							"parameter_initial" : [ 0.0 ]
						}

					}

				}

			}
, 			{
				"box" : 				{
					"maxclass" : "live.menu",
					"varname" : "sevenup-loop-choke5",
					"presentation_rect" : [ 222.0, 36.0, 43.0, 15.0 ],
					"numinlets" : 1,
					"patching_rect" : [ 636.0, 670.0, 53.0, 15.0 ],
					"presentation" : 1,
					"numoutlets" : 3,
					"parameter_enable" : 1,
					"outlettype" : [ "", "", "float" ],
					"id" : "obj-32",
					"pictures" : [  ],
					"saved_attribute_attributes" : 					{
						"valueof" : 						{
							"parameter_type" : 2,
							"parameter_initial_enable" : 1,
							"parameter_shortname" : "live.menu",
							"parameter_invisible" : 1,
							"parameter_modmax" : 127.0,
							"parameter_annotation_name" : "",
							"parameter_longname" : "sevenup-loop-choke5",
							"parameter_modmin" : 0.0,
							"parameter_linknames" : 1,
							"parameter_modmode" : 0,
							"parameter_info" : "",
							"parameter_order" : 0,
							"parameter_units" : "",
							"parameter_speedlim" : 0,
							"parameter_steps" : 0,
							"parameter_enum" : [ "Nope", "1", "2", "3", "4", "5", "6", "7" ],
							"parameter_exponent" : 1.0,
							"parameter_unitstyle" : 10,
							"parameter_mmax" : 127.0,
							"parameter_mmin" : 0.0,
							"parameter_initial" : [ 0.0 ]
						}

					}

				}

			}
, 			{
				"box" : 				{
					"maxclass" : "comment",
					"text" : "Loop 5",
					"presentation_rect" : [ 182.0, 36.0, 41.0, 18.0 ],
					"fontface" : 1,
					"fontsize" : 10.0,
					"numinlets" : 1,
					"patching_rect" : [ 571.0, 667.0, 58.0, 18.0 ],
					"presentation" : 1,
					"numoutlets" : 0,
					"id" : "obj-31",
					"fontname" : "Arial"
				}

			}
, 			{
				"box" : 				{
					"maxclass" : "comment",
					"text" : "Loop 1",
					"presentation_rect" : [ 5.0, 34.0, 41.0, 18.0 ],
					"fontface" : 1,
					"fontsize" : 10.0,
					"numinlets" : 1,
					"patching_rect" : [ 198.0, 666.0, 75.0, 18.0 ],
					"presentation" : 1,
					"numoutlets" : 0,
					"id" : "obj-10",
					"fontname" : "Arial"
				}

			}
, 			{
				"box" : 				{
					"maxclass" : "live.menu",
					"varname" : "sevenup-choke-mode1",
					"presentation_rect" : [ 46.0, 35.0, 41.0, 15.0 ],
					"numinlets" : 1,
					"patching_rect" : [ 288.0, 664.0, 71.0, 15.0 ],
					"presentation" : 1,
					"numoutlets" : 3,
					"parameter_enable" : 1,
					"outlettype" : [ "", "", "float" ],
					"id" : "obj-11",
					"pictures" : [  ],
					"saved_attribute_attributes" : 					{
						"valueof" : 						{
							"parameter_type" : 2,
							"parameter_initial_enable" : 1,
							"parameter_shortname" : "live.menu",
							"parameter_invisible" : 1,
							"parameter_modmax" : 127.0,
							"parameter_annotation_name" : "",
							"parameter_longname" : "sevenup-choke-mode1",
							"parameter_modmin" : 0.0,
							"parameter_linknames" : 1,
							"parameter_modmode" : 0,
							"parameter_info" : "",
							"parameter_order" : 0,
							"parameter_units" : "",
							"parameter_speedlim" : 0,
							"parameter_steps" : 0,
							"parameter_enum" : [ "Nope", "1", "2", "3", "4", "5", "6", "7" ],
							"parameter_exponent" : 1.0,
							"parameter_unitstyle" : 10,
							"parameter_mmax" : 127.0,
							"parameter_mmin" : 0.0,
							"parameter_initial" : [ 0.0 ]
						}

					}

				}

			}
 ],
		"lines" : [ 			{
				"patchline" : 				{
					"source" : [ "obj-5", 0 ],
					"destination" : [ "obj-4", 0 ],
					"hidden" : 0,
					"midpoints" : [  ]
				}

			}
, 			{
				"patchline" : 				{
					"source" : [ "obj-83", 1 ],
					"destination" : [ "obj-96", 0 ],
					"hidden" : 0,
					"midpoints" : [  ]
				}

			}
, 			{
				"patchline" : 				{
					"source" : [ "obj-84", 1 ],
					"destination" : [ "obj-97", 0 ],
					"hidden" : 0,
					"midpoints" : [  ]
				}

			}
, 			{
				"patchline" : 				{
					"source" : [ "obj-85", 1 ],
					"destination" : [ "obj-98", 0 ],
					"hidden" : 0,
					"midpoints" : [  ]
				}

			}
, 			{
				"patchline" : 				{
					"source" : [ "obj-77", 1 ],
					"destination" : [ "obj-99", 0 ],
					"hidden" : 0,
					"midpoints" : [  ]
				}

			}
, 			{
				"patchline" : 				{
					"source" : [ "obj-53", 1 ],
					"destination" : [ "obj-100", 0 ],
					"hidden" : 0,
					"midpoints" : [  ]
				}

			}
, 			{
				"patchline" : 				{
					"source" : [ "obj-9", 1 ],
					"destination" : [ "obj-101", 0 ],
					"hidden" : 0,
					"midpoints" : [  ]
				}

			}
, 			{
				"patchline" : 				{
					"source" : [ "obj-8", 1 ],
					"destination" : [ "obj-102", 0 ],
					"hidden" : 0,
					"midpoints" : [  ]
				}

			}
, 			{
				"patchline" : 				{
					"source" : [ "obj-95", 0 ],
					"destination" : [ "obj-12", 0 ],
					"hidden" : 0,
					"midpoints" : [  ]
				}

			}
, 			{
				"patchline" : 				{
					"source" : [ "obj-6", 0 ],
					"destination" : [ "obj-15", 0 ],
					"hidden" : 0,
					"midpoints" : [  ]
				}

			}
, 			{
				"patchline" : 				{
					"source" : [ "obj-15", 0 ],
					"destination" : [ "obj-12", 0 ],
					"hidden" : 0,
					"midpoints" : [  ]
				}

			}
, 			{
				"patchline" : 				{
					"source" : [ "obj-102", 0 ],
					"destination" : [ "obj-95", 0 ],
					"hidden" : 0,
					"midpoints" : [  ]
				}

			}
, 			{
				"patchline" : 				{
					"source" : [ "obj-101", 0 ],
					"destination" : [ "obj-95", 0 ],
					"hidden" : 0,
					"midpoints" : [  ]
				}

			}
, 			{
				"patchline" : 				{
					"source" : [ "obj-100", 0 ],
					"destination" : [ "obj-95", 0 ],
					"hidden" : 0,
					"midpoints" : [  ]
				}

			}
, 			{
				"patchline" : 				{
					"source" : [ "obj-99", 0 ],
					"destination" : [ "obj-95", 0 ],
					"hidden" : 0,
					"midpoints" : [  ]
				}

			}
, 			{
				"patchline" : 				{
					"source" : [ "obj-98", 0 ],
					"destination" : [ "obj-95", 0 ],
					"hidden" : 0,
					"midpoints" : [  ]
				}

			}
, 			{
				"patchline" : 				{
					"source" : [ "obj-97", 0 ],
					"destination" : [ "obj-95", 0 ],
					"hidden" : 0,
					"midpoints" : [  ]
				}

			}
, 			{
				"patchline" : 				{
					"source" : [ "obj-96", 0 ],
					"destination" : [ "obj-95", 0 ],
					"hidden" : 0,
					"midpoints" : [  ]
				}

			}
, 			{
				"patchline" : 				{
					"source" : [ "obj-30", 0 ],
					"destination" : [ "obj-12", 0 ],
					"hidden" : 0,
					"midpoints" : [  ]
				}

			}
, 			{
				"patchline" : 				{
					"source" : [ "obj-48", 0 ],
					"destination" : [ "obj-30", 0 ],
					"hidden" : 0,
					"midpoints" : [  ]
				}

			}
, 			{
				"patchline" : 				{
					"source" : [ "obj-47", 0 ],
					"destination" : [ "obj-30", 0 ],
					"hidden" : 0,
					"midpoints" : [  ]
				}

			}
, 			{
				"patchline" : 				{
					"source" : [ "obj-45", 0 ],
					"destination" : [ "obj-30", 0 ],
					"hidden" : 0,
					"midpoints" : [  ]
				}

			}
, 			{
				"patchline" : 				{
					"source" : [ "obj-44", 0 ],
					"destination" : [ "obj-30", 0 ],
					"hidden" : 0,
					"midpoints" : [  ]
				}

			}
, 			{
				"patchline" : 				{
					"source" : [ "obj-43", 0 ],
					"destination" : [ "obj-30", 0 ],
					"hidden" : 0,
					"midpoints" : [  ]
				}

			}
, 			{
				"patchline" : 				{
					"source" : [ "obj-42", 0 ],
					"destination" : [ "obj-30", 0 ],
					"hidden" : 0,
					"midpoints" : [  ]
				}

			}
, 			{
				"patchline" : 				{
					"source" : [ "obj-41", 0 ],
					"destination" : [ "obj-30", 0 ],
					"hidden" : 0,
					"midpoints" : [  ]
				}

			}
, 			{
				"patchline" : 				{
					"source" : [ "obj-46", 0 ],
					"destination" : [ "obj-12", 0 ],
					"hidden" : 0,
					"midpoints" : [  ]
				}

			}
, 			{
				"patchline" : 				{
					"source" : [ "obj-23", 0 ],
					"destination" : [ "obj-46", 0 ],
					"hidden" : 0,
					"midpoints" : [  ]
				}

			}
, 			{
				"patchline" : 				{
					"source" : [ "obj-24", 0 ],
					"destination" : [ "obj-46", 0 ],
					"hidden" : 0,
					"midpoints" : [  ]
				}

			}
, 			{
				"patchline" : 				{
					"source" : [ "obj-25", 0 ],
					"destination" : [ "obj-46", 0 ],
					"hidden" : 0,
					"midpoints" : [  ]
				}

			}
, 			{
				"patchline" : 				{
					"source" : [ "obj-26", 0 ],
					"destination" : [ "obj-46", 0 ],
					"hidden" : 0,
					"midpoints" : [  ]
				}

			}
, 			{
				"patchline" : 				{
					"source" : [ "obj-27", 0 ],
					"destination" : [ "obj-46", 0 ],
					"hidden" : 0,
					"midpoints" : [  ]
				}

			}
, 			{
				"patchline" : 				{
					"source" : [ "obj-28", 0 ],
					"destination" : [ "obj-46", 0 ],
					"hidden" : 0,
					"midpoints" : [  ]
				}

			}
, 			{
				"patchline" : 				{
					"source" : [ "obj-29", 0 ],
					"destination" : [ "obj-46", 0 ],
					"hidden" : 0,
					"midpoints" : [  ]
				}

			}
, 			{
				"patchline" : 				{
					"source" : [ "obj-49", 3 ],
					"destination" : [ "obj-94", 0 ],
					"hidden" : 0,
					"midpoints" : [  ]
				}

			}
, 			{
				"patchline" : 				{
					"source" : [ "obj-94", 6 ],
					"destination" : [ "obj-87", 0 ],
					"hidden" : 0,
					"midpoints" : [  ]
				}

			}
, 			{
				"patchline" : 				{
					"source" : [ "obj-94", 5 ],
					"destination" : [ "obj-88", 0 ],
					"hidden" : 0,
					"midpoints" : [  ]
				}

			}
, 			{
				"patchline" : 				{
					"source" : [ "obj-94", 4 ],
					"destination" : [ "obj-89", 0 ],
					"hidden" : 0,
					"midpoints" : [  ]
				}

			}
, 			{
				"patchline" : 				{
					"source" : [ "obj-94", 3 ],
					"destination" : [ "obj-90", 0 ],
					"hidden" : 0,
					"midpoints" : [  ]
				}

			}
, 			{
				"patchline" : 				{
					"source" : [ "obj-94", 2 ],
					"destination" : [ "obj-91", 0 ],
					"hidden" : 0,
					"midpoints" : [  ]
				}

			}
, 			{
				"patchline" : 				{
					"source" : [ "obj-94", 1 ],
					"destination" : [ "obj-92", 0 ],
					"hidden" : 0,
					"midpoints" : [  ]
				}

			}
, 			{
				"patchline" : 				{
					"source" : [ "obj-94", 0 ],
					"destination" : [ "obj-93", 0 ],
					"hidden" : 0,
					"midpoints" : [  ]
				}

			}
, 			{
				"patchline" : 				{
					"source" : [ "obj-49", 2 ],
					"destination" : [ "obj-76", 0 ],
					"hidden" : 0,
					"midpoints" : [  ]
				}

			}
, 			{
				"patchline" : 				{
					"source" : [ "obj-49", 1 ],
					"destination" : [ "obj-61", 0 ],
					"hidden" : 0,
					"midpoints" : [  ]
				}

			}
, 			{
				"patchline" : 				{
					"source" : [ "obj-49", 0 ],
					"destination" : [ "obj-60", 0 ],
					"hidden" : 0,
					"midpoints" : [  ]
				}

			}
, 			{
				"patchline" : 				{
					"source" : [ "obj-51", 0 ],
					"destination" : [ "obj-49", 0 ],
					"hidden" : 0,
					"midpoints" : [  ]
				}

			}
, 			{
				"patchline" : 				{
					"source" : [ "obj-61", 6 ],
					"destination" : [ "obj-68", 0 ],
					"hidden" : 0,
					"midpoints" : [  ]
				}

			}
, 			{
				"patchline" : 				{
					"source" : [ "obj-61", 5 ],
					"destination" : [ "obj-67", 0 ],
					"hidden" : 0,
					"midpoints" : [  ]
				}

			}
, 			{
				"patchline" : 				{
					"source" : [ "obj-61", 4 ],
					"destination" : [ "obj-66", 0 ],
					"hidden" : 0,
					"midpoints" : [  ]
				}

			}
, 			{
				"patchline" : 				{
					"source" : [ "obj-61", 3 ],
					"destination" : [ "obj-65", 0 ],
					"hidden" : 0,
					"midpoints" : [  ]
				}

			}
, 			{
				"patchline" : 				{
					"source" : [ "obj-61", 2 ],
					"destination" : [ "obj-64", 0 ],
					"hidden" : 0,
					"midpoints" : [  ]
				}

			}
, 			{
				"patchline" : 				{
					"source" : [ "obj-61", 1 ],
					"destination" : [ "obj-63", 0 ],
					"hidden" : 0,
					"midpoints" : [  ]
				}

			}
, 			{
				"patchline" : 				{
					"source" : [ "obj-61", 0 ],
					"destination" : [ "obj-62", 0 ],
					"hidden" : 0,
					"midpoints" : [  ]
				}

			}
, 			{
				"patchline" : 				{
					"source" : [ "obj-20", 0 ],
					"destination" : [ "obj-41", 0 ],
					"hidden" : 0,
					"midpoints" : [  ]
				}

			}
, 			{
				"patchline" : 				{
					"source" : [ "obj-21", 0 ],
					"destination" : [ "obj-42", 0 ],
					"hidden" : 0,
					"midpoints" : [  ]
				}

			}
, 			{
				"patchline" : 				{
					"source" : [ "obj-22", 0 ],
					"destination" : [ "obj-43", 0 ],
					"hidden" : 0,
					"midpoints" : [  ]
				}

			}
, 			{
				"patchline" : 				{
					"source" : [ "obj-3", 0 ],
					"destination" : [ "obj-44", 0 ],
					"hidden" : 0,
					"midpoints" : [  ]
				}

			}
, 			{
				"patchline" : 				{
					"source" : [ "obj-13", 0 ],
					"destination" : [ "obj-45", 0 ],
					"hidden" : 0,
					"midpoints" : [  ]
				}

			}
, 			{
				"patchline" : 				{
					"source" : [ "obj-18", 0 ],
					"destination" : [ "obj-47", 0 ],
					"hidden" : 0,
					"midpoints" : [  ]
				}

			}
, 			{
				"patchline" : 				{
					"source" : [ "obj-19", 0 ],
					"destination" : [ "obj-48", 0 ],
					"hidden" : 0,
					"midpoints" : [  ]
				}

			}
, 			{
				"patchline" : 				{
					"source" : [ "obj-37", 0 ],
					"destination" : [ "obj-29", 0 ],
					"hidden" : 0,
					"midpoints" : [  ]
				}

			}
, 			{
				"patchline" : 				{
					"source" : [ "obj-33", 0 ],
					"destination" : [ "obj-28", 0 ],
					"hidden" : 0,
					"midpoints" : [  ]
				}

			}
, 			{
				"patchline" : 				{
					"source" : [ "obj-32", 0 ],
					"destination" : [ "obj-27", 0 ],
					"hidden" : 0,
					"midpoints" : [  ]
				}

			}
, 			{
				"patchline" : 				{
					"source" : [ "obj-2", 0 ],
					"destination" : [ "obj-26", 0 ],
					"hidden" : 0,
					"midpoints" : [  ]
				}

			}
, 			{
				"patchline" : 				{
					"source" : [ "obj-40", 0 ],
					"destination" : [ "obj-25", 0 ],
					"hidden" : 0,
					"midpoints" : [  ]
				}

			}
, 			{
				"patchline" : 				{
					"source" : [ "obj-36", 0 ],
					"destination" : [ "obj-24", 0 ],
					"hidden" : 0,
					"midpoints" : [  ]
				}

			}
, 			{
				"patchline" : 				{
					"source" : [ "obj-11", 0 ],
					"destination" : [ "obj-23", 0 ],
					"hidden" : 0,
					"midpoints" : [  ]
				}

			}
, 			{
				"patchline" : 				{
					"source" : [ "obj-76", 0 ],
					"destination" : [ "obj-75", 0 ],
					"hidden" : 0,
					"midpoints" : [  ]
				}

			}
, 			{
				"patchline" : 				{
					"source" : [ "obj-76", 1 ],
					"destination" : [ "obj-74", 0 ],
					"hidden" : 0,
					"midpoints" : [  ]
				}

			}
, 			{
				"patchline" : 				{
					"source" : [ "obj-76", 2 ],
					"destination" : [ "obj-73", 0 ],
					"hidden" : 0,
					"midpoints" : [  ]
				}

			}
, 			{
				"patchline" : 				{
					"source" : [ "obj-76", 3 ],
					"destination" : [ "obj-72", 0 ],
					"hidden" : 0,
					"midpoints" : [  ]
				}

			}
, 			{
				"patchline" : 				{
					"source" : [ "obj-76", 4 ],
					"destination" : [ "obj-71", 0 ],
					"hidden" : 0,
					"midpoints" : [  ]
				}

			}
, 			{
				"patchline" : 				{
					"source" : [ "obj-76", 5 ],
					"destination" : [ "obj-70", 0 ],
					"hidden" : 0,
					"midpoints" : [  ]
				}

			}
, 			{
				"patchline" : 				{
					"source" : [ "obj-76", 6 ],
					"destination" : [ "obj-69", 0 ],
					"hidden" : 0,
					"midpoints" : [  ]
				}

			}
, 			{
				"patchline" : 				{
					"source" : [ "obj-7", 0 ],
					"destination" : [ "obj-5", 0 ],
					"hidden" : 0,
					"midpoints" : [  ]
				}

			}
, 			{
				"patchline" : 				{
					"source" : [ "obj-62", 0 ],
					"destination" : [ "obj-14", 0 ],
					"hidden" : 0,
					"midpoints" : [  ]
				}

			}
, 			{
				"patchline" : 				{
					"source" : [ "obj-63", 0 ],
					"destination" : [ "obj-16", 0 ],
					"hidden" : 0,
					"midpoints" : [  ]
				}

			}
, 			{
				"patchline" : 				{
					"source" : [ "obj-64", 0 ],
					"destination" : [ "obj-17", 0 ],
					"hidden" : 0,
					"midpoints" : [  ]
				}

			}
, 			{
				"patchline" : 				{
					"source" : [ "obj-65", 0 ],
					"destination" : [ "obj-50", 0 ],
					"hidden" : 0,
					"midpoints" : [  ]
				}

			}
, 			{
				"patchline" : 				{
					"source" : [ "obj-66", 0 ],
					"destination" : [ "obj-55", 0 ],
					"hidden" : 0,
					"midpoints" : [  ]
				}

			}
, 			{
				"patchline" : 				{
					"source" : [ "obj-67", 0 ],
					"destination" : [ "obj-79", 0 ],
					"hidden" : 0,
					"midpoints" : [  ]
				}

			}
, 			{
				"patchline" : 				{
					"source" : [ "obj-68", 0 ],
					"destination" : [ "obj-80", 0 ],
					"hidden" : 0,
					"midpoints" : [  ]
				}

			}
, 			{
				"patchline" : 				{
					"source" : [ "obj-75", 0 ],
					"destination" : [ "obj-78", 0 ],
					"hidden" : 0,
					"midpoints" : [  ]
				}

			}
, 			{
				"patchline" : 				{
					"source" : [ "obj-74", 0 ],
					"destination" : [ "obj-59", 0 ],
					"hidden" : 0,
					"midpoints" : [  ]
				}

			}
, 			{
				"patchline" : 				{
					"source" : [ "obj-73", 0 ],
					"destination" : [ "obj-58", 0 ],
					"hidden" : 0,
					"midpoints" : [  ]
				}

			}
, 			{
				"patchline" : 				{
					"source" : [ "obj-72", 0 ],
					"destination" : [ "obj-57", 0 ],
					"hidden" : 0,
					"midpoints" : [  ]
				}

			}
, 			{
				"patchline" : 				{
					"source" : [ "obj-71", 0 ],
					"destination" : [ "obj-56", 0 ],
					"hidden" : 0,
					"midpoints" : [  ]
				}

			}
, 			{
				"patchline" : 				{
					"source" : [ "obj-70", 0 ],
					"destination" : [ "obj-81", 0 ],
					"hidden" : 0,
					"midpoints" : [  ]
				}

			}
, 			{
				"patchline" : 				{
					"source" : [ "obj-69", 0 ],
					"destination" : [ "obj-82", 0 ],
					"hidden" : 0,
					"midpoints" : [  ]
				}

			}
, 			{
				"patchline" : 				{
					"source" : [ "obj-93", 0 ],
					"destination" : [ "obj-108", 0 ],
					"hidden" : 0,
					"midpoints" : [  ]
				}

			}
, 			{
				"patchline" : 				{
					"source" : [ "obj-92", 0 ],
					"destination" : [ "obj-107", 0 ],
					"hidden" : 0,
					"midpoints" : [  ]
				}

			}
, 			{
				"patchline" : 				{
					"source" : [ "obj-91", 0 ],
					"destination" : [ "obj-106", 0 ],
					"hidden" : 0,
					"midpoints" : [  ]
				}

			}
, 			{
				"patchline" : 				{
					"source" : [ "obj-90", 0 ],
					"destination" : [ "obj-105", 0 ],
					"hidden" : 0,
					"midpoints" : [  ]
				}

			}
, 			{
				"patchline" : 				{
					"source" : [ "obj-89", 0 ],
					"destination" : [ "obj-104", 0 ],
					"hidden" : 0,
					"midpoints" : [  ]
				}

			}
, 			{
				"patchline" : 				{
					"source" : [ "obj-88", 0 ],
					"destination" : [ "obj-103", 0 ],
					"hidden" : 0,
					"midpoints" : [  ]
				}

			}
, 			{
				"patchline" : 				{
					"source" : [ "obj-87", 0 ],
					"destination" : [ "obj-86", 0 ],
					"hidden" : 0,
					"midpoints" : [  ]
				}

			}
, 			{
				"patchline" : 				{
					"source" : [ "obj-60", 0 ],
					"destination" : [ "obj-109", 0 ],
					"hidden" : 0,
					"midpoints" : [  ]
				}

			}
, 			{
				"patchline" : 				{
					"source" : [ "obj-4", 0 ],
					"destination" : [ "obj-109", 0 ],
					"hidden" : 0,
					"midpoints" : [  ]
				}

			}
, 			{
				"patchline" : 				{
					"source" : [ "obj-4", 0 ],
					"destination" : [ "obj-14", 0 ],
					"hidden" : 0,
					"midpoints" : [  ]
				}

			}
, 			{
				"patchline" : 				{
					"source" : [ "obj-4", 0 ],
					"destination" : [ "obj-16", 0 ],
					"hidden" : 0,
					"midpoints" : [  ]
				}

			}
, 			{
				"patchline" : 				{
					"source" : [ "obj-4", 0 ],
					"destination" : [ "obj-17", 0 ],
					"hidden" : 0,
					"midpoints" : [  ]
				}

			}
, 			{
				"patchline" : 				{
					"source" : [ "obj-4", 0 ],
					"destination" : [ "obj-50", 0 ],
					"hidden" : 0,
					"midpoints" : [  ]
				}

			}
, 			{
				"patchline" : 				{
					"source" : [ "obj-4", 0 ],
					"destination" : [ "obj-55", 0 ],
					"hidden" : 0,
					"midpoints" : [  ]
				}

			}
, 			{
				"patchline" : 				{
					"source" : [ "obj-4", 0 ],
					"destination" : [ "obj-79", 0 ],
					"hidden" : 0,
					"midpoints" : [  ]
				}

			}
, 			{
				"patchline" : 				{
					"source" : [ "obj-4", 0 ],
					"destination" : [ "obj-80", 0 ],
					"hidden" : 0,
					"midpoints" : [  ]
				}

			}
, 			{
				"patchline" : 				{
					"source" : [ "obj-112", 0 ],
					"destination" : [ "obj-111", 0 ],
					"hidden" : 0,
					"midpoints" : [  ]
				}

			}
, 			{
				"patchline" : 				{
					"source" : [ "obj-111", 0 ],
					"destination" : [ "obj-110", 0 ],
					"hidden" : 0,
					"midpoints" : [  ]
				}

			}
, 			{
				"patchline" : 				{
					"source" : [ "obj-110", 0 ],
					"destination" : [ "obj-78", 0 ],
					"hidden" : 0,
					"midpoints" : [  ]
				}

			}
, 			{
				"patchline" : 				{
					"source" : [ "obj-110", 0 ],
					"destination" : [ "obj-59", 0 ],
					"hidden" : 0,
					"midpoints" : [  ]
				}

			}
, 			{
				"patchline" : 				{
					"source" : [ "obj-110", 0 ],
					"destination" : [ "obj-58", 0 ],
					"hidden" : 0,
					"midpoints" : [  ]
				}

			}
, 			{
				"patchline" : 				{
					"source" : [ "obj-110", 0 ],
					"destination" : [ "obj-57", 0 ],
					"hidden" : 0,
					"midpoints" : [  ]
				}

			}
, 			{
				"patchline" : 				{
					"source" : [ "obj-110", 0 ],
					"destination" : [ "obj-56", 0 ],
					"hidden" : 0,
					"midpoints" : [  ]
				}

			}
, 			{
				"patchline" : 				{
					"source" : [ "obj-110", 0 ],
					"destination" : [ "obj-81", 0 ],
					"hidden" : 0,
					"midpoints" : [  ]
				}

			}
, 			{
				"patchline" : 				{
					"source" : [ "obj-110", 0 ],
					"destination" : [ "obj-82", 0 ],
					"hidden" : 0,
					"midpoints" : [  ]
				}

			}
, 			{
				"patchline" : 				{
					"source" : [ "obj-114", 0 ],
					"destination" : [ "obj-113", 0 ],
					"hidden" : 0,
					"midpoints" : [  ]
				}

			}
, 			{
				"patchline" : 				{
					"source" : [ "obj-115", 0 ],
					"destination" : [ "obj-114", 0 ],
					"hidden" : 0,
					"midpoints" : [  ]
				}

			}
, 			{
				"patchline" : 				{
					"source" : [ "obj-113", 0 ],
					"destination" : [ "obj-108", 0 ],
					"hidden" : 0,
					"midpoints" : [  ]
				}

			}
, 			{
				"patchline" : 				{
					"source" : [ "obj-113", 0 ],
					"destination" : [ "obj-107", 0 ],
					"hidden" : 0,
					"midpoints" : [  ]
				}

			}
, 			{
				"patchline" : 				{
					"source" : [ "obj-113", 0 ],
					"destination" : [ "obj-106", 0 ],
					"hidden" : 0,
					"midpoints" : [  ]
				}

			}
, 			{
				"patchline" : 				{
					"source" : [ "obj-113", 0 ],
					"destination" : [ "obj-105", 0 ],
					"hidden" : 0,
					"midpoints" : [  ]
				}

			}
, 			{
				"patchline" : 				{
					"source" : [ "obj-113", 0 ],
					"destination" : [ "obj-104", 0 ],
					"hidden" : 0,
					"midpoints" : [  ]
				}

			}
, 			{
				"patchline" : 				{
					"source" : [ "obj-113", 0 ],
					"destination" : [ "obj-103", 0 ],
					"hidden" : 0,
					"midpoints" : [  ]
				}

			}
, 			{
				"patchline" : 				{
					"source" : [ "obj-113", 0 ],
					"destination" : [ "obj-86", 0 ],
					"hidden" : 0,
					"midpoints" : [  ]
				}

			}
 ],
		"parameters" : 		{
			"obj-53" : [ "sevenup-loop-length3", "live.menu", 0 ],
			"obj-20" : [ "sevenup-loop-mode7", "live.menu", 0 ],
			"obj-22" : [ "sevenup-loop-mode5", "live.menu", 0 ],
			"obj-32" : [ "sevenup-loop-choke5", "live.menu", 0 ],
			"obj-83" : [ "sevenup-loop-length7", "live.menu", 0 ],
			"obj-9" : [ "sevenup-loop-length2", "live.menu", 0 ],
			"obj-21" : [ "sevenup-loop-mode6", "live.menu", 0 ],
			"obj-3" : [ "sevenup-loop-mode4", "live.menu", 0 ],
			"obj-2" : [ "sevenup-loop-choke4", "live.menu", 0 ],
			"obj-84" : [ "sevenup-loop-length6", "live.menu", 0 ],
			"obj-37" : [ "sevenup-loop-choke7", "live.menu", 0 ],
			"obj-13" : [ "sevenup-loop-mode3", "live.menu", 0 ],
			"obj-40" : [ "sevenup-loop-choke3", "live.menu", 0 ],
			"obj-85" : [ "sevenup-loop-length5", "live.menu", 0 ],
			"obj-8" : [ "sevenup-loop-length1", "live.menu", 0 ],
			"obj-18" : [ "sevenup-loop-mode2", "live.menu", 0 ],
			"obj-36" : [ "sevenup-loop-choke2", "live.menu", 0 ],
			"obj-11" : [ "sevenup-choke-mode1", "live.menu", 0 ],
			"obj-6" : [ "sevenup-gate-loops", "live.menu", 0 ],
			"obj-77" : [ "sevenup-loop-length4", "live.menu", 0 ],
			"obj-33" : [ "sevenup-loop-choke6", "live.menu", 0 ],
			"obj-19" : [ "sevenup-loop-mode1", "live.menu", 0 ]
		}

	}

}
