{
	"patcher" : 	{
		"fileversion" : 1,
		"rect" : [ 588.0, 500.0, 640.0, 480.0 ],
		"bglocked" : 0,
		"defrect" : [ 588.0, 500.0, 640.0, 480.0 ],
		"openrect" : [ 0.0, 0.0, 0.0, 0.0 ],
		"openinpresentation" : 1,
		"default_fontsize" : 12.0,
		"default_fontface" : 0,
		"default_fontname" : "Arial",
		"gridonopen" : 0,
		"gridsize" : [ 4.0, 4.0 ],
		"gridsnaponopen" : 0,
		"toolbarvisible" : 1,
		"boxanimatetime" : 200,
		"imprint" : 0,
		"enablehscroll" : 1,
		"enablevscroll" : 1,
		"devicewidth" : 0.0,
		"boxes" : [ 			{
				"box" : 				{
					"maxclass" : "newobj",
					"text" : "prepend set",
					"outlettype" : [ "" ],
					"fontsize" : 12.0,
					"numinlets" : 1,
					"patching_rect" : [ 529.0, 231.0, 74.0, 20.0 ],
					"id" : "obj-69",
					"fontname" : "Arial",
					"numoutlets" : 1
				}

			}
, 			{
				"box" : 				{
					"maxclass" : "newobj",
					"text" : "prepend set",
					"outlettype" : [ "" ],
					"fontsize" : 12.0,
					"numinlets" : 1,
					"patching_rect" : [ 514.0, 216.0, 74.0, 20.0 ],
					"id" : "obj-70",
					"fontname" : "Arial",
					"numoutlets" : 1
				}

			}
, 			{
				"box" : 				{
					"maxclass" : "newobj",
					"text" : "prepend set",
					"outlettype" : [ "" ],
					"fontsize" : 12.0,
					"numinlets" : 1,
					"patching_rect" : [ 499.0, 201.0, 74.0, 20.0 ],
					"id" : "obj-71",
					"fontname" : "Arial",
					"numoutlets" : 1
				}

			}
, 			{
				"box" : 				{
					"maxclass" : "newobj",
					"text" : "prepend set",
					"outlettype" : [ "" ],
					"fontsize" : 12.0,
					"numinlets" : 1,
					"patching_rect" : [ 484.0, 186.0, 74.0, 20.0 ],
					"id" : "obj-72",
					"fontname" : "Arial",
					"numoutlets" : 1
				}

			}
, 			{
				"box" : 				{
					"maxclass" : "newobj",
					"text" : "prepend set",
					"outlettype" : [ "" ],
					"fontsize" : 12.0,
					"numinlets" : 1,
					"patching_rect" : [ 469.0, 171.0, 74.0, 20.0 ],
					"id" : "obj-73",
					"fontname" : "Arial",
					"numoutlets" : 1
				}

			}
, 			{
				"box" : 				{
					"maxclass" : "newobj",
					"text" : "prepend set",
					"outlettype" : [ "" ],
					"fontsize" : 12.0,
					"numinlets" : 1,
					"patching_rect" : [ 454.0, 156.0, 74.0, 20.0 ],
					"id" : "obj-74",
					"fontname" : "Arial",
					"numoutlets" : 1
				}

			}
, 			{
				"box" : 				{
					"maxclass" : "newobj",
					"text" : "prepend set",
					"outlettype" : [ "" ],
					"fontsize" : 12.0,
					"numinlets" : 1,
					"patching_rect" : [ 439.0, 141.0, 74.0, 20.0 ],
					"id" : "obj-75",
					"fontname" : "Arial",
					"numoutlets" : 1
				}

			}
, 			{
				"box" : 				{
					"maxclass" : "newobj",
					"text" : "route 0 1 2 3 4 5 6",
					"outlettype" : [ "", "", "", "", "", "", "", "" ],
					"fontsize" : 12.0,
					"numinlets" : 1,
					"patching_rect" : [ 406.0, 105.0, 113.5, 20.0 ],
					"id" : "obj-76",
					"fontname" : "Arial",
					"numoutlets" : 8
				}

			}
, 			{
				"box" : 				{
					"maxclass" : "newobj",
					"text" : "prepend set",
					"outlettype" : [ "" ],
					"fontsize" : 12.0,
					"numinlets" : 1,
					"patching_rect" : [ 358.0, 216.0, 74.0, 20.0 ],
					"id" : "obj-68",
					"fontname" : "Arial",
					"numoutlets" : 1
				}

			}
, 			{
				"box" : 				{
					"maxclass" : "newobj",
					"text" : "prepend set",
					"outlettype" : [ "" ],
					"fontsize" : 12.0,
					"numinlets" : 1,
					"patching_rect" : [ 343.0, 201.0, 74.0, 20.0 ],
					"id" : "obj-67",
					"fontname" : "Arial",
					"numoutlets" : 1
				}

			}
, 			{
				"box" : 				{
					"maxclass" : "newobj",
					"text" : "prepend set",
					"outlettype" : [ "" ],
					"fontsize" : 12.0,
					"numinlets" : 1,
					"patching_rect" : [ 328.0, 186.0, 74.0, 20.0 ],
					"id" : "obj-66",
					"fontname" : "Arial",
					"numoutlets" : 1
				}

			}
, 			{
				"box" : 				{
					"maxclass" : "newobj",
					"text" : "prepend set",
					"outlettype" : [ "" ],
					"fontsize" : 12.0,
					"numinlets" : 1,
					"patching_rect" : [ 313.0, 171.0, 74.0, 20.0 ],
					"id" : "obj-65",
					"fontname" : "Arial",
					"numoutlets" : 1
				}

			}
, 			{
				"box" : 				{
					"maxclass" : "newobj",
					"text" : "prepend set",
					"outlettype" : [ "" ],
					"fontsize" : 12.0,
					"numinlets" : 1,
					"patching_rect" : [ 298.0, 156.0, 74.0, 20.0 ],
					"id" : "obj-64",
					"fontname" : "Arial",
					"numoutlets" : 1
				}

			}
, 			{
				"box" : 				{
					"maxclass" : "newobj",
					"text" : "prepend set",
					"outlettype" : [ "" ],
					"fontsize" : 12.0,
					"numinlets" : 1,
					"patching_rect" : [ 283.0, 141.0, 74.0, 20.0 ],
					"id" : "obj-63",
					"fontname" : "Arial",
					"numoutlets" : 1
				}

			}
, 			{
				"box" : 				{
					"maxclass" : "newobj",
					"text" : "prepend set",
					"outlettype" : [ "" ],
					"fontsize" : 12.0,
					"numinlets" : 1,
					"patching_rect" : [ 268.0, 126.0, 74.0, 20.0 ],
					"id" : "obj-62",
					"fontname" : "Arial",
					"numoutlets" : 1
				}

			}
, 			{
				"box" : 				{
					"maxclass" : "newobj",
					"text" : "route 0 1 2 3 4 5 6",
					"outlettype" : [ "", "", "", "", "", "", "", "" ],
					"fontsize" : 12.0,
					"numinlets" : 1,
					"patching_rect" : [ 288.0, 102.0, 113.5, 20.0 ],
					"id" : "obj-61",
					"fontname" : "Arial",
					"numoutlets" : 8
				}

			}
, 			{
				"box" : 				{
					"maxclass" : "newobj",
					"text" : "prepend set",
					"outlettype" : [ "" ],
					"fontsize" : 12.0,
					"numinlets" : 1,
					"patching_rect" : [ 164.0, 155.0, 74.0, 20.0 ],
					"id" : "obj-60",
					"fontname" : "Arial",
					"numoutlets" : 1
				}

			}
, 			{
				"box" : 				{
					"maxclass" : "newobj",
					"text" : "prepend symbol",
					"outlettype" : [ "" ],
					"fontsize" : 12.0,
					"numinlets" : 1,
					"patching_rect" : [ 94.0, 176.0, 96.0, 20.0 ],
					"id" : "obj-59",
					"fontname" : "Arial",
					"numoutlets" : 1
				}

			}
, 			{
				"box" : 				{
					"maxclass" : "newobj",
					"text" : "prepend set",
					"outlettype" : [ "" ],
					"fontsize" : 12.0,
					"numinlets" : 1,
					"patching_rect" : [ 54.0, 198.0, 74.0, 20.0 ],
					"id" : "obj-58",
					"fontname" : "Arial",
					"numoutlets" : 1
				}

			}
, 			{
				"box" : 				{
					"maxclass" : "newobj",
					"text" : "prepend symbol",
					"outlettype" : [ "" ],
					"fontsize" : 12.0,
					"numinlets" : 1,
					"patching_rect" : [ 34.0, 219.0, 96.0, 20.0 ],
					"id" : "obj-57",
					"fontname" : "Arial",
					"numoutlets" : 1
				}

			}
, 			{
				"box" : 				{
					"maxclass" : "newobj",
					"text" : "prepend _parameter_range",
					"outlettype" : [ "" ],
					"fontsize" : 12.0,
					"numinlets" : 1,
					"patching_rect" : [ 668.0, 109.0, 157.0, 20.0 ],
					"id" : "obj-56",
					"fontname" : "Arial",
					"numoutlets" : 1
				}

			}
, 			{
				"box" : 				{
					"maxclass" : "newobj",
					"text" : "prepend _parameter_range",
					"outlettype" : [ "" ],
					"fontsize" : 12.0,
					"numinlets" : 1,
					"patching_rect" : [ 493.0, 109.0, 157.0, 20.0 ],
					"id" : "obj-55",
					"fontname" : "Arial",
					"numoutlets" : 1
				}

			}
, 			{
				"box" : 				{
					"maxclass" : "comment",
					"text" : "Transpose",
					"fontface" : 1,
					"fontsize" : 10.0,
					"presentation_rect" : [ 195.0, 22.0, 61.0, 18.0 ],
					"numinlets" : 1,
					"patching_rect" : [ 559.0, 336.0, 66.0, 18.0 ],
					"presentation" : 1,
					"id" : "obj-54",
					"fontname" : "Arial",
					"numoutlets" : 0
				}

			}
, 			{
				"box" : 				{
					"maxclass" : "comment",
					"text" : "Toolbar",
					"fontface" : 1,
					"fontsize" : 10.0,
					"presentation_rect" : [ 195.0, 4.0, 50.0, 18.0 ],
					"numinlets" : 1,
					"patching_rect" : [ 560.0, 316.0, 58.0, 18.0 ],
					"presentation" : 1,
					"id" : "obj-53",
					"fontname" : "Arial",
					"numoutlets" : 0
				}

			}
, 			{
				"box" : 				{
					"maxclass" : "inlet",
					"outlettype" : [ "" ],
					"numinlets" : 0,
					"patching_rect" : [ 596.0, 37.0, 25.0, 25.0 ],
					"id" : "obj-52",
					"numoutlets" : 1,
					"comment" : ""
				}

			}
, 			{
				"box" : 				{
					"maxclass" : "inlet",
					"outlettype" : [ "" ],
					"numinlets" : 0,
					"patching_rect" : [ 72.0, 36.0, 25.0, 25.0 ],
					"id" : "obj-51",
					"numoutlets" : 1,
					"comment" : ""
				}

			}
, 			{
				"box" : 				{
					"maxclass" : "newobj",
					"text" : "route scales toolmodes",
					"outlettype" : [ "", "", "" ],
					"fontsize" : 12.0,
					"numinlets" : 1,
					"patching_rect" : [ 602.0, 70.0, 134.0, 20.0 ],
					"id" : "obj-50",
					"fontname" : "Arial",
					"numoutlets" : 3
				}

			}
, 			{
				"box" : 				{
					"maxclass" : "newobj",
					"text" : "route scalename recmode toolmode transpose transposegroup sustainmode",
					"outlettype" : [ "", "", "", "", "", "", "" ],
					"fontsize" : 12.0,
					"numinlets" : 1,
					"patching_rect" : [ 70.0, 72.0, 416.0, 20.0 ],
					"id" : "obj-49",
					"fontname" : "Arial",
					"numoutlets" : 7
				}

			}
, 			{
				"box" : 				{
					"maxclass" : "newobj",
					"text" : "prepend sustainmode",
					"outlettype" : [ "" ],
					"fontsize" : 12.0,
					"numinlets" : 1,
					"patching_rect" : [ 636.0, 665.0, 126.0, 20.0 ],
					"id" : "obj-30",
					"fontname" : "Arial",
					"numoutlets" : 1
				}

			}
, 			{
				"box" : 				{
					"maxclass" : "newobj",
					"text" : "prepend 6",
					"outlettype" : [ "" ],
					"fontsize" : 12.0,
					"numinlets" : 1,
					"patching_rect" : [ 748.0, 604.0, 65.0, 20.0 ],
					"id" : "obj-41",
					"fontname" : "Arial",
					"numoutlets" : 1
				}

			}
, 			{
				"box" : 				{
					"maxclass" : "newobj",
					"text" : "prepend 5",
					"outlettype" : [ "" ],
					"fontsize" : 12.0,
					"numinlets" : 1,
					"patching_rect" : [ 733.0, 589.0, 65.0, 20.0 ],
					"id" : "obj-42",
					"fontname" : "Arial",
					"numoutlets" : 1
				}

			}
, 			{
				"box" : 				{
					"maxclass" : "newobj",
					"text" : "prepend 4",
					"outlettype" : [ "" ],
					"fontsize" : 12.0,
					"numinlets" : 1,
					"patching_rect" : [ 718.0, 574.0, 65.0, 20.0 ],
					"id" : "obj-43",
					"fontname" : "Arial",
					"numoutlets" : 1
				}

			}
, 			{
				"box" : 				{
					"maxclass" : "newobj",
					"text" : "prepend 3",
					"outlettype" : [ "" ],
					"fontsize" : 12.0,
					"numinlets" : 1,
					"patching_rect" : [ 703.0, 559.0, 65.0, 20.0 ],
					"id" : "obj-44",
					"fontname" : "Arial",
					"numoutlets" : 1
				}

			}
, 			{
				"box" : 				{
					"maxclass" : "newobj",
					"text" : "prepend 2",
					"outlettype" : [ "" ],
					"fontsize" : 12.0,
					"numinlets" : 1,
					"patching_rect" : [ 688.0, 544.0, 65.0, 20.0 ],
					"id" : "obj-45",
					"fontname" : "Arial",
					"numoutlets" : 1
				}

			}
, 			{
				"box" : 				{
					"maxclass" : "newobj",
					"text" : "prepend 1",
					"outlettype" : [ "" ],
					"fontsize" : 12.0,
					"numinlets" : 1,
					"patching_rect" : [ 673.0, 528.0, 65.0, 20.0 ],
					"id" : "obj-47",
					"fontname" : "Arial",
					"numoutlets" : 1
				}

			}
, 			{
				"box" : 				{
					"maxclass" : "newobj",
					"text" : "prepend 0",
					"outlettype" : [ "" ],
					"fontsize" : 12.0,
					"numinlets" : 1,
					"patching_rect" : [ 658.0, 514.0, 65.0, 20.0 ],
					"id" : "obj-48",
					"fontname" : "Arial",
					"numoutlets" : 1
				}

			}
, 			{
				"box" : 				{
					"maxclass" : "live.menu",
					"varname" : "Major[13]",
					"pictures" : [  ],
					"outlettype" : [ "", "", "float" ],
					"presentation_rect" : [ 315.0, 82.0, 62.0, 15.0 ],
					"numinlets" : 1,
					"patching_rect" : [ 777.0, 396.0, 34.0, 15.0 ],
					"presentation" : 1,
					"id" : "obj-20",
					"parameter_enable" : 1,
					"numoutlets" : 3,
					"saved_attribute_attributes" : 					{
						"valueof" : 						{
							"parameter_speedlim" : 0,
							"parameter_steps" : 0,
							"parameter_enum" : [ "GATE", "SUSTAIN" ],
							"parameter_exponent" : 1.0,
							"parameter_unitstyle" : 10,
							"parameter_mmax" : 127.0,
							"parameter_mmin" : 0.0,
							"parameter_type" : 2,
							"parameter_initial_enable" : 0,
							"parameter_shortname" : "live.menu",
							"parameter_invisible" : 0,
							"parameter_modmax" : 127.0,
							"parameter_annotation_name" : "",
							"parameter_longname" : "live.menu[31]",
							"parameter_modmin" : 0.0,
							"parameter_linknames" : 0,
							"parameter_modmode" : 0,
							"parameter_info" : "",
							"parameter_order" : 0,
							"parameter_units" : ""
						}

					}

				}

			}
, 			{
				"box" : 				{
					"maxclass" : "live.menu",
					"varname" : "Major[14]",
					"pictures" : [  ],
					"outlettype" : [ "", "", "float" ],
					"presentation_rect" : [ 315.0, 62.0, 62.0, 15.0 ],
					"numinlets" : 1,
					"patching_rect" : [ 777.0, 376.0, 34.0, 15.0 ],
					"presentation" : 1,
					"id" : "obj-21",
					"parameter_enable" : 1,
					"numoutlets" : 3,
					"saved_attribute_attributes" : 					{
						"valueof" : 						{
							"parameter_speedlim" : 0,
							"parameter_steps" : 0,
							"parameter_enum" : [ "GATE", "SUSTAIN" ],
							"parameter_exponent" : 1.0,
							"parameter_unitstyle" : 10,
							"parameter_mmax" : 127.0,
							"parameter_mmin" : 0.0,
							"parameter_type" : 2,
							"parameter_initial_enable" : 0,
							"parameter_shortname" : "live.menu",
							"parameter_invisible" : 0,
							"parameter_modmax" : 127.0,
							"parameter_annotation_name" : "",
							"parameter_longname" : "live.menu[33]",
							"parameter_modmin" : 0.0,
							"parameter_linknames" : 0,
							"parameter_modmode" : 0,
							"parameter_info" : "",
							"parameter_order" : 0,
							"parameter_units" : ""
						}

					}

				}

			}
, 			{
				"box" : 				{
					"maxclass" : "live.menu",
					"varname" : "Major[15]",
					"pictures" : [  ],
					"outlettype" : [ "", "", "float" ],
					"presentation_rect" : [ 315.0, 43.0, 62.0, 15.0 ],
					"numinlets" : 1,
					"patching_rect" : [ 777.0, 356.0, 34.0, 15.0 ],
					"presentation" : 1,
					"id" : "obj-22",
					"parameter_enable" : 1,
					"numoutlets" : 3,
					"saved_attribute_attributes" : 					{
						"valueof" : 						{
							"parameter_speedlim" : 0,
							"parameter_steps" : 0,
							"parameter_enum" : [ "GATE", "SUSTAIN" ],
							"parameter_exponent" : 1.0,
							"parameter_unitstyle" : 10,
							"parameter_mmax" : 127.0,
							"parameter_mmin" : 0.0,
							"parameter_type" : 2,
							"parameter_initial_enable" : 0,
							"parameter_shortname" : "live.menu",
							"parameter_invisible" : 0,
							"parameter_modmax" : 127.0,
							"parameter_annotation_name" : "",
							"parameter_longname" : "live.menu[24]",
							"parameter_modmin" : 0.0,
							"parameter_linknames" : 0,
							"parameter_modmode" : 0,
							"parameter_info" : "",
							"parameter_order" : 0,
							"parameter_units" : ""
						}

					}

				}

			}
, 			{
				"box" : 				{
					"maxclass" : "live.menu",
					"varname" : "Major[9]",
					"pictures" : [  ],
					"outlettype" : [ "", "", "float" ],
					"presentation_rect" : [ 130.0, 99.0, 62.0, 15.0 ],
					"numinlets" : 1,
					"patching_rect" : [ 513.0, 417.0, 34.0, 15.0 ],
					"presentation" : 1,
					"id" : "obj-3",
					"parameter_enable" : 1,
					"numoutlets" : 3,
					"saved_attribute_attributes" : 					{
						"valueof" : 						{
							"parameter_speedlim" : 0,
							"parameter_steps" : 0,
							"parameter_enum" : [ "GATE", "SUSTAIN" ],
							"parameter_exponent" : 1.0,
							"parameter_unitstyle" : 10,
							"parameter_mmax" : 127.0,
							"parameter_mmin" : 0.0,
							"parameter_type" : 2,
							"parameter_initial_enable" : 0,
							"parameter_shortname" : "live.menu",
							"parameter_invisible" : 0,
							"parameter_modmax" : 127.0,
							"parameter_annotation_name" : "",
							"parameter_longname" : "live.menu[30]",
							"parameter_modmin" : 0.0,
							"parameter_linknames" : 0,
							"parameter_modmode" : 0,
							"parameter_info" : "",
							"parameter_order" : 0,
							"parameter_units" : ""
						}

					}

				}

			}
, 			{
				"box" : 				{
					"maxclass" : "live.menu",
					"varname" : "Major[10]",
					"pictures" : [  ],
					"outlettype" : [ "", "", "float" ],
					"presentation_rect" : [ 130.0, 80.0, 62.0, 15.0 ],
					"numinlets" : 1,
					"patching_rect" : [ 513.0, 395.0, 34.0, 15.0 ],
					"presentation" : 1,
					"id" : "obj-13",
					"parameter_enable" : 1,
					"numoutlets" : 3,
					"saved_attribute_attributes" : 					{
						"valueof" : 						{
							"parameter_speedlim" : 0,
							"parameter_steps" : 0,
							"parameter_enum" : [ "GATE", "SUSTAIN" ],
							"parameter_exponent" : 1.0,
							"parameter_unitstyle" : 10,
							"parameter_mmax" : 127.0,
							"parameter_mmin" : 0.0,
							"parameter_type" : 2,
							"parameter_initial_enable" : 0,
							"parameter_shortname" : "live.menu",
							"parameter_invisible" : 0,
							"parameter_modmax" : 127.0,
							"parameter_annotation_name" : "",
							"parameter_longname" : "live.menu[26]",
							"parameter_modmin" : 0.0,
							"parameter_linknames" : 0,
							"parameter_modmode" : 0,
							"parameter_info" : "",
							"parameter_order" : 0,
							"parameter_units" : ""
						}

					}

				}

			}
, 			{
				"box" : 				{
					"maxclass" : "live.menu",
					"varname" : "Major[11]",
					"pictures" : [  ],
					"outlettype" : [ "", "", "float" ],
					"presentation_rect" : [ 130.0, 60.0, 62.0, 15.0 ],
					"numinlets" : 1,
					"patching_rect" : [ 513.0, 375.0, 34.0, 15.0 ],
					"presentation" : 1,
					"id" : "obj-18",
					"parameter_enable" : 1,
					"numoutlets" : 3,
					"saved_attribute_attributes" : 					{
						"valueof" : 						{
							"parameter_speedlim" : 0,
							"parameter_steps" : 0,
							"parameter_enum" : [ "GATE", "SUSTAIN" ],
							"parameter_exponent" : 1.0,
							"parameter_unitstyle" : 10,
							"parameter_mmax" : 127.0,
							"parameter_mmin" : 0.0,
							"parameter_type" : 2,
							"parameter_initial_enable" : 0,
							"parameter_shortname" : "live.menu",
							"parameter_invisible" : 0,
							"parameter_modmax" : 127.0,
							"parameter_annotation_name" : "",
							"parameter_longname" : "live.menu[21]",
							"parameter_modmin" : 0.0,
							"parameter_linknames" : 0,
							"parameter_modmode" : 0,
							"parameter_info" : "",
							"parameter_order" : 0,
							"parameter_units" : ""
						}

					}

				}

			}
, 			{
				"box" : 				{
					"maxclass" : "live.menu",
					"varname" : "Major[12]",
					"pictures" : [  ],
					"outlettype" : [ "", "", "float" ],
					"presentation_rect" : [ 130.0, 41.0, 62.0, 15.0 ],
					"numinlets" : 1,
					"patching_rect" : [ 513.0, 355.0, 34.0, 15.0 ],
					"presentation" : 1,
					"id" : "obj-19",
					"parameter_enable" : 1,
					"numoutlets" : 3,
					"saved_attribute_attributes" : 					{
						"valueof" : 						{
							"parameter_speedlim" : 0,
							"parameter_steps" : 0,
							"parameter_enum" : [ "GATE", "SUSTAIN" ],
							"parameter_exponent" : 1.0,
							"parameter_unitstyle" : 10,
							"parameter_mmax" : 127.0,
							"parameter_mmin" : 0.0,
							"parameter_type" : 2,
							"parameter_initial_enable" : 0,
							"parameter_shortname" : "live.menu",
							"parameter_invisible" : 0,
							"parameter_modmax" : 127.0,
							"parameter_annotation_name" : "",
							"parameter_longname" : "live.menu[34]",
							"parameter_modmin" : 0.0,
							"parameter_linknames" : 0,
							"parameter_modmode" : 0,
							"parameter_info" : "",
							"parameter_order" : 0,
							"parameter_units" : ""
						}

					}

				}

			}
, 			{
				"box" : 				{
					"maxclass" : "newobj",
					"text" : "prepend transposegroup",
					"outlettype" : [ "" ],
					"fontsize" : 12.0,
					"numinlets" : 1,
					"patching_rect" : [ 460.0, 665.0, 141.0, 20.0 ],
					"id" : "obj-46",
					"fontname" : "Arial",
					"numoutlets" : 1
				}

			}
, 			{
				"box" : 				{
					"maxclass" : "newobj",
					"text" : "prepend 6",
					"outlettype" : [ "" ],
					"fontsize" : 12.0,
					"numinlets" : 1,
					"patching_rect" : [ 572.0, 604.0, 65.0, 20.0 ],
					"id" : "obj-29",
					"fontname" : "Arial",
					"numoutlets" : 1
				}

			}
, 			{
				"box" : 				{
					"maxclass" : "newobj",
					"text" : "prepend 5",
					"outlettype" : [ "" ],
					"fontsize" : 12.0,
					"numinlets" : 1,
					"patching_rect" : [ 557.0, 589.0, 65.0, 20.0 ],
					"id" : "obj-28",
					"fontname" : "Arial",
					"numoutlets" : 1
				}

			}
, 			{
				"box" : 				{
					"maxclass" : "newobj",
					"text" : "prepend 4",
					"outlettype" : [ "" ],
					"fontsize" : 12.0,
					"numinlets" : 1,
					"patching_rect" : [ 542.0, 574.0, 65.0, 20.0 ],
					"id" : "obj-27",
					"fontname" : "Arial",
					"numoutlets" : 1
				}

			}
, 			{
				"box" : 				{
					"maxclass" : "newobj",
					"text" : "prepend 3",
					"outlettype" : [ "" ],
					"fontsize" : 12.0,
					"numinlets" : 1,
					"patching_rect" : [ 527.0, 559.0, 65.0, 20.0 ],
					"id" : "obj-26",
					"fontname" : "Arial",
					"numoutlets" : 1
				}

			}
, 			{
				"box" : 				{
					"maxclass" : "newobj",
					"text" : "prepend 2",
					"outlettype" : [ "" ],
					"fontsize" : 12.0,
					"numinlets" : 1,
					"patching_rect" : [ 512.0, 544.0, 65.0, 20.0 ],
					"id" : "obj-25",
					"fontname" : "Arial",
					"numoutlets" : 1
				}

			}
, 			{
				"box" : 				{
					"maxclass" : "newobj",
					"text" : "prepend 1",
					"outlettype" : [ "" ],
					"fontsize" : 12.0,
					"numinlets" : 1,
					"patching_rect" : [ 497.0, 528.0, 65.0, 20.0 ],
					"id" : "obj-24",
					"fontname" : "Arial",
					"numoutlets" : 1
				}

			}
, 			{
				"box" : 				{
					"maxclass" : "newobj",
					"text" : "prepend 0",
					"outlettype" : [ "" ],
					"fontsize" : 12.0,
					"numinlets" : 1,
					"patching_rect" : [ 482.0, 514.0, 65.0, 20.0 ],
					"id" : "obj-23",
					"fontname" : "Arial",
					"numoutlets" : 1
				}

			}
, 			{
				"box" : 				{
					"maxclass" : "newobj",
					"text" : "prepend toolmode",
					"outlettype" : [ "" ],
					"fontsize" : 12.0,
					"numinlets" : 1,
					"patching_rect" : [ 293.0, 588.0, 107.0, 20.0 ],
					"id" : "obj-14",
					"fontname" : "Arial",
					"numoutlets" : 1
				}

			}
, 			{
				"box" : 				{
					"maxclass" : "newobj",
					"text" : "prepend transpose",
					"outlettype" : [ "" ],
					"fontsize" : 12.0,
					"numinlets" : 1,
					"patching_rect" : [ 310.0, 618.0, 111.0, 20.0 ],
					"id" : "obj-15",
					"fontname" : "Arial",
					"numoutlets" : 1
				}

			}
, 			{
				"box" : 				{
					"maxclass" : "newobj",
					"text" : "prepend recmode",
					"outlettype" : [ "" ],
					"fontsize" : 12.0,
					"numinlets" : 1,
					"patching_rect" : [ 274.0, 563.0, 105.0, 20.0 ],
					"id" : "obj-16",
					"fontname" : "Arial",
					"numoutlets" : 1
				}

			}
, 			{
				"box" : 				{
					"maxclass" : "newobj",
					"text" : "prepend scalename",
					"outlettype" : [ "" ],
					"fontsize" : 12.0,
					"numinlets" : 1,
					"patching_rect" : [ 256.0, 538.0, 116.0, 20.0 ],
					"id" : "obj-17",
					"fontname" : "Arial",
					"numoutlets" : 1
				}

			}
, 			{
				"box" : 				{
					"maxclass" : "outlet",
					"numinlets" : 1,
					"patching_rect" : [ 176.0, 803.0, 25.0, 25.0 ],
					"id" : "obj-12",
					"numoutlets" : 0,
					"comment" : ""
				}

			}
, 			{
				"box" : 				{
					"maxclass" : "live.menu",
					"varname" : "live.menu[2]",
					"pictures" : [  ],
					"outlettype" : [ "", "", "float" ],
					"presentation_rect" : [ 82.0, 4.0, 110.0, 15.0 ],
					"numinlets" : 1,
					"patching_rect" : [ 446.0, 317.0, 100.0, 15.0 ],
					"presentation" : 1,
					"id" : "obj-9",
					"parameter_enable" : 1,
					"numoutlets" : 3,
					"saved_attribute_attributes" : 					{
						"valueof" : 						{
							"parameter_speedlim" : 0,
							"parameter_steps" : 0,
							"parameter_enum" : [ "Billian", "Blues", "Chinese", "Chromatic", "ChromaticHypolydian", "Dorian", "DoubleHarmonic", "Egyptian", "Hindu", "Hirajoshi", "Hungarian", "HungarianGypsy", "HungarianMajor", "InSen", "InstantJazz", "Ionian5", "IWato", "Japanese", "JazzMinorInverse", "JethsMode", "JewishSpanish", "LeadingWholeTone", "Locrian", "LocrianMajor", "LocrianSharp2", "Lydian", "LydianAugmented", "LydianDiminished", "LydianFlat7", "LydianMinor", "LydianSharp2", "Major", "Miles", "Minor", "MinorBlues", "MinorPentatonic", "MinorSeven", "Mullnixian", "Pentatonic", "Philgarian", "PhrygianFlat4", "Romanian", "Sambah", "SuperLocrian", "Telerium", "UltraLocrian", "Yorkian" ],
							"parameter_exponent" : 1.0,
							"parameter_unitstyle" : 10,
							"parameter_mmax" : 127.0,
							"parameter_mmin" : 0.0,
							"parameter_type" : 2,
							"parameter_initial_enable" : 0,
							"parameter_shortname" : "live.menu",
							"parameter_invisible" : 0,
							"parameter_modmax" : 127.0,
							"parameter_annotation_name" : "",
							"parameter_longname" : "live.menu[22]",
							"parameter_modmin" : 0.0,
							"parameter_linknames" : 0,
							"parameter_modmode" : 0,
							"parameter_info" : "",
							"parameter_order" : 0,
							"parameter_units" : ""
						}

					}

				}

			}
, 			{
				"box" : 				{
					"maxclass" : "comment",
					"text" : "Slot 4",
					"fontface" : 1,
					"fontsize" : 10.0,
					"presentation_rect" : [ 2.0, 99.0, 37.0, 18.0 ],
					"numinlets" : 1,
					"patching_rect" : [ 366.0, 417.0, 75.0, 18.0 ],
					"presentation" : 1,
					"id" : "obj-1",
					"fontname" : "Arial",
					"numoutlets" : 0
				}

			}
, 			{
				"box" : 				{
					"maxclass" : "live.menu",
					"varname" : "Major[8]",
					"pictures" : [  ],
					"outlettype" : [ "", "", "float" ],
					"presentation_rect" : [ 82.0, 99.0, 43.0, 15.0 ],
					"numinlets" : 1,
					"patching_rect" : [ 446.0, 417.0, 34.0, 15.0 ],
					"presentation" : 1,
					"id" : "obj-2",
					"parameter_enable" : 1,
					"numoutlets" : 3,
					"saved_attribute_attributes" : 					{
						"valueof" : 						{
							"parameter_speedlim" : 0,
							"parameter_steps" : 0,
							"parameter_enum" : [ "Nope", "1", "2", "3", "4", "5", "6", "7" ],
							"parameter_exponent" : 1.0,
							"parameter_unitstyle" : 10,
							"parameter_mmax" : 127.0,
							"parameter_mmin" : 0.0,
							"parameter_type" : 2,
							"parameter_initial_enable" : 0,
							"parameter_shortname" : "live.menu",
							"parameter_invisible" : 0,
							"parameter_modmax" : 127.0,
							"parameter_annotation_name" : "",
							"parameter_longname" : "live.menu[35]",
							"parameter_modmin" : 0.0,
							"parameter_linknames" : 0,
							"parameter_modmode" : 0,
							"parameter_info" : "",
							"parameter_order" : 0,
							"parameter_units" : ""
						}

					}

				}

			}
, 			{
				"box" : 				{
					"maxclass" : "live.text",
					"varname" : "live.text",
					"texton" : "TRANSPOSE ON",
					"outlettype" : [ "", "" ],
					"fontsize" : 9.0,
					"text" : "TRANSPOSE OFF",
					"presentation_rect" : [ 253.0, 23.0, 124.0, 14.0 ],
					"numinlets" : 1,
					"patching_rect" : [ 708.0, 336.0, 100.0, 15.0 ],
					"presentation" : 1,
					"id" : "obj-6",
					"parameter_enable" : 1,
					"numoutlets" : 2,
					"saved_attribute_attributes" : 					{
						"valueof" : 						{
							"parameter_speedlim" : 0,
							"parameter_steps" : 0,
							"parameter_enum" : [ "val1", "val2" ],
							"parameter_exponent" : 1.0,
							"parameter_unitstyle" : 10,
							"parameter_mmax" : 1.0,
							"parameter_mmin" : 0.0,
							"parameter_type" : 2,
							"parameter_initial_enable" : 0,
							"parameter_shortname" : "live.menu",
							"parameter_invisible" : 0,
							"parameter_modmax" : 127.0,
							"parameter_annotation_name" : "",
							"parameter_longname" : "live.text[1]",
							"parameter_modmin" : 0.0,
							"parameter_linknames" : 0,
							"parameter_modmode" : 0,
							"parameter_info" : "",
							"parameter_order" : 0,
							"parameter_units" : ""
						}

					}

				}

			}
, 			{
				"box" : 				{
					"maxclass" : "live.menu",
					"varname" : "Major[6]",
					"pictures" : [  ],
					"outlettype" : [ "", "", "float" ],
					"presentation_rect" : [ 268.0, 82.0, 43.0, 15.0 ],
					"numinlets" : 1,
					"patching_rect" : [ 708.0, 396.0, 34.0, 15.0 ],
					"presentation" : 1,
					"id" : "obj-37",
					"parameter_enable" : 1,
					"numoutlets" : 3,
					"saved_attribute_attributes" : 					{
						"valueof" : 						{
							"parameter_speedlim" : 0,
							"parameter_steps" : 0,
							"parameter_enum" : [ "Nope", "1", "2", "3", "4", "5", "6", "7" ],
							"parameter_exponent" : 1.0,
							"parameter_unitstyle" : 10,
							"parameter_mmax" : 127.0,
							"parameter_mmin" : 0.0,
							"parameter_type" : 2,
							"parameter_initial_enable" : 0,
							"parameter_shortname" : "live.menu",
							"parameter_invisible" : 0,
							"parameter_modmax" : 127.0,
							"parameter_annotation_name" : "",
							"parameter_longname" : "live.menu[27]",
							"parameter_modmin" : 0.0,
							"parameter_linknames" : 0,
							"parameter_modmode" : 0,
							"parameter_info" : "",
							"parameter_order" : 0,
							"parameter_units" : ""
						}

					}

				}

			}
, 			{
				"box" : 				{
					"maxclass" : "comment",
					"text" : "Slot 7",
					"fontface" : 1,
					"fontsize" : 10.0,
					"presentation_rect" : [ 195.0, 82.0, 36.0, 18.0 ],
					"numinlets" : 1,
					"patching_rect" : [ 644.0, 395.0, 58.0, 18.0 ],
					"presentation" : 1,
					"id" : "obj-38",
					"fontname" : "Arial",
					"numoutlets" : 0
				}

			}
, 			{
				"box" : 				{
					"maxclass" : "comment",
					"text" : "Slot 3",
					"fontface" : 1,
					"fontsize" : 10.0,
					"presentation_rect" : [ 2.0, 80.0, 37.0, 18.0 ],
					"numinlets" : 1,
					"patching_rect" : [ 366.0, 395.0, 75.0, 18.0 ],
					"presentation" : 1,
					"id" : "obj-39",
					"fontname" : "Arial",
					"numoutlets" : 0
				}

			}
, 			{
				"box" : 				{
					"maxclass" : "live.menu",
					"varname" : "Major[7]",
					"pictures" : [  ],
					"outlettype" : [ "", "", "float" ],
					"presentation_rect" : [ 82.0, 80.0, 43.0, 15.0 ],
					"numinlets" : 1,
					"patching_rect" : [ 446.0, 395.0, 34.0, 15.0 ],
					"presentation" : 1,
					"id" : "obj-40",
					"parameter_enable" : 1,
					"numoutlets" : 3,
					"saved_attribute_attributes" : 					{
						"valueof" : 						{
							"parameter_speedlim" : 0,
							"parameter_steps" : 0,
							"parameter_enum" : [ "Nope", "1", "2", "3", "4", "5", "6", "7" ],
							"parameter_exponent" : 1.0,
							"parameter_unitstyle" : 10,
							"parameter_mmax" : 127.0,
							"parameter_mmin" : 0.0,
							"parameter_type" : 2,
							"parameter_initial_enable" : 0,
							"parameter_shortname" : "live.menu",
							"parameter_invisible" : 0,
							"parameter_modmax" : 127.0,
							"parameter_annotation_name" : "",
							"parameter_longname" : "live.menu[23]",
							"parameter_modmin" : 0.0,
							"parameter_linknames" : 0,
							"parameter_modmode" : 0,
							"parameter_info" : "",
							"parameter_order" : 0,
							"parameter_units" : ""
						}

					}

				}

			}
, 			{
				"box" : 				{
					"maxclass" : "live.menu",
					"varname" : "Major[4]",
					"pictures" : [  ],
					"outlettype" : [ "", "", "float" ],
					"presentation_rect" : [ 268.0, 62.0, 43.0, 15.0 ],
					"numinlets" : 1,
					"patching_rect" : [ 708.0, 376.0, 34.0, 15.0 ],
					"presentation" : 1,
					"id" : "obj-33",
					"parameter_enable" : 1,
					"numoutlets" : 3,
					"saved_attribute_attributes" : 					{
						"valueof" : 						{
							"parameter_speedlim" : 0,
							"parameter_steps" : 0,
							"parameter_enum" : [ "Nope", "1", "2", "3", "4", "5", "6", "7" ],
							"parameter_exponent" : 1.0,
							"parameter_unitstyle" : 10,
							"parameter_mmax" : 127.0,
							"parameter_mmin" : 0.0,
							"parameter_type" : 2,
							"parameter_initial_enable" : 0,
							"parameter_shortname" : "live.menu",
							"parameter_invisible" : 0,
							"parameter_modmax" : 127.0,
							"parameter_annotation_name" : "",
							"parameter_longname" : "live.menu[36]",
							"parameter_modmin" : 0.0,
							"parameter_linknames" : 0,
							"parameter_modmode" : 0,
							"parameter_info" : "",
							"parameter_order" : 0,
							"parameter_units" : ""
						}

					}

				}

			}
, 			{
				"box" : 				{
					"maxclass" : "comment",
					"text" : "Slot 6",
					"fontface" : 1,
					"fontsize" : 10.0,
					"presentation_rect" : [ 195.0, 62.0, 37.0, 18.0 ],
					"numinlets" : 1,
					"patching_rect" : [ 644.0, 375.0, 58.0, 18.0 ],
					"presentation" : 1,
					"id" : "obj-34",
					"fontname" : "Arial",
					"numoutlets" : 0
				}

			}
, 			{
				"box" : 				{
					"maxclass" : "comment",
					"text" : "Slot 2",
					"fontface" : 1,
					"fontsize" : 10.0,
					"presentation_rect" : [ 2.0, 60.0, 39.0, 18.0 ],
					"numinlets" : 1,
					"patching_rect" : [ 366.0, 375.0, 75.0, 18.0 ],
					"presentation" : 1,
					"id" : "obj-35",
					"fontname" : "Arial",
					"numoutlets" : 0
				}

			}
, 			{
				"box" : 				{
					"maxclass" : "live.menu",
					"varname" : "Major[5]",
					"pictures" : [  ],
					"outlettype" : [ "", "", "float" ],
					"presentation_rect" : [ 82.0, 60.0, 43.0, 15.0 ],
					"numinlets" : 1,
					"patching_rect" : [ 446.0, 375.0, 34.0, 15.0 ],
					"presentation" : 1,
					"id" : "obj-36",
					"parameter_enable" : 1,
					"numoutlets" : 3,
					"saved_attribute_attributes" : 					{
						"valueof" : 						{
							"parameter_speedlim" : 0,
							"parameter_steps" : 0,
							"parameter_enum" : [ "Nope", "1", "2", "3", "4", "5", "6", "7" ],
							"parameter_exponent" : 1.0,
							"parameter_unitstyle" : 10,
							"parameter_mmax" : 127.0,
							"parameter_mmin" : 0.0,
							"parameter_type" : 2,
							"parameter_initial_enable" : 0,
							"parameter_shortname" : "live.menu",
							"parameter_invisible" : 0,
							"parameter_modmax" : 127.0,
							"parameter_annotation_name" : "",
							"parameter_longname" : "live.menu[32]",
							"parameter_modmin" : 0.0,
							"parameter_linknames" : 0,
							"parameter_modmode" : 0,
							"parameter_info" : "",
							"parameter_order" : 0,
							"parameter_units" : ""
						}

					}

				}

			}
, 			{
				"box" : 				{
					"maxclass" : "live.menu",
					"varname" : "Major[3]",
					"pictures" : [  ],
					"outlettype" : [ "", "", "float" ],
					"presentation_rect" : [ 268.0, 42.0, 43.0, 15.0 ],
					"numinlets" : 1,
					"patching_rect" : [ 708.0, 356.0, 34.0, 15.0 ],
					"presentation" : 1,
					"id" : "obj-32",
					"parameter_enable" : 1,
					"numoutlets" : 3,
					"saved_attribute_attributes" : 					{
						"valueof" : 						{
							"parameter_speedlim" : 0,
							"parameter_steps" : 0,
							"parameter_enum" : [ "Nope", "1", "2", "3", "4", "5", "6", "7" ],
							"parameter_exponent" : 1.0,
							"parameter_unitstyle" : 10,
							"parameter_mmax" : 127.0,
							"parameter_mmin" : 0.0,
							"parameter_type" : 2,
							"parameter_initial_enable" : 0,
							"parameter_shortname" : "live.menu",
							"parameter_invisible" : 0,
							"parameter_modmax" : 127.0,
							"parameter_annotation_name" : "",
							"parameter_longname" : "live.menu[28]",
							"parameter_modmin" : 0.0,
							"parameter_linknames" : 0,
							"parameter_modmode" : 0,
							"parameter_info" : "",
							"parameter_order" : 0,
							"parameter_units" : ""
						}

					}

				}

			}
, 			{
				"box" : 				{
					"maxclass" : "comment",
					"text" : "Slot 5",
					"fontface" : 1,
					"fontsize" : 10.0,
					"presentation_rect" : [ 195.0, 42.0, 36.0, 18.0 ],
					"numinlets" : 1,
					"patching_rect" : [ 644.0, 355.0, 58.0, 18.0 ],
					"presentation" : 1,
					"id" : "obj-31",
					"fontname" : "Arial",
					"numoutlets" : 0
				}

			}
, 			{
				"box" : 				{
					"maxclass" : "comment",
					"text" : "Slot 1",
					"fontface" : 1,
					"fontsize" : 10.0,
					"presentation_rect" : [ 2.0, 40.0, 39.0, 18.0 ],
					"numinlets" : 1,
					"patching_rect" : [ 366.0, 355.0, 75.0, 18.0 ],
					"presentation" : 1,
					"id" : "obj-10",
					"fontname" : "Arial",
					"numoutlets" : 0
				}

			}
, 			{
				"box" : 				{
					"maxclass" : "live.menu",
					"varname" : "Major[2]",
					"pictures" : [  ],
					"outlettype" : [ "", "", "float" ],
					"presentation_rect" : [ 82.0, 41.0, 43.0, 15.0 ],
					"numinlets" : 1,
					"patching_rect" : [ 446.0, 355.0, 34.0, 15.0 ],
					"presentation" : 1,
					"id" : "obj-11",
					"parameter_enable" : 1,
					"numoutlets" : 3,
					"saved_attribute_attributes" : 					{
						"valueof" : 						{
							"parameter_speedlim" : 0,
							"parameter_steps" : 0,
							"parameter_enum" : [ "Nope", "1", "2", "3", "4", "5", "6", "7" ],
							"parameter_exponent" : 1.0,
							"parameter_unitstyle" : 10,
							"parameter_mmax" : 127.0,
							"parameter_mmin" : 0.0,
							"parameter_type" : 2,
							"parameter_initial_enable" : 0,
							"parameter_shortname" : "live.menu",
							"parameter_invisible" : 0,
							"parameter_modmax" : 127.0,
							"parameter_annotation_name" : "",
							"parameter_longname" : "live.menu[25]",
							"parameter_modmin" : 0.0,
							"parameter_linknames" : 0,
							"parameter_modmode" : 0,
							"parameter_info" : "",
							"parameter_order" : 0,
							"parameter_units" : ""
						}

					}

				}

			}
, 			{
				"box" : 				{
					"maxclass" : "comment",
					"text" : "Record Mode",
					"fontface" : 1,
					"fontsize" : 10.0,
					"presentation_rect" : [ 2.0, 22.0, 75.0, 18.0 ],
					"numinlets" : 1,
					"patching_rect" : [ 366.0, 335.0, 75.0, 18.0 ],
					"presentation" : 1,
					"id" : "obj-7",
					"fontname" : "Arial",
					"numoutlets" : 0
				}

			}
, 			{
				"box" : 				{
					"maxclass" : "live.menu",
					"varname" : "Major[1]",
					"pictures" : [  ],
					"outlettype" : [ "", "", "float" ],
					"presentation_rect" : [ 82.0, 22.0, 110.0, 15.0 ],
					"numinlets" : 1,
					"patching_rect" : [ 446.0, 335.0, 100.0, 15.0 ],
					"presentation" : 1,
					"id" : "obj-8",
					"parameter_enable" : 1,
					"numoutlets" : 3,
					"saved_attribute_attributes" : 					{
						"valueof" : 						{
							"parameter_speedlim" : 0,
							"parameter_steps" : 0,
							"parameter_enum" : [ "On Button Press", "Quantized" ],
							"parameter_exponent" : 1.0,
							"parameter_unitstyle" : 10,
							"parameter_mmax" : 127.0,
							"parameter_mmin" : 0.0,
							"parameter_type" : 2,
							"parameter_initial_enable" : 0,
							"parameter_shortname" : "live.menu",
							"parameter_invisible" : 0,
							"parameter_modmax" : 127.0,
							"parameter_annotation_name" : "",
							"parameter_longname" : "live.menu[20]",
							"parameter_modmin" : 0.0,
							"parameter_linknames" : 0,
							"parameter_modmode" : 0,
							"parameter_info" : "",
							"parameter_order" : 0,
							"parameter_units" : ""
						}

					}

				}

			}
, 			{
				"box" : 				{
					"maxclass" : "live.menu",
					"varname" : "live.menu[1]",
					"pictures" : [  ],
					"outlettype" : [ "", "", "float" ],
					"presentation_rect" : [ 253.0, 4.0, 124.0, 15.0 ],
					"numinlets" : 1,
					"patching_rect" : [ 708.0, 318.0, 100.0, 15.0 ],
					"presentation" : 1,
					"id" : "obj-5",
					"parameter_enable" : 1,
					"numoutlets" : 3,
					"saved_attribute_attributes" : 					{
						"valueof" : 						{
							"parameter_speedlim" : 0,
							"parameter_steps" : 0,
							"parameter_enum" : [ "KEYBOARD", "POSITION", "NONE", "KEYBOARD/POSITION", "KEYBOARD/NONE", "POSITION/NONE" ],
							"parameter_exponent" : 1.0,
							"parameter_unitstyle" : 10,
							"parameter_mmax" : 127.0,
							"parameter_mmin" : 0.0,
							"parameter_type" : 2,
							"parameter_initial_enable" : 0,
							"parameter_shortname" : "live.menu",
							"parameter_invisible" : 0,
							"parameter_modmax" : 127.0,
							"parameter_annotation_name" : "",
							"parameter_longname" : "live.menu[29]",
							"parameter_modmin" : 0.0,
							"parameter_linknames" : 0,
							"parameter_modmode" : 0,
							"parameter_info" : "",
							"parameter_order" : 0,
							"parameter_units" : ""
						}

					}

				}

			}
, 			{
				"box" : 				{
					"maxclass" : "comment",
					"text" : "Scale",
					"fontface" : 1,
					"fontsize" : 10.0,
					"presentation_rect" : [ 2.0, 2.0, 75.0, 18.0 ],
					"numinlets" : 1,
					"patching_rect" : [ 366.0, 315.0, 75.0, 18.0 ],
					"presentation" : 1,
					"id" : "obj-4",
					"fontname" : "Arial",
					"numoutlets" : 0
				}

			}
 ],
		"lines" : [ 			{
				"patchline" : 				{
					"source" : [ "obj-20", 0 ],
					"destination" : [ "obj-41", 0 ],
					"hidden" : 0,
					"midpoints" : [  ]
				}

			}
, 			{
				"patchline" : 				{
					"source" : [ "obj-41", 0 ],
					"destination" : [ "obj-30", 0 ],
					"hidden" : 0,
					"midpoints" : [  ]
				}

			}
, 			{
				"patchline" : 				{
					"source" : [ "obj-21", 0 ],
					"destination" : [ "obj-42", 0 ],
					"hidden" : 0,
					"midpoints" : [  ]
				}

			}
, 			{
				"patchline" : 				{
					"source" : [ "obj-42", 0 ],
					"destination" : [ "obj-30", 0 ],
					"hidden" : 0,
					"midpoints" : [  ]
				}

			}
, 			{
				"patchline" : 				{
					"source" : [ "obj-22", 0 ],
					"destination" : [ "obj-43", 0 ],
					"hidden" : 0,
					"midpoints" : [  ]
				}

			}
, 			{
				"patchline" : 				{
					"source" : [ "obj-43", 0 ],
					"destination" : [ "obj-30", 0 ],
					"hidden" : 0,
					"midpoints" : [  ]
				}

			}
, 			{
				"patchline" : 				{
					"source" : [ "obj-3", 0 ],
					"destination" : [ "obj-44", 0 ],
					"hidden" : 0,
					"midpoints" : [  ]
				}

			}
, 			{
				"patchline" : 				{
					"source" : [ "obj-44", 0 ],
					"destination" : [ "obj-30", 0 ],
					"hidden" : 0,
					"midpoints" : [  ]
				}

			}
, 			{
				"patchline" : 				{
					"source" : [ "obj-13", 0 ],
					"destination" : [ "obj-45", 0 ],
					"hidden" : 0,
					"midpoints" : [  ]
				}

			}
, 			{
				"patchline" : 				{
					"source" : [ "obj-45", 0 ],
					"destination" : [ "obj-30", 0 ],
					"hidden" : 0,
					"midpoints" : [  ]
				}

			}
, 			{
				"patchline" : 				{
					"source" : [ "obj-18", 0 ],
					"destination" : [ "obj-47", 0 ],
					"hidden" : 0,
					"midpoints" : [  ]
				}

			}
, 			{
				"patchline" : 				{
					"source" : [ "obj-47", 0 ],
					"destination" : [ "obj-30", 0 ],
					"hidden" : 0,
					"midpoints" : [  ]
				}

			}
, 			{
				"patchline" : 				{
					"source" : [ "obj-19", 0 ],
					"destination" : [ "obj-48", 0 ],
					"hidden" : 0,
					"midpoints" : [  ]
				}

			}
, 			{
				"patchline" : 				{
					"source" : [ "obj-48", 0 ],
					"destination" : [ "obj-30", 0 ],
					"hidden" : 0,
					"midpoints" : [  ]
				}

			}
, 			{
				"patchline" : 				{
					"source" : [ "obj-37", 0 ],
					"destination" : [ "obj-29", 0 ],
					"hidden" : 0,
					"midpoints" : [  ]
				}

			}
, 			{
				"patchline" : 				{
					"source" : [ "obj-29", 0 ],
					"destination" : [ "obj-46", 0 ],
					"hidden" : 0,
					"midpoints" : [  ]
				}

			}
, 			{
				"patchline" : 				{
					"source" : [ "obj-33", 0 ],
					"destination" : [ "obj-28", 0 ],
					"hidden" : 0,
					"midpoints" : [  ]
				}

			}
, 			{
				"patchline" : 				{
					"source" : [ "obj-28", 0 ],
					"destination" : [ "obj-46", 0 ],
					"hidden" : 0,
					"midpoints" : [  ]
				}

			}
, 			{
				"patchline" : 				{
					"source" : [ "obj-32", 0 ],
					"destination" : [ "obj-27", 0 ],
					"hidden" : 0,
					"midpoints" : [  ]
				}

			}
, 			{
				"patchline" : 				{
					"source" : [ "obj-27", 0 ],
					"destination" : [ "obj-46", 0 ],
					"hidden" : 0,
					"midpoints" : [  ]
				}

			}
, 			{
				"patchline" : 				{
					"source" : [ "obj-2", 0 ],
					"destination" : [ "obj-26", 0 ],
					"hidden" : 0,
					"midpoints" : [  ]
				}

			}
, 			{
				"patchline" : 				{
					"source" : [ "obj-26", 0 ],
					"destination" : [ "obj-46", 0 ],
					"hidden" : 0,
					"midpoints" : [  ]
				}

			}
, 			{
				"patchline" : 				{
					"source" : [ "obj-40", 0 ],
					"destination" : [ "obj-25", 0 ],
					"hidden" : 0,
					"midpoints" : [  ]
				}

			}
, 			{
				"patchline" : 				{
					"source" : [ "obj-25", 0 ],
					"destination" : [ "obj-46", 0 ],
					"hidden" : 0,
					"midpoints" : [  ]
				}

			}
, 			{
				"patchline" : 				{
					"source" : [ "obj-36", 0 ],
					"destination" : [ "obj-24", 0 ],
					"hidden" : 0,
					"midpoints" : [  ]
				}

			}
, 			{
				"patchline" : 				{
					"source" : [ "obj-24", 0 ],
					"destination" : [ "obj-46", 0 ],
					"hidden" : 0,
					"midpoints" : [  ]
				}

			}
, 			{
				"patchline" : 				{
					"source" : [ "obj-11", 0 ],
					"destination" : [ "obj-23", 0 ],
					"hidden" : 0,
					"midpoints" : [  ]
				}

			}
, 			{
				"patchline" : 				{
					"source" : [ "obj-23", 0 ],
					"destination" : [ "obj-46", 0 ],
					"hidden" : 0,
					"midpoints" : [  ]
				}

			}
, 			{
				"patchline" : 				{
					"source" : [ "obj-69", 0 ],
					"destination" : [ "obj-20", 0 ],
					"hidden" : 0,
					"midpoints" : [  ]
				}

			}
, 			{
				"patchline" : 				{
					"source" : [ "obj-70", 0 ],
					"destination" : [ "obj-21", 0 ],
					"hidden" : 0,
					"midpoints" : [  ]
				}

			}
, 			{
				"patchline" : 				{
					"source" : [ "obj-71", 0 ],
					"destination" : [ "obj-22", 0 ],
					"hidden" : 0,
					"midpoints" : [  ]
				}

			}
, 			{
				"patchline" : 				{
					"source" : [ "obj-72", 0 ],
					"destination" : [ "obj-3", 0 ],
					"hidden" : 0,
					"midpoints" : [  ]
				}

			}
, 			{
				"patchline" : 				{
					"source" : [ "obj-73", 0 ],
					"destination" : [ "obj-13", 0 ],
					"hidden" : 0,
					"midpoints" : [  ]
				}

			}
, 			{
				"patchline" : 				{
					"source" : [ "obj-74", 0 ],
					"destination" : [ "obj-18", 0 ],
					"hidden" : 0,
					"midpoints" : [  ]
				}

			}
, 			{
				"patchline" : 				{
					"source" : [ "obj-75", 0 ],
					"destination" : [ "obj-19", 0 ],
					"hidden" : 0,
					"midpoints" : [  ]
				}

			}
, 			{
				"patchline" : 				{
					"source" : [ "obj-49", 5 ],
					"destination" : [ "obj-76", 0 ],
					"hidden" : 0,
					"midpoints" : [  ]
				}

			}
, 			{
				"patchline" : 				{
					"source" : [ "obj-76", 0 ],
					"destination" : [ "obj-75", 0 ],
					"hidden" : 0,
					"midpoints" : [  ]
				}

			}
, 			{
				"patchline" : 				{
					"source" : [ "obj-76", 1 ],
					"destination" : [ "obj-74", 0 ],
					"hidden" : 0,
					"midpoints" : [  ]
				}

			}
, 			{
				"patchline" : 				{
					"source" : [ "obj-76", 2 ],
					"destination" : [ "obj-73", 0 ],
					"hidden" : 0,
					"midpoints" : [  ]
				}

			}
, 			{
				"patchline" : 				{
					"source" : [ "obj-76", 3 ],
					"destination" : [ "obj-72", 0 ],
					"hidden" : 0,
					"midpoints" : [  ]
				}

			}
, 			{
				"patchline" : 				{
					"source" : [ "obj-76", 4 ],
					"destination" : [ "obj-71", 0 ],
					"hidden" : 0,
					"midpoints" : [  ]
				}

			}
, 			{
				"patchline" : 				{
					"source" : [ "obj-76", 5 ],
					"destination" : [ "obj-70", 0 ],
					"hidden" : 0,
					"midpoints" : [  ]
				}

			}
, 			{
				"patchline" : 				{
					"source" : [ "obj-76", 6 ],
					"destination" : [ "obj-69", 0 ],
					"hidden" : 0,
					"midpoints" : [  ]
				}

			}
, 			{
				"patchline" : 				{
					"source" : [ "obj-68", 0 ],
					"destination" : [ "obj-37", 0 ],
					"hidden" : 0,
					"midpoints" : [  ]
				}

			}
, 			{
				"patchline" : 				{
					"source" : [ "obj-67", 0 ],
					"destination" : [ "obj-33", 0 ],
					"hidden" : 0,
					"midpoints" : [  ]
				}

			}
, 			{
				"patchline" : 				{
					"source" : [ "obj-66", 0 ],
					"destination" : [ "obj-32", 0 ],
					"hidden" : 0,
					"midpoints" : [  ]
				}

			}
, 			{
				"patchline" : 				{
					"source" : [ "obj-65", 0 ],
					"destination" : [ "obj-2", 0 ],
					"hidden" : 0,
					"midpoints" : [  ]
				}

			}
, 			{
				"patchline" : 				{
					"source" : [ "obj-64", 0 ],
					"destination" : [ "obj-40", 0 ],
					"hidden" : 0,
					"midpoints" : [  ]
				}

			}
, 			{
				"patchline" : 				{
					"source" : [ "obj-63", 0 ],
					"destination" : [ "obj-36", 0 ],
					"hidden" : 0,
					"midpoints" : [  ]
				}

			}
, 			{
				"patchline" : 				{
					"source" : [ "obj-61", 6 ],
					"destination" : [ "obj-68", 0 ],
					"hidden" : 0,
					"midpoints" : [  ]
				}

			}
, 			{
				"patchline" : 				{
					"source" : [ "obj-61", 5 ],
					"destination" : [ "obj-67", 0 ],
					"hidden" : 0,
					"midpoints" : [  ]
				}

			}
, 			{
				"patchline" : 				{
					"source" : [ "obj-61", 4 ],
					"destination" : [ "obj-66", 0 ],
					"hidden" : 0,
					"midpoints" : [  ]
				}

			}
, 			{
				"patchline" : 				{
					"source" : [ "obj-61", 3 ],
					"destination" : [ "obj-65", 0 ],
					"hidden" : 0,
					"midpoints" : [  ]
				}

			}
, 			{
				"patchline" : 				{
					"source" : [ "obj-61", 2 ],
					"destination" : [ "obj-64", 0 ],
					"hidden" : 0,
					"midpoints" : [  ]
				}

			}
, 			{
				"patchline" : 				{
					"source" : [ "obj-61", 1 ],
					"destination" : [ "obj-63", 0 ],
					"hidden" : 0,
					"midpoints" : [  ]
				}

			}
, 			{
				"patchline" : 				{
					"source" : [ "obj-62", 0 ],
					"destination" : [ "obj-11", 0 ],
					"hidden" : 0,
					"midpoints" : [  ]
				}

			}
, 			{
				"patchline" : 				{
					"source" : [ "obj-61", 0 ],
					"destination" : [ "obj-62", 0 ],
					"hidden" : 0,
					"midpoints" : [  ]
				}

			}
, 			{
				"patchline" : 				{
					"source" : [ "obj-49", 4 ],
					"destination" : [ "obj-61", 0 ],
					"hidden" : 0,
					"midpoints" : [  ]
				}

			}
, 			{
				"patchline" : 				{
					"source" : [ "obj-60", 0 ],
					"destination" : [ "obj-6", 0 ],
					"hidden" : 0,
					"midpoints" : [  ]
				}

			}
, 			{
				"patchline" : 				{
					"source" : [ "obj-49", 3 ],
					"destination" : [ "obj-60", 0 ],
					"hidden" : 0,
					"midpoints" : [  ]
				}

			}
, 			{
				"patchline" : 				{
					"source" : [ "obj-59", 0 ],
					"destination" : [ "obj-5", 0 ],
					"hidden" : 0,
					"midpoints" : [  ]
				}

			}
, 			{
				"patchline" : 				{
					"source" : [ "obj-49", 2 ],
					"destination" : [ "obj-59", 0 ],
					"hidden" : 0,
					"midpoints" : [  ]
				}

			}
, 			{
				"patchline" : 				{
					"source" : [ "obj-58", 0 ],
					"destination" : [ "obj-8", 0 ],
					"hidden" : 0,
					"midpoints" : [  ]
				}

			}
, 			{
				"patchline" : 				{
					"source" : [ "obj-49", 1 ],
					"destination" : [ "obj-58", 0 ],
					"hidden" : 0,
					"midpoints" : [  ]
				}

			}
, 			{
				"patchline" : 				{
					"source" : [ "obj-56", 0 ],
					"destination" : [ "obj-5", 0 ],
					"hidden" : 0,
					"midpoints" : [  ]
				}

			}
, 			{
				"patchline" : 				{
					"source" : [ "obj-50", 1 ],
					"destination" : [ "obj-56", 0 ],
					"hidden" : 0,
					"midpoints" : [  ]
				}

			}
, 			{
				"patchline" : 				{
					"source" : [ "obj-30", 0 ],
					"destination" : [ "obj-12", 0 ],
					"hidden" : 0,
					"midpoints" : [  ]
				}

			}
, 			{
				"patchline" : 				{
					"source" : [ "obj-17", 0 ],
					"destination" : [ "obj-12", 0 ],
					"hidden" : 0,
					"midpoints" : [  ]
				}

			}
, 			{
				"patchline" : 				{
					"source" : [ "obj-8", 0 ],
					"destination" : [ "obj-16", 0 ],
					"hidden" : 0,
					"midpoints" : [  ]
				}

			}
, 			{
				"patchline" : 				{
					"source" : [ "obj-16", 0 ],
					"destination" : [ "obj-12", 0 ],
					"hidden" : 0,
					"midpoints" : [  ]
				}

			}
, 			{
				"patchline" : 				{
					"source" : [ "obj-14", 0 ],
					"destination" : [ "obj-12", 0 ],
					"hidden" : 0,
					"midpoints" : [  ]
				}

			}
, 			{
				"patchline" : 				{
					"source" : [ "obj-15", 0 ],
					"destination" : [ "obj-12", 0 ],
					"hidden" : 0,
					"midpoints" : [  ]
				}

			}
, 			{
				"patchline" : 				{
					"source" : [ "obj-46", 0 ],
					"destination" : [ "obj-12", 0 ],
					"hidden" : 0,
					"midpoints" : [  ]
				}

			}
, 			{
				"patchline" : 				{
					"source" : [ "obj-9", 1 ],
					"destination" : [ "obj-17", 0 ],
					"hidden" : 0,
					"midpoints" : [  ]
				}

			}
, 			{
				"patchline" : 				{
					"source" : [ "obj-5", 1 ],
					"destination" : [ "obj-14", 0 ],
					"hidden" : 0,
					"midpoints" : [  ]
				}

			}
, 			{
				"patchline" : 				{
					"source" : [ "obj-6", 0 ],
					"destination" : [ "obj-15", 0 ],
					"hidden" : 0,
					"midpoints" : [  ]
				}

			}
, 			{
				"patchline" : 				{
					"source" : [ "obj-52", 0 ],
					"destination" : [ "obj-50", 0 ],
					"hidden" : 0,
					"midpoints" : [  ]
				}

			}
, 			{
				"patchline" : 				{
					"source" : [ "obj-50", 0 ],
					"destination" : [ "obj-55", 0 ],
					"hidden" : 0,
					"midpoints" : [  ]
				}

			}
, 			{
				"patchline" : 				{
					"source" : [ "obj-55", 0 ],
					"destination" : [ "obj-9", 0 ],
					"hidden" : 0,
					"midpoints" : [  ]
				}

			}
, 			{
				"patchline" : 				{
					"source" : [ "obj-51", 0 ],
					"destination" : [ "obj-49", 0 ],
					"hidden" : 0,
					"midpoints" : [  ]
				}

			}
, 			{
				"patchline" : 				{
					"source" : [ "obj-49", 0 ],
					"destination" : [ "obj-57", 0 ],
					"hidden" : 0,
					"midpoints" : [  ]
				}

			}
, 			{
				"patchline" : 				{
					"source" : [ "obj-57", 0 ],
					"destination" : [ "obj-9", 0 ],
					"hidden" : 0,
					"midpoints" : [  ]
				}

			}
 ],
		"parameters" : 		{
			"obj-5" : [ "live.menu[29]", "live.menu", 0 ],
			"obj-21" : [ "live.menu[33]", "live.menu", 0 ],
			"obj-22" : [ "live.menu[24]", "live.menu", 0 ],
			"obj-3" : [ "live.menu[30]", "live.menu", 0 ],
			"obj-13" : [ "live.menu[26]", "live.menu", 0 ],
			"obj-18" : [ "live.menu[21]", "live.menu", 0 ],
			"obj-2" : [ "live.menu[35]", "live.menu", 0 ],
			"obj-19" : [ "live.menu[34]", "live.menu", 0 ],
			"obj-6" : [ "live.text[1]", "live.menu", 0 ],
			"obj-37" : [ "live.menu[27]", "live.menu", 0 ],
			"obj-40" : [ "live.menu[23]", "live.menu", 0 ],
			"obj-33" : [ "live.menu[36]", "live.menu", 0 ],
			"obj-36" : [ "live.menu[32]", "live.menu", 0 ],
			"obj-32" : [ "live.menu[28]", "live.menu", 0 ],
			"obj-11" : [ "live.menu[25]", "live.menu", 0 ],
			"obj-8" : [ "live.menu[20]", "live.menu", 0 ],
			"obj-20" : [ "live.menu[31]", "live.menu", 0 ],
			"obj-9" : [ "live.menu[22]", "live.menu", 0 ]
		}

	}

}
