{
	"patcher" : 	{
		"fileversion" : 1,
		"rect" : [ 848.0, 44.0, 1243.0, 1017.0 ],
		"bglocked" : 0,
		"defrect" : [ 848.0, 44.0, 1243.0, 1017.0 ],
		"openrect" : [ 0.0, 0.0, 0.0, 0.0 ],
		"openinpresentation" : 1,
		"default_fontsize" : 12.0,
		"default_fontface" : 0,
		"default_fontname" : "Andale Mono",
		"gridonopen" : 0,
		"gridsize" : [ 8.0, 8.0 ],
		"gridsnaponopen" : 0,
		"toolbarvisible" : 1,
		"boxanimatetime" : 200,
		"imprint" : 0,
		"enablehscroll" : 1,
		"enablevscroll" : 1,
		"devicewidth" : 0.0,
		"boxes" : [ 			{
				"box" : 				{
					"maxclass" : "inlet",
					"id" : "obj-79",
					"numinlets" : 0,
					"numoutlets" : 1,
					"outlettype" : [ "" ],
					"patching_rect" : [ 556.0, 36.0, 25.0, 25.0 ],
					"comment" : "accepts UI ignoreclick and readonly messsages"
				}

			}
, 			{
				"box" : 				{
					"maxclass" : "message",
					"text" : "1",
					"id" : "obj-78",
					"fontname" : "Andale Mono",
					"numinlets" : 2,
					"numoutlets" : 1,
					"fontsize" : 12.0,
					"outlettype" : [ "" ],
					"patching_rect" : [ 544.0, 313.0, 32.5, 18.0 ]
				}

			}
, 			{
				"box" : 				{
					"maxclass" : "message",
					"text" : "set",
					"id" : "obj-77",
					"fontname" : "Andale Mono",
					"numinlets" : 2,
					"numoutlets" : 1,
					"fontsize" : 12.0,
					"outlettype" : [ "" ],
					"patching_rect" : [ 283.0, 375.0, 32.5, 18.0 ]
				}

			}
, 			{
				"box" : 				{
					"maxclass" : "newobj",
					"text" : "loadbang",
					"id" : "obj-63",
					"fontname" : "Andale Mono",
					"numinlets" : 1,
					"numoutlets" : 1,
					"fontsize" : 12.0,
					"outlettype" : [ "bang" ],
					"patching_rect" : [ 10.0, 152.0, 68.0, 20.0 ]
				}

			}
, 			{
				"box" : 				{
					"maxclass" : "button",
					"id" : "obj-46",
					"numinlets" : 1,
					"numoutlets" : 1,
					"outlettype" : [ "bang" ],
					"patching_rect" : [ 62.0, 181.0, 20.0, 20.0 ]
				}

			}
, 			{
				"box" : 				{
					"maxclass" : "message",
					"text" : "m0000146",
					"linecount" : 3,
					"id" : "obj-76",
					"fontname" : "Andale Mono",
					"numinlets" : 2,
					"numoutlets" : 1,
					"fontsize" : 12.0,
					"outlettype" : [ "" ],
					"patching_rect" : [ 214.0, 330.0, 32.5, 45.0 ]
				}

			}
, 			{
				"box" : 				{
					"maxclass" : "newobj",
					"text" : "gate 1",
					"id" : "obj-51",
					"fontname" : "Andale Mono",
					"numinlets" : 2,
					"numoutlets" : 1,
					"fontsize" : 12.0,
					"outlettype" : [ "" ],
					"patching_rect" : [ 894.0, 776.0, 54.0, 20.0 ]
				}

			}
, 			{
				"box" : 				{
					"maxclass" : "comment",
					"text" : "This input is tied to 7ups start button. The start button will send 1 when starting and signal this patch to get out of the way",
					"linecount" : 6,
					"id" : "obj-48",
					"fontname" : "Andale Mono",
					"textcolor" : [ 0.87451, 0.027451, 0.027451, 1.0 ],
					"numinlets" : 1,
					"numoutlets" : 0,
					"fontsize" : 12.0,
					"frgb" : [ 0.87451, 0.027451, 0.027451, 1.0 ],
					"patching_rect" : [ 500.0, 95.0, 177.0, 87.0 ]
				}

			}
, 			{
				"box" : 				{
					"maxclass" : "comment",
					"text" : "This part is trying to release the receive port after successful negotiation. Necessary for 7up to be able to gain it when we click connect",
					"linecount" : 8,
					"id" : "obj-37",
					"fontname" : "Andale Mono",
					"textcolor" : [ 0.87451, 0.027451, 0.027451, 1.0 ],
					"numinlets" : 1,
					"numoutlets" : 0,
					"fontsize" : 12.0,
					"frgb" : [ 0.87451, 0.027451, 0.027451, 1.0 ],
					"patching_rect" : [ 866.0, 8.0, 163.0, 114.0 ]
				}

			}
, 			{
				"box" : 				{
					"maxclass" : "newobj",
					"text" : "s ---rcvport",
					"id" : "obj-56",
					"fontname" : "Andale Mono",
					"numinlets" : 1,
					"numoutlets" : 0,
					"fontsize" : 12.0,
					"patching_rect" : [ 948.0, 428.0, 97.0, 20.0 ]
				}

			}
, 			{
				"box" : 				{
					"maxclass" : "newobj",
					"text" : "s ---rcvport",
					"id" : "obj-75",
					"fontname" : "Andale Mono",
					"numinlets" : 1,
					"numoutlets" : 0,
					"fontsize" : 12.0,
					"patching_rect" : [ 869.0, 227.0, 97.0, 20.0 ]
				}

			}
, 			{
				"box" : 				{
					"maxclass" : "message",
					"text" : "1",
					"id" : "obj-74",
					"fontname" : "Andale Mono",
					"numinlets" : 2,
					"numoutlets" : 1,
					"fontsize" : 12.0,
					"outlettype" : [ "" ],
					"patching_rect" : [ 821.0, 69.0, 32.5, 18.0 ]
				}

			}
, 			{
				"box" : 				{
					"maxclass" : "toggle",
					"id" : "obj-73",
					"numinlets" : 1,
					"numoutlets" : 1,
					"outlettype" : [ "int" ],
					"patching_rect" : [ 635.0, 18.0, 20.0, 20.0 ]
				}

			}
, 			{
				"box" : 				{
					"maxclass" : "message",
					"text" : "0",
					"id" : "obj-72",
					"fontname" : "Andale Mono",
					"numinlets" : 2,
					"numoutlets" : 1,
					"fontsize" : 12.0,
					"outlettype" : [ "" ],
					"patching_rect" : [ 656.0, 72.0, 32.5, 18.0 ]
				}

			}
, 			{
				"box" : 				{
					"maxclass" : "newobj",
					"text" : "route 1 0",
					"id" : "obj-71",
					"fontname" : "Andale Mono",
					"numinlets" : 1,
					"numoutlets" : 3,
					"fontsize" : 12.0,
					"outlettype" : [ "", "", "" ],
					"patching_rect" : [ 657.0, 44.0, 75.0, 20.0 ]
				}

			}
, 			{
				"box" : 				{
					"maxclass" : "message",
					"text" : "port 13452",
					"id" : "obj-70",
					"fontname" : "Andale Mono",
					"numinlets" : 2,
					"numoutlets" : 1,
					"fontsize" : 12.0,
					"outlettype" : [ "" ],
					"patching_rect" : [ 869.0, 205.0, 83.0, 18.0 ]
				}

			}
, 			{
				"box" : 				{
					"maxclass" : "message",
					"text" : "port 0",
					"id" : "obj-69",
					"fontname" : "Andale Mono",
					"numinlets" : 2,
					"numoutlets" : 1,
					"fontsize" : 12.0,
					"outlettype" : [ "" ],
					"patching_rect" : [ 757.0, 45.0, 54.0, 18.0 ]
				}

			}
, 			{
				"box" : 				{
					"maxclass" : "newobj",
					"text" : "gate 1",
					"id" : "obj-68",
					"fontname" : "Andale Mono",
					"numinlets" : 2,
					"numoutlets" : 1,
					"fontsize" : 12.0,
					"outlettype" : [ "" ],
					"patching_rect" : [ 812.0, 205.0, 54.0, 20.0 ]
				}

			}
, 			{
				"box" : 				{
					"maxclass" : "newobj",
					"text" : "r ---rcvport",
					"id" : "obj-66",
					"fontname" : "Andale Mono",
					"numinlets" : 0,
					"numoutlets" : 1,
					"fontsize" : 12.0,
					"outlettype" : [ "" ],
					"patching_rect" : [ 848.0, 138.0, 97.0, 20.0 ]
				}

			}
, 			{
				"box" : 				{
					"maxclass" : "inlet",
					"id" : "obj-67",
					"numinlets" : 0,
					"numoutlets" : 1,
					"outlettype" : [ "" ],
					"patching_rect" : [ 477.0, 194.0, 25.0, 25.0 ],
					"comment" : ""
				}

			}
, 			{
				"box" : 				{
					"maxclass" : "outlet",
					"id" : "obj-65",
					"numinlets" : 1,
					"numoutlets" : 0,
					"patching_rect" : [ 60.0, 802.0, 25.0, 25.0 ],
					"comment" : "Prefix"
				}

			}
, 			{
				"box" : 				{
					"maxclass" : "newobj",
					"text" : "route /sys/prefix /sys/port port",
					"id" : "obj-61",
					"fontname" : "Andale Mono",
					"numinlets" : 1,
					"numoutlets" : 4,
					"fontsize" : 12.0,
					"outlettype" : [ "", "", "", "" ],
					"patching_rect" : [ 96.0, 760.0, 241.0, 20.0 ]
				}

			}
, 			{
				"box" : 				{
					"maxclass" : "outlet",
					"id" : "obj-55",
					"numinlets" : 1,
					"numoutlets" : 0,
					"patching_rect" : [ 121.0, 802.0, 25.0, 25.0 ],
					"comment" : "Host port"
				}

			}
, 			{
				"box" : 				{
					"maxclass" : "outlet",
					"id" : "obj-52",
					"numinlets" : 1,
					"numoutlets" : 0,
					"patching_rect" : [ 91.0, 802.0, 25.0, 25.0 ],
					"comment" : "Application Port"
				}

			}
, 			{
				"box" : 				{
					"maxclass" : "button",
					"id" : "obj-42",
					"numinlets" : 1,
					"numoutlets" : 1,
					"outlettype" : [ "bang" ],
					"patching_rect" : [ 704.0, 602.0, 20.0, 20.0 ]
				}

			}
, 			{
				"box" : 				{
					"maxclass" : "newobj",
					"text" : "pak #1 5555",
					"id" : "obj-36",
					"fontname" : "Andale Mono",
					"numinlets" : 2,
					"numoutlets" : 1,
					"fontsize" : 12.0,
					"outlettype" : [ "" ],
					"patching_rect" : [ 648.0, 666.0, 90.0, 20.0 ]
				}

			}
, 			{
				"box" : 				{
					"maxclass" : "newobj",
					"text" : "sprintf script newobject newobj @text \\\"zeroconf.service @name %s @port %s @type _osc._udp\\\"",
					"linecount" : 2,
					"id" : "obj-50",
					"fontname" : "Andale Mono",
					"numinlets" : 2,
					"numoutlets" : 1,
					"fontsize" : 12.0,
					"outlettype" : [ "" ],
					"patching_rect" : [ 432.0, 714.0, 594.0, 33.0 ]
				}

			}
, 			{
				"box" : 				{
					"maxclass" : "newobj",
					"text" : "i",
					"id" : "obj-53",
					"fontname" : "Andale Mono",
					"numinlets" : 2,
					"numoutlets" : 1,
					"fontsize" : 12.0,
					"outlettype" : [ "int" ],
					"patching_rect" : [ 792.0, 666.0, 32.5, 20.0 ]
				}

			}
, 			{
				"box" : 				{
					"maxclass" : "newobj",
					"text" : "thispatcher",
					"id" : "obj-47",
					"fontname" : "Andale Mono",
					"numinlets" : 1,
					"numoutlets" : 2,
					"fontsize" : 12.0,
					"outlettype" : [ "", "" ],
					"patching_rect" : [ 592.0, 762.0, 90.0, 20.0 ],
					"save" : [ "#N", "thispatcher", ";", "#Q", "end", ";" ]
				}

			}
, 			{
				"box" : 				{
					"maxclass" : "message",
					"text" : "/sys/port $1",
					"id" : "obj-40",
					"fontname" : "Andale Mono",
					"numinlets" : 2,
					"numoutlets" : 1,
					"fontsize" : 12.0,
					"outlettype" : [ "" ],
					"patching_rect" : [ 256.0, 530.0, 97.0, 18.0 ]
				}

			}
, 			{
				"box" : 				{
					"maxclass" : "button",
					"id" : "obj-64",
					"numinlets" : 1,
					"numoutlets" : 1,
					"outlettype" : [ "bang" ],
					"patching_rect" : [ 896.0, 674.0, 20.0, 20.0 ]
				}

			}
, 			{
				"box" : 				{
					"maxclass" : "newobj",
					"text" : "sel 1",
					"id" : "obj-62",
					"fontname" : "Andale Mono",
					"numinlets" : 2,
					"numoutlets" : 2,
					"fontsize" : 12.0,
					"outlettype" : [ "bang", "" ],
					"patching_rect" : [ 864.0, 642.0, 47.0, 20.0 ]
				}

			}
, 			{
				"box" : 				{
					"maxclass" : "newobj",
					"text" : "t 1",
					"id" : "obj-10",
					"fontname" : "Andale Mono",
					"numinlets" : 1,
					"numoutlets" : 1,
					"fontsize" : 12.0,
					"outlettype" : [ "int" ],
					"patching_rect" : [ 944.0, 562.0, 32.0, 20.0 ]
				}

			}
, 			{
				"box" : 				{
					"maxclass" : "message",
					"text" : "/test/confirm",
					"id" : "obj-43",
					"fontname" : "Andale Mono",
					"numinlets" : 2,
					"numoutlets" : 1,
					"fontsize" : 12.0,
					"outlettype" : [ "" ],
					"patching_rect" : [ 816.0, 562.0, 104.0, 18.0 ]
				}

			}
, 			{
				"box" : 				{
					"maxclass" : "message",
					"text" : "set 0",
					"id" : "obj-24",
					"fontname" : "Andale Mono",
					"numinlets" : 2,
					"numoutlets" : 1,
					"fontsize" : 12.0,
					"outlettype" : [ "" ],
					"patching_rect" : [ 736.0, 562.0, 47.0, 18.0 ]
				}

			}
, 			{
				"box" : 				{
					"maxclass" : "newobj",
					"text" : "sel /test/ping /test/confirm",
					"id" : "obj-11",
					"fontname" : "Andale Mono",
					"numinlets" : 1,
					"numoutlets" : 3,
					"fontsize" : 12.0,
					"outlettype" : [ "bang", "bang", "" ],
					"patching_rect" : [ 816.0, 530.0, 212.0, 20.0 ]
				}

			}
, 			{
				"box" : 				{
					"maxclass" : "newobj",
					"text" : "accum",
					"id" : "obj-19",
					"fontname" : "Andale Mono",
					"numinlets" : 3,
					"numoutlets" : 1,
					"fontsize" : 12.0,
					"outlettype" : [ "int" ],
					"patching_rect" : [ 800.0, 594.0, 47.0, 20.0 ]
				}

			}
, 			{
				"box" : 				{
					"maxclass" : "newobj",
					"text" : "del 100",
					"id" : "obj-14",
					"fontname" : "Andale Mono",
					"numinlets" : 2,
					"numoutlets" : 1,
					"fontsize" : 12.0,
					"outlettype" : [ "bang" ],
					"patching_rect" : [ 752.0, 482.0, 61.0, 20.0 ]
				}

			}
, 			{
				"box" : 				{
					"maxclass" : "message",
					"text" : "/test/ping",
					"id" : "obj-17",
					"fontname" : "Andale Mono",
					"numinlets" : 2,
					"numoutlets" : 1,
					"fontsize" : 12.0,
					"outlettype" : [ "" ],
					"patching_rect" : [ 800.0, 402.0, 83.0, 18.0 ]
				}

			}
, 			{
				"box" : 				{
					"maxclass" : "newobj",
					"text" : "udpsend localhost 17812",
					"id" : "obj-21",
					"fontname" : "Andale Mono",
					"numinlets" : 1,
					"numoutlets" : 0,
					"fontsize" : 12.0,
					"patching_rect" : [ 944.0, 482.0, 176.0, 20.0 ]
				}

			}
, 			{
				"box" : 				{
					"maxclass" : "message",
					"text" : "port $1",
					"id" : "obj-25",
					"fontname" : "Andale Mono",
					"numinlets" : 2,
					"numoutlets" : 1,
					"fontsize" : 12.0,
					"outlettype" : [ "" ],
					"patching_rect" : [ 928.0, 402.0, 61.0, 18.0 ]
				}

			}
, 			{
				"box" : 				{
					"maxclass" : "newobj",
					"text" : "t b i b b",
					"id" : "obj-27",
					"fontname" : "Andale Mono",
					"numinlets" : 1,
					"numoutlets" : 4,
					"fontsize" : 12.0,
					"outlettype" : [ "bang", "int", "bang", "bang" ],
					"patching_rect" : [ 880.0, 347.0, 75.0, 20.0 ]
				}

			}
, 			{
				"box" : 				{
					"maxclass" : "newobj",
					"text" : "udpreceive 17812",
					"id" : "obj-28",
					"fontname" : "Andale Mono",
					"numinlets" : 1,
					"numoutlets" : 1,
					"fontsize" : 12.0,
					"outlettype" : [ "" ],
					"patching_rect" : [ 816.0, 482.0, 126.0, 20.0 ]
				}

			}
, 			{
				"box" : 				{
					"maxclass" : "newobj",
					"text" : "+ 10000",
					"id" : "obj-30",
					"fontname" : "Andale Mono",
					"numinlets" : 2,
					"numoutlets" : 1,
					"fontsize" : 12.0,
					"outlettype" : [ "int" ],
					"patching_rect" : [ 880.0, 322.0, 61.0, 20.0 ]
				}

			}
, 			{
				"box" : 				{
					"maxclass" : "newobj",
					"text" : "random 30000",
					"id" : "obj-31",
					"fontname" : "Andale Mono",
					"numinlets" : 2,
					"numoutlets" : 1,
					"fontsize" : 12.0,
					"outlettype" : [ "int" ],
					"patching_rect" : [ 865.0, 286.0, 97.0, 20.0 ]
				}

			}
, 			{
				"box" : 				{
					"maxclass" : "newobj",
					"text" : "loadbang",
					"id" : "obj-32",
					"fontname" : "Andale Mono",
					"numinlets" : 1,
					"numoutlets" : 1,
					"fontsize" : 12.0,
					"outlettype" : [ "bang" ],
					"patching_rect" : [ 863.0, 249.0, 68.0, 20.0 ]
				}

			}
, 			{
				"box" : 				{
					"maxclass" : "button",
					"id" : "obj-15",
					"numinlets" : 1,
					"numoutlets" : 1,
					"outlettype" : [ "bang" ],
					"patching_rect" : [ 656.0, 402.0, 20.0, 20.0 ]
				}

			}
, 			{
				"box" : 				{
					"maxclass" : "newobj",
					"text" : "change",
					"id" : "obj-8",
					"fontname" : "Andale Mono",
					"numinlets" : 1,
					"numoutlets" : 3,
					"fontsize" : 12.0,
					"outlettype" : [ "", "int", "int" ],
					"patching_rect" : [ 576.0, 370.0, 54.0, 20.0 ]
				}

			}
, 			{
				"box" : 				{
					"maxclass" : "message",
					"text" : "/sys/info",
					"id" : "obj-54",
					"fontname" : "Andale Mono",
					"numinlets" : 2,
					"numoutlets" : 1,
					"fontsize" : 12.0,
					"outlettype" : [ "" ],
					"patching_rect" : [ 16.0, 562.0, 75.0, 18.0 ]
				}

			}
, 			{
				"box" : 				{
					"maxclass" : "comment",
					"presentation" : 1,
					"id" : "obj-44",
					"fontname" : "Andale Mono",
					"numinlets" : 1,
					"numoutlets" : 0,
					"fontsize" : 7.422506,
					"presentation_rect" : [ 199.0, 12.971832, 142.0, 15.0 ],
					"patching_rect" : [ 265.0, 238.971832, 142.0, 15.0 ]
				}

			}
, 			{
				"box" : 				{
					"maxclass" : "message",
					"text" : "set",
					"id" : "obj-41",
					"fontname" : "Andale Mono",
					"numinlets" : 2,
					"numoutlets" : 1,
					"fontsize" : 12.0,
					"outlettype" : [ "" ],
					"patching_rect" : [ 270.0, 355.0, 32.5, 18.0 ]
				}

			}
, 			{
				"box" : 				{
					"maxclass" : "message",
					"text" : "set prefix: $1",
					"id" : "obj-39",
					"fontname" : "Andale Mono",
					"numinlets" : 2,
					"numoutlets" : 1,
					"fontsize" : 12.0,
					"outlettype" : [ "" ],
					"patching_rect" : [ 432.0, 290.0, 111.0, 18.0 ]
				}

			}
, 			{
				"box" : 				{
					"maxclass" : "comment",
					"presentation" : 1,
					"id" : "obj-38",
					"fontname" : "Andale Mono",
					"numinlets" : 1,
					"numoutlets" : 0,
					"fontsize" : 8.393172,
					"presentation_rect" : [ 199.0, 15.971832, 142.0, 16.0 ],
					"patching_rect" : [ 264.0, 218.971832, 142.0, 16.0 ]
				}

			}
, 			{
				"box" : 				{
					"maxclass" : "textbutton",
					"presentation" : 1,
					"id" : "obj-5",
					"bgcolor" : [ 1.0, 1.0, 1.0, 1.0 ],
					"fontname" : "Andale Mono",
					"rounded" : 4.0,
					"numinlets" : 1,
					"bgoncolor" : [ 0.658824, 0.658824, 0.658824, 1.0 ],
					"numoutlets" : 3,
					"textoncolor" : [ 0.0, 0.0, 0.0, 1.0 ],
					"fontsize" : 9.0,
					"textoveroncolor" : [ 0.0, 0.0, 0.0, 1.0 ],
					"outlettype" : [ "", "", "int" ],
					"presentation_rect" : [ 123.0, 11.0, 68.0, 17.0 ],
					"text" : "connect",
					"bgovercolor" : [ 0.8, 0.8, 0.8, 1.0 ],
					"patching_rect" : [ 195.0, 215.0, 68.0, 17.0 ]
				}

			}
, 			{
				"box" : 				{
					"maxclass" : "newobj",
					"text" : "t b b",
					"id" : "obj-9",
					"fontname" : "Andale Mono",
					"numinlets" : 1,
					"numoutlets" : 2,
					"fontsize" : 12.0,
					"outlettype" : [ "bang", "bang" ],
					"patching_rect" : [ 208.0, 274.0, 47.0, 20.0 ]
				}

			}
, 			{
				"box" : 				{
					"maxclass" : "outlet",
					"hint" : "",
					"id" : "obj-4",
					"numinlets" : 1,
					"numoutlets" : 0,
					"patching_rect" : [ 320.0, 402.0, 25.0, 25.0 ],
					"comment" : "connected"
				}

			}
, 			{
				"box" : 				{
					"maxclass" : "outlet",
					"hint" : "disconnected",
					"id" : "obj-3",
					"numinlets" : 1,
					"numoutlets" : 0,
					"patching_rect" : [ 352.0, 402.0, 25.0, 25.0 ],
					"comment" : "disconnected"
				}

			}
, 			{
				"box" : 				{
					"maxclass" : "message",
					"text" : "m0000146",
					"id" : "obj-23",
					"fontname" : "Andale Mono",
					"numinlets" : 2,
					"numoutlets" : 1,
					"fontsize" : 12.0,
					"outlettype" : [ "" ],
					"patching_rect" : [ 112.0, 386.0, 113.0, 18.0 ]
				}

			}
, 			{
				"box" : 				{
					"maxclass" : "button",
					"id" : "obj-12",
					"numinlets" : 1,
					"numoutlets" : 1,
					"outlettype" : [ "bang" ],
					"patching_rect" : [ 112.0, 338.0, 20.0, 20.0 ]
				}

			}
, 			{
				"box" : 				{
					"maxclass" : "inlet",
					"hint" : "connect",
					"id" : "obj-60",
					"numinlets" : 0,
					"numoutlets" : 1,
					"outlettype" : [ "" ],
					"patching_rect" : [ 448.0, 194.0, 25.0, 25.0 ],
					"comment" : "connect"
				}

			}
, 			{
				"box" : 				{
					"maxclass" : "outlet",
					"hint" : "osc out",
					"id" : "obj-59",
					"numinlets" : 1,
					"numoutlets" : 0,
					"patching_rect" : [ 288.0, 402.0, 25.0, 25.0 ],
					"comment" : "osc out"
				}

			}
, 			{
				"box" : 				{
					"maxclass" : "newobj",
					"text" : "gate",
					"id" : "obj-58",
					"fontname" : "Andale Mono",
					"numinlets" : 2,
					"numoutlets" : 1,
					"fontsize" : 12.0,
					"outlettype" : [ "" ],
					"patching_rect" : [ 384.0, 610.0, 39.0, 20.0 ]
				}

			}
, 			{
				"box" : 				{
					"maxclass" : "inlet",
					"hint" : "osc in",
					"id" : "obj-57",
					"numinlets" : 0,
					"numoutlets" : 1,
					"outlettype" : [ "" ],
					"patching_rect" : [ 416.0, 194.0, 25.0, 25.0 ],
					"comment" : "osc in"
				}

			}
, 			{
				"box" : 				{
					"maxclass" : "message",
					"text" : "/sys/prefix #1",
					"id" : "obj-49",
					"fontname" : "Andale Mono",
					"numinlets" : 2,
					"numoutlets" : 1,
					"fontsize" : 12.0,
					"outlettype" : [ "" ],
					"patching_rect" : [ 96.0, 562.0, 111.0, 18.0 ]
				}

			}
, 			{
				"box" : 				{
					"maxclass" : "message",
					"text" : "set not connected",
					"id" : "obj-45",
					"fontname" : "Andale Mono",
					"numinlets" : 2,
					"numoutlets" : 1,
					"fontsize" : 12.0,
					"outlettype" : [ "" ],
					"patching_rect" : [ 288.0, 322.0, 133.0, 18.0 ]
				}

			}
, 			{
				"box" : 				{
					"maxclass" : "newobj",
					"text" : "sel 0 1",
					"id" : "obj-35",
					"fontname" : "Andale Mono",
					"numinlets" : 1,
					"numoutlets" : 3,
					"fontsize" : 12.0,
					"outlettype" : [ "bang", "bang", "" ],
					"patching_rect" : [ 320.0, 290.0, 61.0, 20.0 ]
				}

			}
, 			{
				"box" : 				{
					"maxclass" : "comment",
					"presentation" : 1,
					"id" : "obj-33",
					"fontname" : "Andale Mono",
					"numinlets" : 1,
					"numoutlets" : 0,
					"fontsize" : 8.512057,
					"presentation_rect" : [ 199.0, 7.971832, 142.0, 16.0 ],
					"patching_rect" : [ 264.0, 194.971832, 142.0, 16.0 ]
				}

			}
, 			{
				"box" : 				{
					"maxclass" : "newobj",
					"text" : "t b b s",
					"id" : "obj-29",
					"fontname" : "Andale Mono",
					"numinlets" : 1,
					"numoutlets" : 3,
					"fontsize" : 12.0,
					"outlettype" : [ "bang", "bang", "" ],
					"patching_rect" : [ 112.0, 498.0, 61.0, 20.0 ]
				}

			}
, 			{
				"box" : 				{
					"maxclass" : "newobj",
					"text" : "== 17812",
					"id" : "obj-7",
					"fontname" : "Andale Mono",
					"numinlets" : 2,
					"numoutlets" : 1,
					"fontsize" : 12.0,
					"outlettype" : [ "int" ],
					"patching_rect" : [ 576.0, 402.0, 68.0, 20.0 ]
				}

			}
, 			{
				"box" : 				{
					"maxclass" : "message",
					"text" : "/sys/port 13452",
					"id" : "obj-26",
					"fontname" : "Andale Mono",
					"numinlets" : 2,
					"numoutlets" : 1,
					"fontsize" : 12.0,
					"outlettype" : [ "" ],
					"patching_rect" : [ 256.0, 562.0, 146.0, 18.0 ]
				}

			}
, 			{
				"box" : 				{
					"maxclass" : "newobj",
					"text" : "route /sys/prefix /sys/port /sys/id",
					"id" : "obj-18",
					"fontname" : "Andale Mono",
					"numinlets" : 1,
					"numoutlets" : 4,
					"fontsize" : 12.0,
					"outlettype" : [ "", "", "", "" ],
					"patching_rect" : [ 527.0, 243.0, 263.0, 20.0 ]
				}

			}
, 			{
				"box" : 				{
					"maxclass" : "message",
					"text" : "name $1, bang",
					"id" : "obj-13",
					"fontname" : "Andale Mono",
					"numinlets" : 2,
					"numoutlets" : 1,
					"fontsize" : 12.0,
					"outlettype" : [ "" ],
					"patching_rect" : [ 112.0, 418.0, 104.0, 18.0 ]
				}

			}
, 			{
				"box" : 				{
					"maxclass" : "message",
					"text" : "set connected: $1",
					"id" : "obj-22",
					"fontname" : "Andale Mono",
					"numinlets" : 2,
					"numoutlets" : 1,
					"fontsize" : 12.0,
					"outlettype" : [ "" ],
					"patching_rect" : [ 423.0, 419.0, 133.0, 18.0 ]
				}

			}
, 			{
				"box" : 				{
					"maxclass" : "newobj",
					"text" : "udpreceive 17812",
					"id" : "obj-20",
					"fontname" : "Andale Mono",
					"numinlets" : 1,
					"numoutlets" : 1,
					"fontsize" : 12.0,
					"outlettype" : [ "" ],
					"patching_rect" : [ 529.0, 209.0, 126.0, 20.0 ]
				}

			}
, 			{
				"box" : 				{
					"maxclass" : "newobj",
					"text" : "udpsend localhost 17812",
					"id" : "obj-16",
					"fontname" : "Andale Mono",
					"numinlets" : 1,
					"numoutlets" : 0,
					"fontsize" : 12.0,
					"patching_rect" : [ 160.0, 706.0, 180.0, 20.0 ]
				}

			}
, 			{
				"box" : 				{
					"maxclass" : "newobj",
					"text" : "zeroconf.resolve @domain local. @type _monome-osc._udp",
					"id" : "obj-6",
					"fontname" : "Andale Mono",
					"numinlets" : 1,
					"numoutlets" : 1,
					"fontsize" : 12.0,
					"outlettype" : [ "" ],
					"patching_rect" : [ 112.0, 450.0, 399.0, 20.0 ]
				}

			}
, 			{
				"box" : 				{
					"maxclass" : "umenu",
					"presentation" : 1,
					"id" : "obj-2",
					"fontname" : "Andale Mono",
					"rounded" : 4,
					"framecolor" : [ 0.25098, 0.25098, 0.25098, 1.0 ],
					"textcolor" : [ 0.0, 0.0, 0.0, 1.0 ],
					"numinlets" : 1,
					"numoutlets" : 3,
					"fontsize" : 9.0,
					"arrowcolor" : [ 1.0, 1.0, 1.0, 1.0 ],
					"outlettype" : [ "int", "", "" ],
					"arrowframe" : 0,
					"presentation_rect" : [ 13.0, 11.0, 106.0, 17.0 ],
					"items" : [ "m0000146", ",", "m128-400" ],
					"types" : [  ],
					"align" : 1,
					"patching_rect" : [ 85.0, 215.0, 106.0, 17.0 ]
				}

			}
, 			{
				"box" : 				{
					"maxclass" : "newobj",
					"text" : "zeroconf.browser @type _monome-osc._udp @domain local.",
					"id" : "obj-1",
					"fontname" : "Andale Mono",
					"numinlets" : 1,
					"numoutlets" : 1,
					"fontsize" : 12.0,
					"outlettype" : [ "" ],
					"patching_rect" : [ 96.0, 162.0, 399.0, 20.0 ]
				}

			}
, 			{
				"box" : 				{
					"maxclass" : "newobj",
					"text" : "zeroconf.service @name #1 @port 5555 @type _osc._udp",
					"id" : "obj-34",
					"fontname" : "Andale Mono",
					"numinlets" : 1,
					"numoutlets" : 0,
					"fontsize" : 12.0,
					"patching_rect" : [ 17.0, 127.0, 383.0, 20.0 ]
				}

			}
 ],
		"lines" : [ 			{
				"patchline" : 				{
					"source" : [ "obj-79", 0 ],
					"destination" : [ "obj-5", 0 ],
					"hidden" : 0,
					"midpoints" : [  ]
				}

			}
, 			{
				"patchline" : 				{
					"source" : [ "obj-77", 0 ],
					"destination" : [ "obj-44", 0 ],
					"hidden" : 0,
					"midpoints" : [  ]
				}

			}
, 			{
				"patchline" : 				{
					"source" : [ "obj-35", 1 ],
					"destination" : [ "obj-77", 0 ],
					"hidden" : 0,
					"midpoints" : [  ]
				}

			}
, 			{
				"patchline" : 				{
					"source" : [ "obj-76", 0 ],
					"destination" : [ "obj-22", 0 ],
					"hidden" : 0,
					"midpoints" : [  ]
				}

			}
, 			{
				"patchline" : 				{
					"source" : [ "obj-35", 1 ],
					"destination" : [ "obj-76", 0 ],
					"hidden" : 0,
					"midpoints" : [  ]
				}

			}
, 			{
				"patchline" : 				{
					"source" : [ "obj-35", 0 ],
					"destination" : [ "obj-41", 0 ],
					"hidden" : 0,
					"midpoints" : [  ]
				}

			}
, 			{
				"patchline" : 				{
					"source" : [ "obj-51", 0 ],
					"destination" : [ "obj-31", 0 ],
					"hidden" : 0,
					"midpoints" : [  ]
				}

			}
, 			{
				"patchline" : 				{
					"source" : [ "obj-72", 0 ],
					"destination" : [ "obj-51", 0 ],
					"hidden" : 0,
					"midpoints" : [  ]
				}

			}
, 			{
				"patchline" : 				{
					"source" : [ "obj-74", 0 ],
					"destination" : [ "obj-51", 0 ],
					"hidden" : 0,
					"midpoints" : [  ]
				}

			}
, 			{
				"patchline" : 				{
					"source" : [ "obj-64", 0 ],
					"destination" : [ "obj-51", 1 ],
					"hidden" : 0,
					"midpoints" : [  ]
				}

			}
, 			{
				"patchline" : 				{
					"source" : [ "obj-25", 0 ],
					"destination" : [ "obj-70", 1 ],
					"hidden" : 0,
					"midpoints" : [  ]
				}

			}
, 			{
				"patchline" : 				{
					"source" : [ "obj-69", 0 ],
					"destination" : [ "obj-75", 0 ],
					"hidden" : 0,
					"midpoints" : [  ]
				}

			}
, 			{
				"patchline" : 				{
					"source" : [ "obj-71", 0 ],
					"destination" : [ "obj-69", 0 ],
					"hidden" : 0,
					"midpoints" : [  ]
				}

			}
, 			{
				"patchline" : 				{
					"source" : [ "obj-70", 0 ],
					"destination" : [ "obj-75", 0 ],
					"hidden" : 0,
					"midpoints" : [  ]
				}

			}
, 			{
				"patchline" : 				{
					"source" : [ "obj-71", 1 ],
					"destination" : [ "obj-70", 0 ],
					"hidden" : 0,
					"midpoints" : [  ]
				}

			}
, 			{
				"patchline" : 				{
					"source" : [ "obj-72", 0 ],
					"destination" : [ "obj-68", 0 ],
					"hidden" : 0,
					"midpoints" : [  ]
				}

			}
, 			{
				"patchline" : 				{
					"source" : [ "obj-74", 0 ],
					"destination" : [ "obj-68", 0 ],
					"hidden" : 0,
					"midpoints" : [  ]
				}

			}
, 			{
				"patchline" : 				{
					"source" : [ "obj-71", 1 ],
					"destination" : [ "obj-74", 0 ],
					"hidden" : 0,
					"midpoints" : [  ]
				}

			}
, 			{
				"patchline" : 				{
					"source" : [ "obj-71", 0 ],
					"destination" : [ "obj-72", 0 ],
					"hidden" : 0,
					"midpoints" : [  ]
				}

			}
, 			{
				"patchline" : 				{
					"source" : [ "obj-73", 0 ],
					"destination" : [ "obj-71", 0 ],
					"hidden" : 0,
					"midpoints" : [  ]
				}

			}
, 			{
				"patchline" : 				{
					"source" : [ "obj-67", 0 ],
					"destination" : [ "obj-71", 0 ],
					"hidden" : 0,
					"midpoints" : [  ]
				}

			}
, 			{
				"patchline" : 				{
					"source" : [ "obj-66", 0 ],
					"destination" : [ "obj-68", 1 ],
					"hidden" : 0,
					"midpoints" : [  ]
				}

			}
, 			{
				"patchline" : 				{
					"source" : [ "obj-68", 0 ],
					"destination" : [ "obj-20", 0 ],
					"hidden" : 0,
					"midpoints" : [  ]
				}

			}
, 			{
				"patchline" : 				{
					"source" : [ "obj-68", 0 ],
					"destination" : [ "obj-28", 0 ],
					"hidden" : 0,
					"midpoints" : [  ]
				}

			}
, 			{
				"patchline" : 				{
					"source" : [ "obj-62", 0 ],
					"destination" : [ "obj-53", 0 ],
					"hidden" : 0,
					"midpoints" : [  ]
				}

			}
, 			{
				"patchline" : 				{
					"source" : [ "obj-27", 1 ],
					"destination" : [ "obj-53", 1 ],
					"hidden" : 0,
					"midpoints" : [  ]
				}

			}
, 			{
				"patchline" : 				{
					"source" : [ "obj-43", 0 ],
					"destination" : [ "obj-21", 0 ],
					"hidden" : 0,
					"midpoints" : [  ]
				}

			}
, 			{
				"patchline" : 				{
					"source" : [ "obj-17", 0 ],
					"destination" : [ "obj-21", 0 ],
					"hidden" : 0,
					"midpoints" : [  ]
				}

			}
, 			{
				"patchline" : 				{
					"source" : [ "obj-25", 0 ],
					"destination" : [ "obj-21", 0 ],
					"hidden" : 0,
					"midpoints" : [  ]
				}

			}
, 			{
				"patchline" : 				{
					"source" : [ "obj-28", 0 ],
					"destination" : [ "obj-11", 0 ],
					"hidden" : 0,
					"midpoints" : [  ]
				}

			}
, 			{
				"patchline" : 				{
					"source" : [ "obj-27", 1 ],
					"destination" : [ "obj-7", 1 ],
					"hidden" : 0,
					"midpoints" : [  ]
				}

			}
, 			{
				"patchline" : 				{
					"source" : [ "obj-7", 0 ],
					"destination" : [ "obj-58", 0 ],
					"hidden" : 0,
					"midpoints" : [  ]
				}

			}
, 			{
				"patchline" : 				{
					"source" : [ "obj-7", 0 ],
					"destination" : [ "obj-35", 0 ],
					"hidden" : 0,
					"midpoints" : [  ]
				}

			}
, 			{
				"patchline" : 				{
					"source" : [ "obj-8", 0 ],
					"destination" : [ "obj-7", 0 ],
					"hidden" : 0,
					"midpoints" : [  ]
				}

			}
, 			{
				"patchline" : 				{
					"source" : [ "obj-20", 0 ],
					"destination" : [ "obj-59", 0 ],
					"hidden" : 0,
					"midpoints" : [  ]
				}

			}
, 			{
				"patchline" : 				{
					"source" : [ "obj-20", 0 ],
					"destination" : [ "obj-18", 0 ],
					"hidden" : 0,
					"midpoints" : [  ]
				}

			}
, 			{
				"patchline" : 				{
					"source" : [ "obj-27", 1 ],
					"destination" : [ "obj-40", 0 ],
					"hidden" : 0,
					"midpoints" : [  ]
				}

			}
, 			{
				"patchline" : 				{
					"source" : [ "obj-40", 0 ],
					"destination" : [ "obj-26", 1 ],
					"hidden" : 0,
					"midpoints" : [  ]
				}

			}
, 			{
				"patchline" : 				{
					"source" : [ "obj-32", 0 ],
					"destination" : [ "obj-31", 0 ],
					"hidden" : 0,
					"midpoints" : [  ]
				}

			}
, 			{
				"patchline" : 				{
					"source" : [ "obj-31", 0 ],
					"destination" : [ "obj-30", 0 ],
					"hidden" : 0,
					"midpoints" : [  ]
				}

			}
, 			{
				"patchline" : 				{
					"source" : [ "obj-14", 0 ],
					"destination" : [ "obj-19", 0 ],
					"hidden" : 0,
					"midpoints" : [  ]
				}

			}
, 			{
				"patchline" : 				{
					"source" : [ "obj-24", 0 ],
					"destination" : [ "obj-19", 0 ],
					"hidden" : 0,
					"midpoints" : [  ]
				}

			}
, 			{
				"patchline" : 				{
					"source" : [ "obj-10", 0 ],
					"destination" : [ "obj-19", 1 ],
					"hidden" : 0,
					"midpoints" : [  ]
				}

			}
, 			{
				"patchline" : 				{
					"source" : [ "obj-11", 0 ],
					"destination" : [ "obj-43", 0 ],
					"hidden" : 0,
					"midpoints" : [  ]
				}

			}
, 			{
				"patchline" : 				{
					"source" : [ "obj-11", 1 ],
					"destination" : [ "obj-10", 0 ],
					"hidden" : 0,
					"midpoints" : [  ]
				}

			}
, 			{
				"patchline" : 				{
					"source" : [ "obj-27", 3 ],
					"destination" : [ "obj-24", 0 ],
					"hidden" : 0,
					"midpoints" : [  ]
				}

			}
, 			{
				"patchline" : 				{
					"source" : [ "obj-27", 1 ],
					"destination" : [ "obj-25", 0 ],
					"hidden" : 0,
					"midpoints" : [  ]
				}

			}
, 			{
				"patchline" : 				{
					"source" : [ "obj-30", 0 ],
					"destination" : [ "obj-27", 0 ],
					"hidden" : 0,
					"midpoints" : [  ]
				}

			}
, 			{
				"patchline" : 				{
					"source" : [ "obj-27", 0 ],
					"destination" : [ "obj-17", 0 ],
					"hidden" : 0,
					"midpoints" : [  ]
				}

			}
, 			{
				"patchline" : 				{
					"source" : [ "obj-27", 2 ],
					"destination" : [ "obj-14", 0 ],
					"hidden" : 0,
					"midpoints" : [  ]
				}

			}
, 			{
				"patchline" : 				{
					"source" : [ "obj-19", 0 ],
					"destination" : [ "obj-62", 0 ],
					"hidden" : 0,
					"midpoints" : [  ]
				}

			}
, 			{
				"patchline" : 				{
					"source" : [ "obj-62", 1 ],
					"destination" : [ "obj-64", 0 ],
					"hidden" : 0,
					"midpoints" : [  ]
				}

			}
, 			{
				"patchline" : 				{
					"source" : [ "obj-29", 0 ],
					"destination" : [ "obj-54", 0 ],
					"hidden" : 0,
					"midpoints" : [  ]
				}

			}
, 			{
				"patchline" : 				{
					"source" : [ "obj-8", 0 ],
					"destination" : [ "obj-15", 0 ],
					"hidden" : 0,
					"midpoints" : [  ]
				}

			}
, 			{
				"patchline" : 				{
					"source" : [ "obj-57", 0 ],
					"destination" : [ "obj-58", 1 ],
					"hidden" : 0,
					"midpoints" : [  ]
				}

			}
, 			{
				"patchline" : 				{
					"source" : [ "obj-35", 1 ],
					"destination" : [ "obj-4", 0 ],
					"hidden" : 0,
					"midpoints" : [  ]
				}

			}
, 			{
				"patchline" : 				{
					"source" : [ "obj-35", 0 ],
					"destination" : [ "obj-3", 0 ],
					"hidden" : 0,
					"midpoints" : [  ]
				}

			}
, 			{
				"patchline" : 				{
					"source" : [ "obj-35", 0 ],
					"destination" : [ "obj-45", 0 ],
					"hidden" : 0,
					"midpoints" : [  ]
				}

			}
, 			{
				"patchline" : 				{
					"source" : [ "obj-60", 0 ],
					"destination" : [ "obj-12", 0 ],
					"hidden" : 0,
					"midpoints" : [  ]
				}

			}
, 			{
				"patchline" : 				{
					"source" : [ "obj-12", 0 ],
					"destination" : [ "obj-23", 0 ],
					"hidden" : 0,
					"midpoints" : [  ]
				}

			}
, 			{
				"patchline" : 				{
					"source" : [ "obj-23", 0 ],
					"destination" : [ "obj-13", 0 ],
					"hidden" : 0,
					"midpoints" : [  ]
				}

			}
, 			{
				"patchline" : 				{
					"source" : [ "obj-2", 1 ],
					"destination" : [ "obj-23", 1 ],
					"hidden" : 1,
					"midpoints" : [  ]
				}

			}
, 			{
				"patchline" : 				{
					"source" : [ "obj-13", 0 ],
					"destination" : [ "obj-6", 0 ],
					"hidden" : 0,
					"midpoints" : [  ]
				}

			}
, 			{
				"patchline" : 				{
					"source" : [ "obj-1", 0 ],
					"destination" : [ "obj-2", 0 ],
					"hidden" : 1,
					"midpoints" : [  ]
				}

			}
, 			{
				"patchline" : 				{
					"source" : [ "obj-26", 0 ],
					"destination" : [ "obj-16", 0 ],
					"hidden" : 0,
					"midpoints" : [  ]
				}

			}
, 			{
				"patchline" : 				{
					"source" : [ "obj-6", 0 ],
					"destination" : [ "obj-29", 0 ],
					"hidden" : 0,
					"midpoints" : [  ]
				}

			}
, 			{
				"patchline" : 				{
					"source" : [ "obj-29", 2 ],
					"destination" : [ "obj-16", 0 ],
					"hidden" : 0,
					"midpoints" : [  ]
				}

			}
, 			{
				"patchline" : 				{
					"source" : [ "obj-29", 1 ],
					"destination" : [ "obj-26", 0 ],
					"hidden" : 0,
					"midpoints" : [  ]
				}

			}
, 			{
				"patchline" : 				{
					"source" : [ "obj-22", 0 ],
					"destination" : [ "obj-33", 0 ],
					"hidden" : 1,
					"midpoints" : [  ]
				}

			}
, 			{
				"patchline" : 				{
					"source" : [ "obj-49", 0 ],
					"destination" : [ "obj-16", 0 ],
					"hidden" : 0,
					"midpoints" : [  ]
				}

			}
, 			{
				"patchline" : 				{
					"source" : [ "obj-29", 0 ],
					"destination" : [ "obj-49", 0 ],
					"hidden" : 0,
					"midpoints" : [  ]
				}

			}
, 			{
				"patchline" : 				{
					"source" : [ "obj-58", 0 ],
					"destination" : [ "obj-16", 0 ],
					"hidden" : 0,
					"midpoints" : [  ]
				}

			}
, 			{
				"patchline" : 				{
					"source" : [ "obj-9", 0 ],
					"destination" : [ "obj-12", 0 ],
					"hidden" : 0,
					"midpoints" : [  ]
				}

			}
, 			{
				"patchline" : 				{
					"source" : [ "obj-9", 1 ],
					"destination" : [ "obj-2", 0 ],
					"hidden" : 1,
					"midpoints" : [  ]
				}

			}
, 			{
				"patchline" : 				{
					"source" : [ "obj-5", 0 ],
					"destination" : [ "obj-9", 0 ],
					"hidden" : 1,
					"midpoints" : [  ]
				}

			}
, 			{
				"patchline" : 				{
					"source" : [ "obj-18", 0 ],
					"destination" : [ "obj-39", 0 ],
					"hidden" : 0,
					"midpoints" : [  ]
				}

			}
, 			{
				"patchline" : 				{
					"source" : [ "obj-39", 0 ],
					"destination" : [ "obj-38", 0 ],
					"hidden" : 1,
					"midpoints" : [  ]
				}

			}
, 			{
				"patchline" : 				{
					"source" : [ "obj-41", 0 ],
					"destination" : [ "obj-38", 0 ],
					"hidden" : 1,
					"midpoints" : [  ]
				}

			}
, 			{
				"patchline" : 				{
					"source" : [ "obj-45", 0 ],
					"destination" : [ "obj-44", 0 ],
					"hidden" : 1,
					"midpoints" : [  ]
				}

			}
, 			{
				"patchline" : 				{
					"source" : [ "obj-18", 1 ],
					"destination" : [ "obj-8", 0 ],
					"hidden" : 0,
					"midpoints" : [  ]
				}

			}
, 			{
				"patchline" : 				{
					"source" : [ "obj-54", 0 ],
					"destination" : [ "obj-16", 0 ],
					"hidden" : 0,
					"midpoints" : [  ]
				}

			}
, 			{
				"patchline" : 				{
					"source" : [ "obj-53", 0 ],
					"destination" : [ "obj-36", 1 ],
					"hidden" : 0,
					"midpoints" : [  ]
				}

			}
, 			{
				"patchline" : 				{
					"source" : [ "obj-42", 0 ],
					"destination" : [ "obj-36", 1 ],
					"hidden" : 0,
					"midpoints" : [  ]
				}

			}
, 			{
				"patchline" : 				{
					"source" : [ "obj-36", 0 ],
					"destination" : [ "obj-50", 0 ],
					"hidden" : 0,
					"midpoints" : [  ]
				}

			}
, 			{
				"patchline" : 				{
					"source" : [ "obj-50", 0 ],
					"destination" : [ "obj-47", 0 ],
					"hidden" : 0,
					"midpoints" : [  ]
				}

			}
, 			{
				"patchline" : 				{
					"source" : [ "obj-26", 0 ],
					"destination" : [ "obj-61", 0 ],
					"hidden" : 0,
					"midpoints" : [  ]
				}

			}
, 			{
				"patchline" : 				{
					"source" : [ "obj-29", 2 ],
					"destination" : [ "obj-61", 0 ],
					"hidden" : 0,
					"midpoints" : [  ]
				}

			}
, 			{
				"patchline" : 				{
					"source" : [ "obj-49", 0 ],
					"destination" : [ "obj-61", 0 ],
					"hidden" : 0,
					"midpoints" : [  ]
				}

			}
, 			{
				"patchline" : 				{
					"source" : [ "obj-61", 0 ],
					"destination" : [ "obj-65", 0 ],
					"hidden" : 0,
					"midpoints" : [  ]
				}

			}
, 			{
				"patchline" : 				{
					"source" : [ "obj-61", 1 ],
					"destination" : [ "obj-52", 0 ],
					"hidden" : 0,
					"midpoints" : [  ]
				}

			}
, 			{
				"patchline" : 				{
					"source" : [ "obj-61", 2 ],
					"destination" : [ "obj-55", 0 ],
					"hidden" : 0,
					"midpoints" : [  ]
				}

			}
, 			{
				"patchline" : 				{
					"source" : [ "obj-25", 0 ],
					"destination" : [ "obj-56", 0 ],
					"hidden" : 0,
					"midpoints" : [  ]
				}

			}
, 			{
				"patchline" : 				{
					"source" : [ "obj-41", 0 ],
					"destination" : [ "obj-33", 0 ],
					"hidden" : 0,
					"midpoints" : [  ]
				}

			}
, 			{
				"patchline" : 				{
					"source" : [ "obj-18", 2 ],
					"destination" : [ "obj-22", 0 ],
					"hidden" : 0,
					"midpoints" : [  ]
				}

			}
, 			{
				"patchline" : 				{
					"source" : [ "obj-2", 1 ],
					"destination" : [ "obj-76", 1 ],
					"hidden" : 0,
					"midpoints" : [  ]
				}

			}
, 			{
				"patchline" : 				{
					"source" : [ "obj-46", 0 ],
					"destination" : [ "obj-2", 0 ],
					"hidden" : 0,
					"midpoints" : [  ]
				}

			}
, 			{
				"patchline" : 				{
					"source" : [ "obj-63", 0 ],
					"destination" : [ "obj-46", 0 ],
					"hidden" : 0,
					"midpoints" : [  ]
				}

			}
, 			{
				"patchline" : 				{
					"source" : [ "obj-18", 0 ],
					"destination" : [ "obj-78", 0 ],
					"hidden" : 0,
					"midpoints" : [  ]
				}

			}
, 			{
				"patchline" : 				{
					"source" : [ "obj-78", 0 ],
					"destination" : [ "obj-35", 0 ],
					"hidden" : 0,
					"midpoints" : [  ]
				}

			}
, 			{
				"patchline" : 				{
					"source" : [ "obj-9", 1 ],
					"destination" : [ "obj-76", 0 ],
					"hidden" : 0,
					"midpoints" : [  ]
				}

			}
 ]
	}

}
